  <svg width="500" height="500" viewBox="-550 -550 1100 1100" xmlns="http://www.w3.org/2000/svg">
  <style>
    .text1 { fill: black; font: 50px sans-serif; }
    .text2 { fill: white; font: 50px sans-serif; }
    .line2 { stroke: white; stroke-width:5; }
    .text3 { fill: black; font: 50px sans-serif; }
    .line3 { stroke: black; stroke-width:5; }
    .text4 { fill: white; font: 50px sans-serif; }
    .line4 { stroke: white; stroke-width:5; }
    .text5 { fill: black; font: 50px sans-serif; }
    .line5 { stroke: black; stroke-width:5; }
  </style>

  <circle cx="0" cy="0" r="505" fill="black" />
  <circle cx="0" cy="0" r="500" fill="white" />
  <circle cx="0" cy="0" r="400" fill="black" />
  <circle cx="0" cy="0" r="300" fill="white" />
  <circle cx="0" cy="0" r="200" fill="black" />
  <circle cx="0" cy="0" r="100" fill="white" />
  <line x1="-415" y1="-415" x2="-390" y2="-390" stroke="black" stroke-width="20"/>
  <polygon points="-375 -415, -415 -375, -360 -360" />

  <path id="circle2" fill="transparent"
      d="
      M 0 0
      m -130, 0
      a 130,130 0 1,1 260,0
      a 130,130 0 1,1 -260,0
      "
  />
  <path id="circle3" fill="transparent"
      d="
      M 0 0
      m -230, 0
      a 230,230 0 1,1 460,0
      a 230,230 0 1,1 -460,0
      "
  />
  <path id="circle4" fill="transparent"
      d="
      M 0 0
      m -330, 0
      a 330,330 0 1,1 660,0
      a 330,330 0 1,1 -660,0
      "
  />
  <path id="circle5" fill="transparent"
      d="
      M 0 0
      m -430, 0
      a 430,430 0 1,1 860,0
      a 430,430 0 1,1 -860,0
      "
  />

  <!-- First circle -->
  <text x="0" y="0" dominant-baseline="middle" text-anchor="middle" class="text1">GORE</text>

  <!-- Second circle -->
  <line transform="rotate(7 0,0)" x1="-200" x2="-100" y1="0" y2="0" class="line2"/>
  <text transform="rotate(21 0,0)" class="text2"><textPath href="#circle2">PARTY</textPath></text>
  <line transform="rotate(111 0,0)" x1="-200" x2="-100" y1="0" y2="0" class="line2"/>
  <text transform="rotate(126 0,0)" class="text2"><textPath href="#circle2">POLITICAL</textPath></text>
  <line transform="rotate(255 0,0)" x1="-200" x2="-100" y1="0" y2="0" class="line2"/>
  <text transform="rotate(269 0,0)" class="text2"><textPath href="#circle2">GORGE</textPath></text>

  <!-- Third circle -->
  <line transform="rotate(15 0,0)" x1="-300" x2="-200" y1="0" y2="0" class="line3"/>
  <text transform="rotate(22 0,0)" class="text3"><textPath href="#circle3">GEORG</textPath></text>
  <line transform="rotate(76 0,0)" x1="-300" x2="-200" y1="0" y2="0" class="line3"/>
  <text transform="rotate(83 0,0)" class="text3"><textPath href="#circle3">PLATE</textPath></text>
  <line transform="rotate(130 0,0)" x1="-300" x2="-200" y1="0" y2="0" class="line3"/>
  <text transform="rotate(138 0,0)" class="text3"><textPath href="#circle3">CANTOR</textPath></text>
  <line transform="rotate(197 0,0)" x1="-300" x2="-200" y1="0" y2="0" class="line3"/>
  <text transform="rotate(205 0,0)" class="text3"><textPath href="#circle3">CONCETTI</textPath></text>
  <line transform="rotate(275 0,0)" x1="-300" x2="-200" y1="0" y2="0" class="line3"/>
  <text transform="rotate(283 0,0)" class="text3"><textPath href="#circle3">COVE</textPath></text>
  <line transform="rotate(326 0,0)" x1="-300" x2="-200" y1="0" y2="0" class="line3"/>
  <text transform="rotate(333 0,0)" class="text3"><textPath href="#circle3">COAL</textPath></text>

  <!-- Fourth circle -->
  <line transform="rotate(93 0,0)" x1="-400" x2="-300" y1="0" y2="0" class="line4"/>
  <text transform="rotate(100 0,0)" class="text4"><textPath href="#circle4">CORAL</textPath></text>
  <line transform="rotate(137 0,0)" x1="-400" x2="-300" y1="0" y2="0" class="line4"/>
  <text transform="rotate(145 0,0)" class="text4"><textPath href="#circle4">CARTON</textPath></text>
  <line transform="rotate(189 0,0)" x1="-400" x2="-300" y1="0" y2="0" class="line4"/>
  <text transform="rotate(196 0,0)" class="text4"><textPath href="#circle4">PLATO</textPath></text>
  <line transform="rotate(232 0,0)" x1="-400" x2="-300" y1="0" y2="0" class="line4"/>
  <text transform="rotate(239 0,0)" class="text4"><textPath href="#circle4">CAVE</textPath></text>
  <line transform="rotate(270 0,0)" x1="-400" x2="-300" y1="0" y2="0" class="line4"/>
  <text transform="rotate(277 0,0)" class="text4"><textPath href="#circle4">REEF</textPath></text>
  <line transform="rotate(308 0,0)" x1="-400" x2="-300" y1="0" y2="0" class="line4"/>
  <text transform="rotate(315 0,0)" class="text4"><textPath href="#circle4">WITCHES</textPath></text>
  <line transform="rotate(3 0,0)" x1="-400" x2="-300" y1="0" y2="0" class="line4"/>
  <text transform="rotate(10 0,0)" class="text4"><textPath href="#circle4">GATES</textPath></text>
  <line transform="rotate(47 0,0)" x1="-400" x2="-300" y1="0" y2="0" class="line4"/>
  <text transform="rotate(54 0,0)" class="text4"><textPath href="#circle4">COVEN</textPath></text>

  <!-- Fifth circle -->
  <line transform="rotate(25 0,0)" x1="-500" x2="-400" y1="0" y2="0" class="line5"/>
  <text transform="rotate(30 0,0)" class="text5"><textPath href="#circle5">DILEMMA</textPath></text>
  <line transform="rotate(65 0,0)" x1="-500" x2="-400" y1="0" y2="0" class="line5"/>
  <text transform="rotate(71 0,0)" class="text5"><textPath href="#circle5">GRATES</textPath></text>
  <line transform="rotate(103 0,0)" x1="-500" x2="-400" y1="0" y2="0" class="line5"/>
  <text transform="rotate(108 0,0)" class="text5"><textPath href="#circle5">FREE</textPath></text>
  <line transform="rotate(131 0,0)" x1="-500" x2="-400" y1="0" y2="0" class="line5"/>
  <text transform="rotate(137 0,0)" class="text5"><textPath href="#circle5">CONFETTI</textPath></text>
  <line transform="rotate(175 0,0)" x1="-500" x2="-400" y1="0" y2="0" class="line5"/>
  <text transform="rotate(180 0,0)" class="text5"><textPath href="#circle5">TECTONIC</textPath></text>
  <line transform="rotate(220 0,0)" x1="-500" x2="-400" y1="0" y2="0" class="line5"/>
  <text transform="rotate(225 0,0)" class="text5"><textPath href="#circle5">PRISONER</textPath></text>
  <line transform="rotate(265 0,0)" x1="-500" x2="-400" y1="0" y2="0" class="line5"/>
  <text transform="rotate(270 0,0)" class="text5"><textPath href="#circle5">GRATIS</textPath></text>
  <line transform="rotate(300 0,0)" x1="-500" x2="-400" y1="0" y2="0" class="line5"/>
  <text transform="rotate(305 0,0)" class="text5"><textPath href="#circle5">CARBON</textPath></text>
  <line transform="rotate(339 0,0)" x1="-500" x2="-400" y1="0" y2="0" class="line5"/>
  <text transform="rotate(344 0,0)" class="text5"><textPath href="#circle5">SWITCHES</textPath></text>

</svg>
