  <svg width="500" height="500" viewBox="-550 -550 1100 1100" xmlns="http://www.w3.org/2000/svg">
  <style>
    .text1 { fill: black; font: 50px sans-serif; }
    .text2 { fill: white; font: 50px sans-serif; }
    .line2 { stroke: white; stroke-width:5; }
    .text3 { fill: black; font: 50px sans-serif; }
    .line3 { stroke: black; stroke-width:5; }
    .text4 { fill: white; font: 50px sans-serif; }
    .line4 { stroke: white; stroke-width:5; }
    .text5 { fill: black; font: 50px sans-serif; }
    .line5 { stroke: black; stroke-width:5; }
  </style>

  <circle cx="0" cy="0" r="505" fill="black" />
  <circle cx="0" cy="0" r="500" fill="white" />
  <circle cx="0" cy="0" r="400" fill="black" />
  <circle cx="0" cy="0" r="300" fill="white" />
  <circle cx="0" cy="0" r="200" fill="black" />
  <circle cx="0" cy="0" r="100" fill="white" />
  <line x1="-415" y1="-415" x2="-390" y2="-390" stroke="black" stroke-width="20"/>
  <polygon points="-375 -415, -415 -375, -360 -360" />

  <path id="circle2" fill="transparent"
      d="
      M 0 0
      m -130, 0
      a 130,130 0 1,1 260,0
      a 130,130 0 1,1 -260,0
      "
  />
  <path id="circle3" fill="transparent"
      d="
      M 0 0
      m -230, 0
      a 230,230 0 1,1 460,0
      a 230,230 0 1,1 -460,0
      "
  />
  <path id="circle4" fill="transparent"
      d="
      M 0 0
      m -330, 0
      a 330,330 0 1,1 660,0
      a 330,330 0 1,1 -660,0
      "
  />
  <path id="circle5" fill="transparent"
      d="
      M 0 0
      m -430, 0
      a 430,430 0 1,1 860,0
      a 430,430 0 1,1 -860,0
      "
  />

  <!-- First circle -->
  <text x="0" y="0" dominant-baseline="middle" text-anchor="middle" class="text1">EGG</text>

  <!-- Second circle -->
  <line transform="rotate(16 0,0)" x1="-200" x2="-100" y1="0" y2="0" class="line2"/>
  <text transform="rotate(29 0,0)" class="text2"><textPath href="#circle2">BEARD</textPath></text>
  <line transform="rotate(120 0,0)" x1="-200" x2="-100" y1="0" y2="0" class="line2"/>
  <text transform="rotate(134 0,0)" class="text2"><textPath href="#circle2">THREAT</textPath></text>
  <line transform="rotate(238 0,0)" x1="-200" x2="-100" y1="0" y2="0" class="line2"/>
  <text transform="rotate(252 0,0)" class="text2"><textPath href="#circle2">PARTICLE</textPath></text>

  <!-- Third circle -->
  <line transform="rotate(0 0,0)" x1="-300" x2="-200" y1="0" y2="0" class="line3"/>
  <text transform="rotate(6 0,0)" class="text3"><textPath href="#circle3">DOUGH</textPath></text>
  <line transform="rotate(58 0,0)" x1="-300" x2="-200" y1="0" y2="0" class="line3"/>
  <text transform="rotate(65 0,0)" class="text3"><textPath href="#circle3">BOARD</textPath></text>
  <line transform="rotate(115 0,0)" x1="-300" x2="-200" y1="0" y2="0" class="line3"/>
  <text transform="rotate(122 0,0)" class="text3"><textPath href="#circle3">TADPOLE</textPath></text>
  <line transform="rotate(186 0,0)" x1="-300" x2="-200" y1="0" y2="0" class="line3"/>
  <text transform="rotate(193 0,0)" class="text3"><textPath href="#circle3">THROAT</textPath></text>
  <line transform="rotate(250 0,0)" x1="-300" x2="-200" y1="0" y2="0" class="line3"/>
  <text transform="rotate(256 0,0)" class="text3"><textPath href="#circle3">HOLES</textPath></text>
  <line transform="rotate(305 0,0)" x1="-300" x2="-200" y1="0" y2="0" class="line3"/>
  <text transform="rotate(311 0,0)" class="text3"><textPath href="#circle3">THREE</textPath></text>

  <!-- Fourth circle -->
  <line transform="rotate(10 0,0)" x1="-400" x2="-300" y1="0" y2="0" class="line4"/>
  <text transform="rotate(15 0,0)" class="text4"><textPath href="#circle4">ETHER</textPath></text>
  <line transform="rotate(50 0,0)" x1="-400" x2="-300" y1="0" y2="0" class="line4"/>
  <text transform="rotate(55 0,0)" class="text4"><textPath href="#circle4">THEE</textPath></text>
  <line transform="rotate(84 0,0)" x1="-400" x2="-300" y1="0" y2="0" class="line4"/>
  <text transform="rotate(90 0,0)" class="text4"><textPath href="#circle4">CRICK</textPath></text>
  <line transform="rotate(122 0,0)" x1="-400" x2="-300" y1="0" y2="0" class="line4"/>
  <text transform="rotate(128 0,0)" class="text4"><textPath href="#circle4">ARTICLE</textPath></text>
  <line transform="rotate(170 0,0)" x1="-400" x2="-300" y1="0" y2="0" class="line4"/>
  <text transform="rotate(175 0,0)" class="text4"><textPath href="#circle4">TOAD</textPath></text>
  <line transform="rotate(205 0,0)" x1="-400" x2="-300" y1="0" y2="0" class="line4"/>
  <text transform="rotate(211 0,0)" class="text4"><textPath href="#circle4">TREAT</textPath></text>
  <line transform="rotate(245 0,0)" x1="-400" x2="-300" y1="0" y2="0" class="line4"/>
  <text transform="rotate(250 0,0)" class="text4"><textPath href="#circle4">BREAD</textPath></text>
  <line transform="rotate(286 0,0)" x1="-400" x2="-300" y1="0" y2="0" class="line4"/>
  <text transform="rotate(291 0,0)" class="text4"><textPath href="#circle4">HOLE</textPath></text>
  <line transform="rotate(320 0,0)" x1="-400" x2="-300" y1="0" y2="0" class="line4"/>
  <text transform="rotate(326 0,0)" class="text4"><textPath href="#circle4">WATSON</textPath></text>

  <!-- Fifth circle -->
  <line transform="rotate(23 0,0)" x1="-500" x2="-400" y1="0" y2="0" class="line5"/>
  <text transform="rotate(27 0,0)" class="text5"><textPath href="#circle5">FLETCHER</textPath></text>
  <line transform="rotate(67 0,0)" x1="-500" x2="-400" y1="0" y2="0" class="line5"/>
  <text transform="rotate(72 0,0)" class="text5"><textPath href="#circle5">ETCHER</textPath></text>
  <line transform="rotate(104 0,0)" x1="-500" x2="-400" y1="0" y2="0" class="line5"/>
  <text transform="rotate(109 0,0)" class="text5"><textPath href="#circle5">COUGH</textPath></text>
  <line transform="rotate(139 0,0)" x1="-500" x2="-400" y1="0" y2="0" class="line5"/>
  <text transform="rotate(144 0,0)" class="text5"><textPath href="#circle5">THE</textPath></text>
  <line transform="rotate(162 0,0)" x1="-500" x2="-400" y1="0" y2="0" class="line5"/>
  <text transform="rotate(166 0,0)" class="text5"><textPath href="#circle5">HOLMES</textPath></text>
  <line transform="rotate(200 0,0)" x1="-500" x2="-400" y1="0" y2="0" class="line5"/>
  <text transform="rotate(204 0,0)" class="text5"><textPath href="#circle5">BROAD</textPath></text>
  <line transform="rotate(233 0,0)" x1="-500" x2="-400" y1="0" y2="0" class="line5"/>
  <text transform="rotate(238 0,0)" class="text5"><textPath href="#circle5">TROAD</textPath></text>
  <line transform="rotate(266 0,0)" x1="-500" x2="-400" y1="0" y2="0" class="line5"/>
  <text transform="rotate(271 0,0)" class="text5"><textPath href="#circle5">TRICK</textPath></text>
  <line transform="rotate(295 0,0)" x1="-500" x2="-400" y1="0" y2="0" class="line5"/>
  <text transform="rotate(300 0,0)" class="text5"><textPath href="#circle5">FETCHER</textPath></text>
  <line transform="rotate(336 0,0)" x1="-500" x2="-400" y1="0" y2="0" class="line5"/>
  <text transform="rotate(341 0,0)" class="text5"><textPath href="#circle5">ELECTRON</textPath></text>

</svg>
