  <svg width="500" height="500" viewBox="-550 -550 1100 1100" xmlns="http://www.w3.org/2000/svg">
  <style>
    .text1 { fill: black; font: 50px sans-serif; }
    .text2 { fill: white; font: 50px sans-serif; }
    .line2 { stroke: white; stroke-width:5; }
    .text3 { fill: black; font: 50px sans-serif; }
    .line3 { stroke: black; stroke-width:5; }
    .text4 { fill: white; font: 50px sans-serif; }
    .line4 { stroke: white; stroke-width:5; }
    .text5 { fill: black; font: 50px sans-serif; }
    .line5 { stroke: black; stroke-width:5; }
  </style>

  <circle cx="0" cy="0" r="505" fill="black" />
  <circle cx="0" cy="0" r="500" fill="white" />
  <circle cx="0" cy="0" r="400" fill="black" />
  <circle cx="0" cy="0" r="300" fill="white" />
  <circle cx="0" cy="0" r="200" fill="black" />
  <circle cx="0" cy="0" r="100" fill="white" />
  <line x1="-415" y1="-415" x2="-390" y2="-390" stroke="black" stroke-width="20"/>
  <polygon points="-375 -415, -415 -375, -360 -360" />

  <path id="circle2" fill="transparent"
      d="
      M 0 0
      m -130, 0
      a 130,130 0 1,1 260,0
      a 130,130 0 1,1 -260,0
      "
  />
  <path id="circle3" fill="transparent"
      d="
      M 0 0
      m -230, 0
      a 230,230 0 1,1 460,0
      a 230,230 0 1,1 -460,0
      "
  />
  <path id="circle4" fill="transparent"
      d="
      M 0 0
      m -330, 0
      a 330,330 0 1,1 660,0
      a 330,330 0 1,1 -660,0
      "
  />
  <path id="circle5" fill="transparent"
      d="
      M 0 0
      m -430, 0
      a 430,430 0 1,1 860,0
      a 430,430 0 1,1 -860,0
      "
  />

  <!-- First circle -->
  <text x="0" y="0" dominant-baseline="middle" text-anchor="middle" class="text1">GAS</text>

  <!-- Second circle -->
  <line transform="rotate(-18 0,0)" x1="-200" x2="-100" y1="0" y2="0" class="line2"/>
  <text transform="rotate(1 0,0)" class="text2"><textPath href="#circle2">TESLA</textPath></text>
  <line transform="rotate(91 0,0)" x1="-200" x2="-100" y1="0" y2="0" class="line2"/>
  <text transform="rotate(110 0,0)" class="text2"><textPath href="#circle2">COLLIE</textPath></text>
  <line transform="rotate(208 0,0)" x1="-200" x2="-100" y1="0" y2="0" class="line2"/>
  <text transform="rotate(228 0,0)" class="text2"><textPath href="#circle2">DOPPER</textPath></text>

  <!-- Third circle -->
  <line transform="rotate(9 0,0)" x1="-300" x2="-200" y1="0" y2="0" class="line3"/>
  <text transform="rotate(16 0,0)" class="text3"><textPath href="#circle3">BRIGHTEN</textPath></text>
  <line transform="rotate(86 0,0)" x1="-300" x2="-200" y1="0" y2="0" class="line3"/>
  <text transform="rotate(93 0,0)" class="text3"><textPath href="#circle3">DAPPER</textPath></text>
  <line transform="rotate(150 0,0)" x1="-300" x2="-200" y1="0" y2="0" class="line3"/>
  <text transform="rotate(157 0,0)" class="text3"><textPath href="#circle3">SWIFT</textPath></text>
  <line transform="rotate(202 0,0)" x1="-300" x2="-200" y1="0" y2="0" class="line3"/>
  <text transform="rotate(209 0,0)" class="text3"><textPath href="#circle3">QUICK</textPath></text>
  <line transform="rotate(255 0,0)" x1="-300" x2="-200" y1="0" y2="0" class="line3"/>
  <text transform="rotate(262 0,0)" class="text3"><textPath href="#circle3">SPOOK</textPath></text>
  <line transform="rotate(312 0,0)" x1="-300" x2="-200" y1="0" y2="0" class="line3"/>
  <text transform="rotate(319 0,0)" class="text3"><textPath href="#circle3">SPOOL</textPath></text>

  <!-- Fourth circle -->
  <line transform="rotate(34 0,0)" x1="-400" x2="-300" y1="0" y2="0" class="line4"/>
  <text transform="rotate(43 0,0)" class="text4"><textPath href="#circle4">QUIRK</textPath></text>
  <line transform="rotate(81 0,0)" x1="-400" x2="-300" y1="0" y2="0" class="line4"/>
  <text transform="rotate(91 0,0)" class="text4"><textPath href="#circle4">PAMPER</textPath></text>
  <line transform="rotate(137 0,0)" x1="-400" x2="-300" y1="0" y2="0" class="line4"/>
  <text transform="rotate(147 0,0)" class="text4"><textPath href="#circle4">QUARK</textPath></text>
  <line transform="rotate(188 0,0)" x1="-400" x2="-300" y1="0" y2="0" class="line4"/>
  <text transform="rotate(198 0,0)" class="text4"><textPath href="#circle4">SHIFT</textPath></text>
  <line transform="rotate(233 0,0)" x1="-400" x2="-300" y1="0" y2="0" class="line4"/>
  <text transform="rotate(243 0,0)" class="text4"><textPath href="#circle4">DAMPER</textPath></text>
  <line transform="rotate(290 0,0)" x1="-400" x2="-300" y1="0" y2="0" class="line4"/>
  <text transform="rotate(300 0,0)" class="text4"><textPath href="#circle4">COIL</textPath></text>
  <line transform="rotate(330 0,0)" x1="-400" x2="-300" y1="0" y2="0" class="line4"/>
  <text transform="rotate(340 0,0)" class="text4"><textPath href="#circle4">COLLIDER</textPath></text>

  <!-- Fifth circle -->
  <line transform="rotate(29 0,0)" x1="-500" x2="-400" y1="0" y2="0" class="line5"/>
  <text transform="rotate(33 0,0)" class="text5"><textPath href="#circle5">NIKOLA</textPath></text>
  <line transform="rotate(62 0,0)" x1="-500" x2="-400" y1="0" y2="0" class="line5"/>
  <text transform="rotate(66 0,0)" class="text5"><textPath href="#circle5">COLLIER</textPath></text>
  <line transform="rotate(99 0,0)" x1="-500" x2="-400" y1="0" y2="0" class="line5"/>
  <text transform="rotate(104 0,0)" class="text5"><textPath href="#circle5">FRIGHTEN</textPath></text>
  <line transform="rotate(142 0,0)" x1="-500" x2="-400" y1="0" y2="0" class="line5"/>
  <text transform="rotate(146 0,0)" class="text5"><textPath href="#circle5">LIGHTEN</textPath></text>
  <line transform="rotate(180 0,0)" x1="-500" x2="-400" y1="0" y2="0" class="line5"/>
  <text transform="rotate(184 0,0)" class="text5"><textPath href="#circle5">SPOIL</textPath></text>
  <line transform="rotate(208 0,0)" x1="-500" x2="-400" y1="0" y2="0" class="line5"/>
  <text transform="rotate(212 0,0)" class="text5"><textPath href="#circle5">COLLIDE</textPath></text>
  <line transform="rotate(246 0,0)" x1="-500" x2="-400" y1="0" y2="0" class="line5"/>
  <text transform="rotate(250 0,0)" class="text5"><textPath href="#circle5">COAL</textPath></text>
  <line transform="rotate(273 0,0)" x1="-500" x2="-400" y1="0" y2="0" class="line5"/>
  <text transform="rotate(277 0,0)" class="text5"><textPath href="#circle5">HADRON</textPath></text>
  <line transform="rotate(310 0,0)" x1="-500" x2="-400" y1="0" y2="0" class="line5"/>
  <text transform="rotate(314 0,0)" class="text5"><textPath href="#circle5">DOPPLER</textPath></text>
  <line transform="rotate(351 0,0)" x1="-500" x2="-400" y1="0" y2="0" class="line5"/>
  <text transform="rotate(355 0,0)" class="text5"><textPath href="#circle5">LIGHTER</textPath></text>

</svg>
