  <svg width="500" height="500" viewBox="-550 -550 1100 1100" xmlns="http://www.w3.org/2000/svg">
  <style>
    .text1 { fill: black; font: 50px sans-serif; }
    .text2 { fill: white; font: 50px sans-serif; }
    .line2 { stroke: white; stroke-width:5; }
    .text3 { fill: black; font: 50px sans-serif; }
    .line3 { stroke: black; stroke-width:5; }
    .text4 { fill: white; font: 50px sans-serif; }
    .line4 { stroke: white; stroke-width:5; }
    .text5 { fill: black; font: 50px sans-serif; }
    .line5 { stroke: black; stroke-width:5; }
  </style>

  <circle cx="0" cy="0" r="505" fill="black" />
  <circle cx="0" cy="0" r="500" fill="white" />
  <circle cx="0" cy="0" r="400" fill="black" />
  <circle cx="0" cy="0" r="300" fill="white" />
  <circle cx="0" cy="0" r="200" fill="black" />
  <circle cx="0" cy="0" r="100" fill="white" />
  <line x1="-415" y1="-415" x2="-390" y2="-390" stroke="black" stroke-width="20"/>
  <polygon points="-375 -415, -415 -375, -360 -360" />

  <path id="circle2" fill="transparent"
      d="
      M 0 0
      m -130, 0
      a 130,130 0 1,1 260,0
      a 130,130 0 1,1 -260,0
      "
  />
  <path id="circle3" fill="transparent"
      d="
      M 0 0
      m -230, 0
      a 230,230 0 1,1 460,0
      a 230,230 0 1,1 -460,0
      "
  />
  <path id="circle4" fill="transparent"
      d="
      M 0 0
      m -330, 0
      a 330,330 0 1,1 660,0
      a 330,330 0 1,1 -660,0
      "
  />
  <path id="circle5" fill="transparent"
      d="
      M 0 0
      m -430, 0
      a 430,430 0 1,1 860,0
      a 430,430 0 1,1 -860,0
      "
  />

  <!-- First circle -->
  <text x="0" y="0" dominant-baseline="middle" text-anchor="middle" class="text1">CODE</text>

  <!-- Second circle -->
  <line transform="rotate(-23 0,0)" x1="-200" x2="-100" y1="0" y2="0" class="line2"/>
  <text transform="rotate(-9 0,0)" class="text2"><textPath href="#circle2">STEEL</textPath></text>
  <line transform="rotate(76 0,0)" x1="-200" x2="-100" y1="0" y2="0" class="line2"/>
  <text transform="rotate(90 0,0)" class="text2"><textPath href="#circle2">SPECIES</textPath></text>
  <line transform="rotate(202 0,0)" x1="-200" x2="-100" y1="0" y2="0" class="line2"/>
  <text transform="rotate(216 0,0)" class="text2"><textPath href="#circle2">TRANGLE</textPath></text>

  <!-- Third circle -->
  <line transform="rotate(18 0,0)" x1="-300" x2="-200" y1="0" y2="0" class="line3"/>
  <text transform="rotate(26 0,0)" class="text3"><textPath href="#circle3">FAINT</textPath></text>
  <line transform="rotate(71 0,0)" x1="-300" x2="-200" y1="0" y2="0" class="line3"/>
  <text transform="rotate(80 0,0)" class="text3"><textPath href="#circle3">RASCAL</textPath></text>
  <line transform="rotate(137 0,0)" x1="-300" x2="-200" y1="0" y2="0" class="line3"/>
  <text transform="rotate(146 0,0)" class="text3"><textPath href="#circle3">PAINT</textPath></text>
  <line transform="rotate(191 0,0)" x1="-300" x2="-200" y1="0" y2="0" class="line3"/>
  <text transform="rotate(200 0,0)" class="text3"><textPath href="#circle3">STEED</textPath></text>
  <line transform="rotate(250 0,0)" x1="-300" x2="-200" y1="0" y2="0" class="line3"/>
  <text transform="rotate(259 0,0)" class="text3"><textPath href="#circle3">MORSE</textPath></text>
  <line transform="rotate(313 0,0)" x1="-300" x2="-200" y1="0" y2="0" class="line3"/>
  <text transform="rotate(322 0,0)" class="text3"><textPath href="#circle3">GENIUS</textPath></text>

  <!-- Fourth circle -->
  <line transform="rotate(-13 0,0)" x1="-400" x2="-300" y1="0" y2="0" class="line4"/>
  <text transform="rotate(-4 0,0)" class="text4"><textPath href="#circle4">KLEIN</textPath></text>
  <line transform="rotate(30 0,0)" x1="-400" x2="-300" y1="0" y2="0" class="line4"/>
  <text transform="rotate(40 0,0)" class="text4"><textPath href="#circle4">ANGLE</textPath></text>
  <line transform="rotate(79 0,0)" x1="-400" x2="-300" y1="0" y2="0" class="line4"/>
  <text transform="rotate(88 0,0)" class="text4"><textPath href="#circle4">TANGLE</textPath></text>
  <line transform="rotate(132 0,0)" x1="-400" x2="-300" y1="0" y2="0" class="line4"/>
  <text transform="rotate(141 0,0)" class="text4"><textPath href="#circle4">HORSE</textPath></text>
  <line transform="rotate(182 0,0)" x1="-400" x2="-300" y1="0" y2="0" class="line4"/>
  <text transform="rotate(191 0,0)" class="text4"><textPath href="#circle4">PASCAL</textPath></text>
  <line transform="rotate(235 0,0)" x1="-400" x2="-300" y1="0" y2="0" class="line4"/>
  <text transform="rotate(244 0,0)" class="text4"><textPath href="#circle4">TRIANGLE</textPath></text>
  <line transform="rotate(297 0,0)" x1="-400" x2="-300" y1="0" y2="0" class="line4"/>
  <text transform="rotate(306 0,0)" class="text4"><textPath href="#circle4">GENUS</textPath></text>

  <!-- Fifth circle -->
  <line transform="rotate(17 0,0)" x1="-500" x2="-400" y1="0" y2="0" class="line5"/>
  <text transform="rotate(24 0,0)" class="text5"><textPath href="#circle5">SCOUNDREL</textPath></text>
  <line transform="rotate(74 0,0)" x1="-500" x2="-400" y1="0" y2="0" class="line5"/>
  <text transform="rotate(82 0,0)" class="text5"><textPath href="#circle5">INKLE</textPath></text>
  <line transform="rotate(109 0,0)" x1="-500" x2="-400" y1="0" y2="0" class="line5"/>
  <text transform="rotate(117 0,0)" class="text5"><textPath href="#circle5">GENIE</textPath></text>
  <line transform="rotate(146 0,0)" x1="-500" x2="-400" y1="0" y2="0" class="line5"/>
  <text transform="rotate(154 0,0)" class="text5"><textPath href="#circle5">GENIES</textPath></text>
  <line transform="rotate(187 0,0)" x1="-500" x2="-400" y1="0" y2="0" class="line5"/>
  <text transform="rotate(195 0,0)" class="text5"><textPath href="#circle5">ORIGIN</textPath></text>
  <line transform="rotate(226 0,0)" x1="-500" x2="-400" y1="0" y2="0" class="line5"/>
  <text transform="rotate(234 0,0)" class="text5"><textPath href="#circle5">BOTTLE</textPath></text>
  <line transform="rotate(268 0,0)" x1="-500" x2="-400" y1="0" y2="0" class="line5"/>
  <text transform="rotate(276 0,0)" class="text5"><textPath href="#circle5">POINT</textPath></text>
  <line transform="rotate(304 0,0)" x1="-500" x2="-400" y1="0" y2="0" class="line5"/>
  <text transform="rotate(312 0,0)" class="text5"><textPath href="#circle5">ANKLE</textPath></text>
  <line transform="rotate(342 0,0)" x1="-500" x2="-400" y1="0" y2="0" class="line5"/>
  <text transform="rotate(350 0,0)" class="text5"><textPath href="#circle5">FLINT</textPath></text>

</svg>
