  <svg width="500" height="500" viewBox="-550 -550 1100 1100" xmlns="http://www.w3.org/2000/svg">
  <style>
    .text1 { fill: black; font: 50px sans-serif; }
    .text2 { fill: white; font: 50px sans-serif; }
    .line2 { stroke: white; stroke-width:5; }
    .text3 { fill: black; font: 50px sans-serif; }
    .line3 { stroke: black; stroke-width:5; }
    .text4 { fill: white; font: 50px sans-serif; }
    .line4 { stroke: white; stroke-width:5; }
    .text5 { fill: black; font: 50px sans-serif; }
    .line5 { stroke: black; stroke-width:5; }
  </style>

  <circle cx="0" cy="0" r="505" fill="black" />
  <circle cx="0" cy="0" r="500" fill="white" />
  <circle cx="0" cy="0" r="400" fill="black" />
  <circle cx="0" cy="0" r="300" fill="white" />
  <circle cx="0" cy="0" r="200" fill="black" />
  <circle cx="0" cy="0" r="100" fill="white" />
  <line x1="-415" y1="-415" x2="-390" y2="-390" stroke="black" stroke-width="20"/>
  <polygon points="-375 -415, -415 -375, -360 -360" />

  <path id="circle2" fill="transparent"
      d="
      M 0 0
      m -130, 0
      a 130,130 0 1,1 260,0
      a 130,130 0 1,1 -260,0
      "
  />
  <path id="circle3" fill="transparent"
      d="
      M 0 0
      m -230, 0
      a 230,230 0 1,1 460,0
      a 230,230 0 1,1 -460,0
      "
  />
  <path id="circle4" fill="transparent"
      d="
      M 0 0
      m -330, 0
      a 330,330 0 1,1 660,0
      a 330,330 0 1,1 -660,0
      "
  />
  <path id="circle5" fill="transparent"
      d="
      M 0 0
      m -430, 0
      a 430,430 0 1,1 860,0
      a 430,430 0 1,1 -860,0
      "
  />

  <!-- First circle -->
  <text x="0" y="0" dominant-baseline="middle" text-anchor="middle" class="text1">MEDIA</text>

  <!-- Second circle -->
  <line transform="rotate(-23 0,0)" x1="-200" x2="-100" y1="0" y2="0" class="line2"/>
  <text transform="rotate(-10 0,0)" class="text2"><textPath href="#circle2">MILITARY</textPath></text>
  <line transform="rotate(107 0,0)" x1="-200" x2="-100" y1="0" y2="0" class="line2"/>
  <text transform="rotate(120 0,0)" class="text2"><textPath href="#circle2">WINNER</textPath></text>
  <line transform="rotate(225 0,0)" x1="-200" x2="-100" y1="0" y2="0" class="line2"/>
  <text transform="rotate(238 0,0)" class="text2"><textPath href="#circle2">STRING</textPath></text>

  <!-- Third circle -->
  <line transform="rotate(1 0,0)" x1="-300" x2="-200" y1="0" y2="0" class="line3"/>
  <text transform="rotate(11 0,0)" class="text3"><textPath href="#circle3">LOWER</textPath></text>
  <line transform="rotate(66 0,0)" x1="-300" x2="-200" y1="0" y2="0" class="line3"/>
  <text transform="rotate(76 0,0)" class="text3"><textPath href="#circle3">SUMMED</textPath></text>
  <line transform="rotate(141 0,0)" x1="-300" x2="-200" y1="0" y2="0" class="line3"/>
  <text transform="rotate(152 0,0)" class="text3"><textPath href="#circle3">AIDED</textPath></text>
  <line transform="rotate(199 0,0)" x1="-300" x2="-200" y1="0" y2="0" class="line3"/>
  <text transform="rotate(210 0,0)" class="text3"><textPath href="#circle3">DINNER</textPath></text>
  <line transform="rotate(267 0,0)" x1="-300" x2="-200" y1="0" y2="0" class="line3"/>
  <text transform="rotate(277 0,0)" class="text3"><textPath href="#circle3">BREAKFAST</textPath></text>

  <!-- Fourth circle -->
  <line transform="rotate(-9 0,0)" x1="-400" x2="-300" y1="0" y2="0" class="line4"/>
  <text transform="rotate(-1 0,0)" class="text4"><textPath href="#circle4">POWER</textPath></text>
  <line transform="rotate(40 0,0)" x1="-400" x2="-300" y1="0" y2="0" class="line4"/>
  <text transform="rotate(49 0,0)" class="text4"><textPath href="#circle4">RAFT</textPath></text>
  <line transform="rotate(80 0,0)" x1="-400" x2="-300" y1="0" y2="0" class="line4"/>
  <text transform="rotate(88 0,0)" class="text4"><textPath href="#circle4">RIFT</textPath></text>
  <line transform="rotate(116 0,0)" x1="-400" x2="-300" y1="0" y2="0" class="line4"/>
  <text transform="rotate(124 0,0)" class="text4"><textPath href="#circle4">ELECTRIC</textPath></text>
  <line transform="rotate(176 0,0)" x1="-400" x2="-300" y1="0" y2="0" class="line4"/>
  <text transform="rotate(184 0,0)" class="text4"><textPath href="#circle4">CONTINENTAL</textPath></text>
  <line transform="rotate(254 0,0)" x1="-400" x2="-300" y1="0" y2="0" class="line4"/>
  <text transform="rotate(263 0,0)" class="text4"><textPath href="#circle4">GUITAR</textPath></text>
  <line transform="rotate(304 0,0)" x1="-400" x2="-300" y1="0" y2="0" class="line4"/>
  <text transform="rotate(312 0,0)" class="text4"><textPath href="#circle4">LOSER</textPath></text>

  <!-- Fifth circle -->
  <line transform="rotate(23 0,0)" x1="-500" x2="-400" y1="0" y2="0" class="line5"/>
  <text transform="rotate(29 0,0)" class="text5"><textPath href="#circle5">ENLARGE</textPath></text>
  <line transform="rotate(68 0,0)" x1="-500" x2="-400" y1="0" y2="0" class="line5"/>
  <text transform="rotate(75 0,0)" class="text5"><textPath href="#circle5">AIMED</textPath></text>
  <line transform="rotate(103 0,0)" x1="-500" x2="-400" y1="0" y2="0" class="line5"/>
  <text transform="rotate(110 0,0)" class="text5"><textPath href="#circle5">SPRING</textPath></text>
  <line transform="rotate(143 0,0)" x1="-500" x2="-400" y1="0" y2="0" class="line5"/>
  <text transform="rotate(150 0,0)" class="text5"><textPath href="#circle5">STRINGS</textPath></text>
  <line transform="rotate(186 0,0)" x1="-500" x2="-400" y1="0" y2="0" class="line5"/>
  <text transform="rotate(193 0,0)" class="text5"><textPath href="#circle5">SUMMER</textPath></text>
  <line transform="rotate(230 0,0)" x1="-500" x2="-400" y1="0" y2="0" class="line5"/>
  <text transform="rotate(237 0,0)" class="text5"><textPath href="#circle5">ADDED</textPath></text>
  <line transform="rotate(267 0,0)" x1="-500" x2="-400" y1="0" y2="0" class="line5"/>
  <text transform="rotate(274 0,0)" class="text5"><textPath href="#circle5">GENERAL</textPath></text>
  <line transform="rotate(313 0,0)" x1="-500" x2="-400" y1="0" y2="0" class="line5"/>
  <text transform="rotate(320 0,0)" class="text5"><textPath href="#circle5">DRIFT</textPath></text>
  <line transform="rotate(346 0,0)" x1="-500" x2="-400" y1="0" y2="0" class="line5"/>
  <text transform="rotate(353 0,0)" class="text5"><textPath href="#circle5">DRAFT</textPath></text>

</svg>
