  <svg width="500" height="500" viewBox="-550 -550 1100 1100" xmlns="http://www.w3.org/2000/svg">
  <style>
    .text1 { fill: black; font: 50px sans-serif; }
    .text2 { fill: white; font: 50px sans-serif; }
    .line2 { stroke: white; stroke-width:5; }
    .text3 { fill: black; font: 50px sans-serif; }
    .line3 { stroke: black; stroke-width:5; }
    .text4 { fill: white; font: 50px sans-serif; }
    .line4 { stroke: white; stroke-width:5; }
    .text5 { fill: black; font: 50px sans-serif; }
    .line5 { stroke: black; stroke-width:5; }
  </style>

  <circle cx="0" cy="0" r="505" fill="black" />
  <circle cx="0" cy="0" r="500" fill="white" />
  <circle cx="0" cy="0" r="400" fill="black" />
  <circle cx="0" cy="0" r="300" fill="white" />
  <circle cx="0" cy="0" r="200" fill="black" />
  <circle cx="0" cy="0" r="100" fill="white" />
  <line x1="-415" y1="-415" x2="-390" y2="-390" stroke="black" stroke-width="20"/>
  <polygon points="-375 -415, -415 -375, -360 -360" />

  <path id="circle2" fill="transparent"
      d="
      M 0 0
      m -130, 0
      a 130,130 0 1,1 260,0
      a 130,130 0 1,1 -260,0
      "
  />
  <path id="circle3" fill="transparent"
      d="
      M 0 0
      m -230, 0
      a 230,230 0 1,1 460,0
      a 230,230 0 1,1 -460,0
      "
  />
  <path id="circle4" fill="transparent"
      d="
      M 0 0
      m -330, 0
      a 330,330 0 1,1 660,0
      a 330,330 0 1,1 -660,0
      "
  />
  <path id="circle5" fill="transparent"
      d="
      M 0 0
      m -430, 0
      a 430,430 0 1,1 860,0
      a 430,430 0 1,1 -860,0
      "
  />

  <!-- First circle -->
  <text x="0" y="0" dominant-baseline="middle" text-anchor="middle" class="text1">PIECE</text>

  <!-- Second circle -->
  <line transform="rotate(-8 0,0)" x1="-200" x2="-100" y1="0" y2="0" class="line2"/>
  <text transform="rotate(3 0,0)" class="text2"><textPath href="#circle2">BACON</textPath></text>
  <line transform="rotate(94 0,0)" x1="-200" x2="-100" y1="0" y2="0" class="line2"/>
  <text transform="rotate(105 0,0)" class="text2"><textPath href="#circle2">EVOLUTION</textPath></text>
  <line transform="rotate(245 0,0)" x1="-200" x2="-100" y1="0" y2="0" class="line2"/>
  <text transform="rotate(257 0,0)" class="text2"><textPath href="#circle2">RISKED</textPath></text>

  <!-- Third circle -->
  <line transform="rotate(61 0,0)" x1="-300" x2="-200" y1="0" y2="0" class="line3"/>
  <text transform="rotate(70 0,0)" class="text3"><textPath href="#circle3">PORK</textPath></text>
  <line transform="rotate(114 0,0)" x1="-300" x2="-200" y1="0" y2="0" class="line3"/>
  <text transform="rotate(124 0,0)" class="text3"><textPath href="#circle3">SPECIES</textPath></text>
  <line transform="rotate(187 0,0)" x1="-300" x2="-200" y1="0" y2="0" class="line3"/>
  <text transform="rotate(196 0,0)" class="text3"><textPath href="#circle3">WISH</textPath></text>
  <line transform="rotate(238 0,0)" x1="-300" x2="-200" y1="0" y2="0" class="line3"/>
  <text transform="rotate(247 0,0)" class="text3"><textPath href="#circle3">SPECIE</textPath></text>
  <line transform="rotate(302 0,0)" x1="-300" x2="-200" y1="0" y2="0" class="line3"/>
  <text transform="rotate(311 0,0)" class="text3"><textPath href="#circle3">ABLED</textPath></text>
  <line transform="rotate(1 0,0)" x1="-300" x2="-200" y1="0" y2="0" class="line3"/>
  <text transform="rotate(11 0,0)" class="text3"><textPath href="#circle3">BLADE</textPath></text>

  <!-- Fourth circle -->
  <line transform="rotate(19 0,0)" x1="-400" x2="-300" y1="0" y2="0" class="line4"/>
  <text transform="rotate(24 0,0)" class="text4"><textPath href="#circle4">FORK</textPath></text>
  <line transform="rotate(54 0,0)" x1="-400" x2="-300" y1="0" y2="0" class="line4"/>
  <text transform="rotate(60 0,0)" class="text4"><textPath href="#circle4">PIECES</textPath></text>
  <line transform="rotate(98 0,0)" x1="-400" x2="-300" y1="0" y2="0" class="line4"/>
  <text transform="rotate(104 0,0)" class="text4"><textPath href="#circle4">FRISKED</textPath></text>
  <line transform="rotate(147 0,0)" x1="-400" x2="-300" y1="0" y2="0" class="line4"/>
  <text transform="rotate(153 0,0)" class="text4"><textPath href="#circle4">SCIENTIFIC</textPath></text>
  <line transform="rotate(207 0,0)" x1="-400" x2="-300" y1="0" y2="0" class="line4"/>
  <text transform="rotate(213 0,0)" class="text4"><textPath href="#circle4">SWISH</textPath></text>
  <line transform="rotate(247 0,0)" x1="-400" x2="-300" y1="0" y2="0" class="line4"/>
  <text transform="rotate(253 0,0)" class="text4"><textPath href="#circle4">FRANCIS</textPath></text>
  <line transform="rotate(297 0,0)" x1="-400" x2="-300" y1="0" y2="0" class="line4"/>
  <text transform="rotate(303 0,0)" class="text4"><textPath href="#circle4">SWISS</textPath></text>
  <line transform="rotate(337 0,0)" x1="-400" x2="-300" y1="0" y2="0" class="line4"/>
  <text transform="rotate(343 0,0)" class="text4"><textPath href="#circle4">FRANC</textPath></text>

  <!-- Fifth circle -->
  <line transform="rotate(29 0,0)" x1="-500" x2="-400" y1="0" y2="0" class="line5"/>
  <text transform="rotate(33 0,0)" class="text5"><textPath href="#circle5">DESIRE</textPath></text>
  <line transform="rotate(61 0,0)" x1="-500" x2="-400" y1="0" y2="0" class="line5"/>
  <text transform="rotate(65 0,0)" class="text5"><textPath href="#circle5">SEARCHED</textPath></text>
  <line transform="rotate(107 0,0)" x1="-500" x2="-400" y1="0" y2="0" class="line5"/>
  <text transform="rotate(111 0,0)" class="text5"><textPath href="#circle5">REVOLUTION</textPath></text>
  <line transform="rotate(158 0,0)" x1="-500" x2="-400" y1="0" y2="0" class="line5"/>
  <text transform="rotate(162 0,0)" class="text5"><textPath href="#circle5">KNIFE</textPath></text>
  <line transform="rotate(186 0,0)" x1="-500" x2="-400" y1="0" y2="0" class="line5"/>
  <text transform="rotate(190 0,0)" class="text5"><textPath href="#circle5">AMBLED</textPath></text>
  <line transform="rotate(222 0,0)" x1="-500" x2="-400" y1="0" y2="0" class="line5"/>
  <text transform="rotate(226 0,0)" class="text5"><textPath href="#circle5">FRANCS</textPath></text>
  <line transform="rotate(257 0,0)" x1="-500" x2="-400" y1="0" y2="0" class="line5"/>
  <text transform="rotate(261 0,0)" class="text5"><textPath href="#circle5">RESEARCH</textPath></text>
  <line transform="rotate(302 0,0)" x1="-500" x2="-400" y1="0" y2="0" class="line5"/>
  <text transform="rotate(306 0,0)" class="text5"><textPath href="#circle5">SEARCHER</textPath></text>
  <line transform="rotate(348 0,0)" x1="-500" x2="-400" y1="0" y2="0" class="line5"/>
  <text transform="rotate(352 0,0)" class="text5"><textPath href="#circle5">GAMBLED</textPath></text>

</svg>
