  <svg width="500" height="500" viewBox="-550 -550 1100 1100" xmlns="http://www.w3.org/2000/svg">
  <style>
    .text1 { fill: black; font: 50px sans-serif; }
    .text2 { fill: white; font: 50px sans-serif; }
    .line2 { stroke: white; stroke-width:5; }
    .text3 { fill: black; font: 50px sans-serif; }
    .line3 { stroke: black; stroke-width:5; }
    .text4 { fill: white; font: 50px sans-serif; }
    .line4 { stroke: white; stroke-width:5; }
    .text5 { fill: black; font: 50px sans-serif; }
    .line5 { stroke: black; stroke-width:5; }
  </style>

  <circle cx="0" cy="0" r="505" fill="black" />
  <circle cx="0" cy="0" r="500" fill="white" />
  <circle cx="0" cy="0" r="400" fill="black" />
  <circle cx="0" cy="0" r="300" fill="white" />
  <circle cx="0" cy="0" r="200" fill="black" />
  <circle cx="0" cy="0" r="100" fill="white" />
  <line x1="-415" y1="-415" x2="-390" y2="-390" stroke="black" stroke-width="20"/>
  <polygon points="-375 -415, -415 -375, -360 -360" />

  <path id="circle2" fill="transparent"
      d="
      M 0 0
      m -130, 0
      a 130,130 0 1,1 260,0
      a 130,130 0 1,1 -260,0
      "
  />
  <path id="circle3" fill="transparent"
      d="
      M 0 0
      m -230, 0
      a 230,230 0 1,1 460,0
      a 230,230 0 1,1 -460,0
      "
  />
  <path id="circle4" fill="transparent"
      d="
      M 0 0
      m -330, 0
      a 330,330 0 1,1 660,0
      a 330,330 0 1,1 -660,0
      "
  />
  <path id="circle5" fill="transparent"
      d="
      M 0 0
      m -430, 0
      a 430,430 0 1,1 860,0
      a 430,430 0 1,1 -860,0
      "
  />

  <!-- First circle -->
  <text x="0" y="0" dominant-baseline="middle" text-anchor="middle" class="text1">WOOD</text>

  <!-- Second circle -->
  <line transform="rotate(7 0,0)" x1="-200" x2="-100" y1="0" y2="0" class="line2"/>
  <text transform="rotate(17 0,0)" class="text2"><textPath href="#circle2">FOUL</textPath></text>
  <line transform="rotate(88 0,0)" x1="-200" x2="-100" y1="0" y2="0" class="line2"/>
  <text transform="rotate(99 0,0)" class="text2"><textPath href="#circle2">RESTAURANT</textPath></text>
  <line transform="rotate(263 0,0)" x1="-200" x2="-100" y1="0" y2="0" class="line2"/>
  <text transform="rotate(274 0,0)" class="text2"><textPath href="#circle2">WATER</textPath></text>

  <!-- Third circle -->
  <line transform="rotate(19 0,0)" x1="-300" x2="-200" y1="0" y2="0" class="line3"/>
  <text transform="rotate(27 0,0)" class="text3"><textPath href="#circle3">ORBIT</textPath></text>
  <line transform="rotate(73 0,0)" x1="-300" x2="-200" y1="0" y2="0" class="line3"/>
  <text transform="rotate(82 0,0)" class="text3"><textPath href="#circle3">ORBITS</textPath></text>
  <line transform="rotate(136 0,0)" x1="-300" x2="-200" y1="0" y2="0" class="line3"/>
  <text transform="rotate(145 0,0)" class="text3"><textPath href="#circle3">ONSIDE</textPath></text>
  <line transform="rotate(200 0,0)" x1="-300" x2="-200" y1="0" y2="0" class="line3"/>
  <text transform="rotate(209 0,0)" class="text3"><textPath href="#circle3">MOOD</textPath></text>
  <line transform="rotate(255 0,0)" x1="-300" x2="-200" y1="0" y2="0" class="line3"/>
  <text transform="rotate(264 0,0)" class="text3"><textPath href="#circle3">FOWL</textPath></text>
  <line transform="rotate(308 0,0)" x1="-300" x2="-200" y1="0" y2="0" class="line3"/>
  <text transform="rotate(317 0,0)" class="text3"><textPath href="#circle3">OFFSIDE</textPath></text>

  <!-- Fourth circle -->
  <line transform="rotate(-8 0,0)" x1="-400" x2="-300" y1="0" y2="0" class="line4"/>
  <text transform="rotate(-3 0,0)" class="text4"><textPath href="#circle4">WAITER</textPath></text>
  <line transform="rotate(36 0,0)" x1="-400" x2="-300" y1="0" y2="0" class="line4"/>
  <text transform="rotate(41 0,0)" class="text4"><textPath href="#circle4">EDISON</textPath></text>
  <line transform="rotate(79 0,0)" x1="-400" x2="-300" y1="0" y2="0" class="line4"/>
  <text transform="rotate(84 0,0)" class="text4"><textPath href="#circle4">RAINFOREST</textPath></text>
  <line transform="rotate(146 0,0)" x1="-400" x2="-300" y1="0" y2="0" class="line4"/>
  <text transform="rotate(151 0,0)" class="text4"><textPath href="#circle4">RADIANT</textPath></text>
  <line transform="rotate(194 0,0)" x1="-400" x2="-300" y1="0" y2="0" class="line4"/>
  <text transform="rotate(199 0,0)" class="text4"><textPath href="#circle4">SATELLITE</textPath></text>
  <line transform="rotate(250 0,0)" x1="-400" x2="-300" y1="0" y2="0" class="line4"/>
  <text transform="rotate(255 0,0)" class="text4"><textPath href="#circle4">BISTRO</textPath></text>
  <line transform="rotate(293 0,0)" x1="-400" x2="-300" y1="0" y2="0" class="line4"/>
  <text transform="rotate(298 0,0)" class="text4"><textPath href="#circle4">LIGHTBULB</textPath></text>

  <!-- Fifth circle -->
  <line transform="rotate(16 0,0)" x1="-500" x2="-400" y1="0" y2="0" class="line5"/>
  <text transform="rotate(22 0,0)" class="text5"><textPath href="#circle5">BIODIVERSITY</textPath></text>
  <line transform="rotate(74 0,0)" x1="-500" x2="-400" y1="0" y2="0" class="line5"/>
  <text transform="rotate(80 0,0)" class="text5"><textPath href="#circle5">ECOSYSTEM</textPath></text>
  <line transform="rotate(128 0,0)" x1="-500" x2="-400" y1="0" y2="0" class="line5"/>
  <text transform="rotate(135 0,0)" class="text5"><textPath href="#circle5">MOON</textPath></text>
  <line transform="rotate(161 0,0)" x1="-500" x2="-400" y1="0" y2="0" class="line5"/>
  <text transform="rotate(167 0,0)" class="text5"><textPath href="#circle5">JUNGLE</textPath></text>
  <line transform="rotate(200 0,0)" x1="-500" x2="-400" y1="0" y2="0" class="line5"/>
  <text transform="rotate(206 0,0)" class="text5"><textPath href="#circle5">RADIAN</textPath></text>
  <line transform="rotate(237 0,0)" x1="-500" x2="-400" y1="0" y2="0" class="line5"/>
  <text transform="rotate(243 0,0)" class="text5"><textPath href="#circle5">JANGLE</textPath></text>
  <line transform="rotate(276 0,0)" x1="-500" x2="-400" y1="0" y2="0" class="line5"/>
  <text transform="rotate(282 0,0)" class="text5"><textPath href="#circle5">INCANDESCENT</textPath></text>
  <line transform="rotate(340 0,0)" x1="-500" x2="-400" y1="0" y2="0" class="line5"/>
  <text transform="rotate(347 0,0)" class="text5"><textPath href="#circle5">ANGLE</textPath></text>

</svg>
