<svg width="500" height="500" viewBox="-550 -550 1100 1100" xmlns="http://www.w3.org/2000/svg">
  <style>
    .text1 { fill: black; font: 50px sans-serif; }
    .text2 { fill: white; font: 50px sans-serif; }
    .line2 { stroke: white; stroke-width:5; }
    .text3 { fill: black; font: 50px sans-serif; }
    .line3 { stroke: black; stroke-width:5; }
    .text4 { fill: white; font: 50px sans-serif; }
    .line4 { stroke: white; stroke-width:5; }
    .text5 { fill: black; font: 50px sans-serif; }
    .line5 { stroke: black; stroke-width:5; }
  </style>

<circle cx="0" cy="0" r="505" fill="black" />
<circle cx="0" cy="0" r="500" fill="white" />
<circle cx="0" cy="0" r="400" fill="black" />
<circle cx="0" cy="0" r="300" fill="white" />
<circle cx="0" cy="0" r="200" fill="black" />
<circle cx="0" cy="0" r="100" fill="white" />
<line x1="-415" y1="-415" x2="-390" y2="-390" stroke="black" stroke-width="20"/>
<polygon points="-375 -415, -415 -375, -360 -360" />

<path id="circle2" fill="transparent"
    d="
    M 0 0
    m -130, 0
    a 130,130 0 1,1 260,0
    a 130,130 0 1,1 -260,0
    "
/>
<path id="circle3" fill="transparent"
    d="
    M 0 0
    m -230, 0
    a 230,230 0 1,1 460,0
    a 230,230 0 1,1 -460,0
    "
/>
<path id="circle4" fill="transparent"
    d="
    M 0 0
    m -330, 0
    a 330,330 0 1,1 660,0
    a 330,330 0 1,1 -660,0
    "
/>
<path id="circle5" fill="transparent"
    d="
    M 0 0
    m -430, 0
    a 430,430 0 1,1 860,0
    a 430,430 0 1,1 -860,0
    "
/>

  <!-- First circle -->
  <text x="0" y="0" dominant-baseline="middle" text-anchor="middle" class="text1" >STATE</text>

  <!-- Second circle -->
  <text transform="rotate(90 0,0)" class="text2" ><textPath href="#circle2">STARE</textPath></text>
  <line transform="rotate(182 0,0)" x1="-200" x2="-100" y1="0" y2="0" class="line2"/>
  <text transform="rotate(195 0,0)" class="text2" ><textPath href="#circle2">RIGHT</textPath></text>
  <line transform="rotate(-77 0,0)" x1="-200" x2="-100" y1="0" y2="0" class="line2"/>
  <text transform="rotate(-60 0,0)" class="text2" ><textPath href="#circle2">UNCLEAR</textPath></text>
  <line transform="rotate(72 0,0)" x1="-200" x2="-100" y1="0" y2="0" class="line2"/>

  <!-- Third circle -->
  <text transform="rotate(10 0,0)" class="text3" ><textPath href="#circle3">SPARE</textPath></text>
  <line transform="rotate(65 0,0)" x1="-300" x2="-200" y1="0" y2="0" class="line3"/>
  <text transform="rotate(75 0,0)" class="text3" ><textPath href="#circle3">VALUE</textPath></text>
  <line transform="rotate(128 0,0)" x1="-300" x2="-200" y1="0" y2="0" class="line3"/>
  <text transform="rotate(138 0,0)" class="text3" ><textPath href="#circle3">POLARS</textPath></text>
  <line transform="rotate(203 0,0)" x1="-300" x2="-200" y1="0" y2="0" class="line3"/>
  <text transform="rotate(213 0,0)" class="text3" ><textPath href="#circle3">STATEN</textPath></text>
  <line transform="rotate(-85 0,0)" x1="-300" x2="-200" y1="0" y2="0" class="line3"/>
  <text transform="rotate(-75 0,0)" class="text3" ><textPath href="#circle3">VITAMIN A</textPath></text>
  <line transform="rotate(0 0,0)" x1="-300" x2="-200" y1="0" y2="0" class="line3"/>

  <!-- Fourth circle -->
  <text transform="rotate(10 0,0)" class="text4" ><textPath href="#circle4">ANGLE</textPath></text>
  <line transform="rotate(44 0,0)" x1="-400" x2="-300" y1="0" y2="0" class="line4"/>
  <text transform="rotate(48 0,0)" class="text4" ><textPath href="#circle4">STAR</textPath></text>
  <line transform="rotate(74 0,0)" x1="-400" x2="-300" y1="0" y2="0" class="line4"/>
  <text transform="rotate(78 0,0)" class="text4" ><textPath href="#circle4">JOIN</textPath></text>
  <line transform="rotate(102 0,0)" x1="-400" x2="-300" y1="0" y2="0" class="line4"/>
  <text transform="rotate(105 0,0)" class="text4" ><textPath href="#circle4">CORE</textPath></text>
  <line transform="rotate(136 0,0)" x1="-400" x2="-300" y1="0" y2="0" class="line4"/>
  <text transform="rotate(140 0,0)" class="text4" ><textPath href="#circle4">STATION</textPath></text>
  <line transform="rotate(182 0,0)" x1="-400" x2="-300" y1="0" y2="0" class="line4"/>
  <text transform="rotate(186 0,0)" class="text4" ><textPath href="#circle4">POLAR</textPath></text>
  <line transform="rotate(222 0,0)" x1="-400" x2="-300" y1="0" y2="0" class="line4"/>
  <text transform="rotate(227 0,0)" class="text4" ><textPath href="#circle4">VAGUE</textPath></text>
  <line transform="rotate(261 0,0)" x1="-400" x2="-300" y1="0" y2="0" class="line4"/>
  <text transform="rotate(264 0,0)" class="text4" ><textPath href="#circle4">CORN</textPath></text>
  <line transform="rotate(-67 0,0)" x1="-400" x2="-300" y1="0" y2="0" class="line4"/>
  <text transform="rotate(-63 0,0)" class="text4" ><textPath href="#circle4">COORDINATES</textPath></text>
  <line transform="rotate(6 0,0)" x1="-400" x2="-300" y1="0" y2="0" class="line4"/>

  <!-- Fifth circle -->
  <text transform="rotate(-33 0,0)" class="text5" ><textPath href="#circle5">ANKLE</textPath></text>
  <line transform="rotate(-6 0,0)" x1="-500" x2="-400" y1="0" y2="0" class="line5"/>
  <text transform="rotate(-1 0,0)" class="text5" ><textPath href="#circle5">STATIN</textPath></text>
  <line transform="rotate(26 0,0)" x1="-500" x2="-400" y1="0" y2="0" class="line5"/>
  <text transform="rotate(30 0,0)" class="text5" ><textPath href="#circle5">VARIABLE</textPath></text>
  <line transform="rotate(66 0,0)" x1="-500" x2="-400" y1="0" y2="0" class="line5"/>
  <text transform="rotate(71 0,0)" class="text5" ><textPath href="#circle5">SIGHT</textPath></text>
  <line transform="rotate(97 0,0)" x1="-500" x2="-400" y1="0" y2="0" class="line5"/>
  <text transform="rotate(102 0,0)" class="text5" ><textPath href="#circle5">NUCLEAR</textPath></text>
  <line transform="rotate(138 0,0)" x1="-500" x2="-400" y1="0" y2="0" class="line5"/>
  <text transform="rotate(143 0,0)" class="text5" ><textPath href="#circle5">SPACE</textPath></text>
  <line transform="rotate(172 0,0)" x1="-500" x2="-400" y1="0" y2="0" class="line5"/>
  <text transform="rotate(177 0,0)" class="text5" ><textPath href="#circle5">JOINT</textPath></text>
  <line transform="rotate(202 0,0)" x1="-500" x2="-400" y1="0" y2="0" class="line5"/>
  <text transform="rotate(207 0,0)" class="text5" ><textPath href="#circle5">POLARIS</textPath></text>
  <line transform="rotate(240 0,0)" x1="-500" x2="-400" y1="0" y2="0" class="line5"/>
  <text transform="rotate(245 0,0)" class="text5" ><textPath href="#circle5">COIN</textPath></text>
  <line transform="rotate(266 0,0)" x1="-500" x2="-400" y1="0" y2="0" class="line5"/>
  <text transform="rotate(270 0,0)" class="text5" ><textPath href="#circle5">CAROTENOIDS</textPath></text>
  <line transform="rotate(-38 0,0)" x1="-500" x2="-400" y1="0" y2="0" class="line5"/>

</svg>
