  <svg width="500" height="500" viewBox="-550 -550 1100 1100" xmlns="http://www.w3.org/2000/svg">
  <style>
    .text1 { fill: black; font: 50px sans-serif; }
    .text2 { fill: white; font: 50px sans-serif; }
    .line2 { stroke: white; stroke-width:5; }
    .text3 { fill: black; font: 50px sans-serif; }
    .line3 { stroke: black; stroke-width:5; }
    .text4 { fill: white; font: 50px sans-serif; }
    .line4 { stroke: white; stroke-width:5; }
    .text5 { fill: black; font: 50px sans-serif; }
    .line5 { stroke: black; stroke-width:5; }
  </style>

  <circle cx="0" cy="0" r="505" fill="black" />
  <circle cx="0" cy="0" r="500" fill="white" />
  <circle cx="0" cy="0" r="400" fill="black" />
  <circle cx="0" cy="0" r="300" fill="white" />
  <circle cx="0" cy="0" r="200" fill="black" />
  <circle cx="0" cy="0" r="100" fill="white" />
  <line x1="-415" y1="-415" x2="-390" y2="-390" stroke="black" stroke-width="20"/>
  <polygon points="-375 -415, -415 -375, -360 -360" />

  <path id="circle2" fill="transparent"
      d="
      M 0 0
      m -130, 0
      a 130,130 0 1,1 260,0
      a 130,130 0 1,1 -260,0
      "
  />
  <path id="circle3" fill="transparent"
      d="
      M 0 0
      m -230, 0
      a 230,230 0 1,1 460,0
      a 230,230 0 1,1 -460,0
      "
  />
  <path id="circle4" fill="transparent"
      d="
      M 0 0
      m -330, 0
      a 330,330 0 1,1 660,0
      a 330,330 0 1,1 -660,0
      "
  />
  <path id="circle5" fill="transparent"
      d="
      M 0 0
      m -430, 0
      a 430,430 0 1,1 860,0
      a 430,430 0 1,1 -860,0
      "
  />

  <!-- First circle -->
  <text x="0" y="0" dominant-baseline="middle" text-anchor="middle" class="text1">BEER</text>

  <!-- Second circle -->
  <line transform="rotate(-19 0,0)" x1="-200" x2="-100" y1="0" y2="0" class="line2"/>
  <text transform="rotate(-6 0,0)" class="text2"><textPath href="#circle2">ANION</textPath></text>
  <line transform="rotate(78 0,0)" x1="-200" x2="-100" y1="0" y2="0" class="line2"/>
  <text transform="rotate(91 0,0)" class="text2"><textPath href="#circle2">NERVE</textPath></text>
  <line transform="rotate(181 0,0)" x1="-200" x2="-100" y1="0" y2="0" class="line2"/>
  <text transform="rotate(194 0,0)" class="text2"><textPath href="#circle2">CHEMISTRY</textPath></text>

  <!-- Third circle -->
  <line transform="rotate(7 0,0)" x1="-300" x2="-200" y1="0" y2="0" class="line3"/>
  <text transform="rotate(16 0,0)" class="text3"><textPath href="#circle3">CREATION</textPath></text>
  <line transform="rotate(89 0,0)" x1="-300" x2="-200" y1="0" y2="0" class="line3"/>
  <text transform="rotate(98 0,0)" class="text3"><textPath href="#circle3">REACTION</textPath></text>
  <line transform="rotate(171 0,0)" x1="-300" x2="-200" y1="0" y2="0" class="line3"/>
  <text transform="rotate(180 0,0)" class="text3"><textPath href="#circle3">TRIFLING</textPath></text>
  <line transform="rotate(245 0,0)" x1="-300" x2="-200" y1="0" y2="0" class="line3"/>
  <text transform="rotate(255 0,0)" class="text3"><textPath href="#circle3">AXON</textPath></text>
  <line transform="rotate(299 0,0)" x1="-300" x2="-200" y1="0" y2="0" class="line3"/>
  <text transform="rotate(308 0,0)" class="text3"><textPath href="#circle3">GRIFFIN</textPath></text>

  <!-- Fourth circle -->
  <line transform="rotate(51 0,0)" x1="-400" x2="-300" y1="0" y2="0" class="line4"/>
  <text transform="rotate(57 0,0)" class="text4"><textPath href="#circle4">NEVER</textPath></text>
  <line transform="rotate(94 0,0)" x1="-400" x2="-300" y1="0" y2="0" class="line4"/>
  <text transform="rotate(101 0,0)" class="text4"><textPath href="#circle4">MANTICORE</textPath></text>
  <line transform="rotate(161 0,0)" x1="-400" x2="-300" y1="0" y2="0" class="line4"/>
  <text transform="rotate(168 0,0)" class="text4"><textPath href="#circle4">CREW</textPath></text>
  <line transform="rotate(201 0,0)" x1="-400" x2="-300" y1="0" y2="0" class="line4"/>
  <text transform="rotate(208 0,0)" class="text4"><textPath href="#circle4">ARCHIMEDES</textPath></text>
  <line transform="rotate(273 0,0)" x1="-400" x2="-300" y1="0" y2="0" class="line4"/>
  <text transform="rotate(280 0,0)" class="text4"><textPath href="#circle4">LEVER</textPath></text>
  <line transform="rotate(316 0,0)" x1="-400" x2="-300" y1="0" y2="0" class="line4"/>
  <text transform="rotate(322 0,0)" class="text4"><textPath href="#circle4">NATION</textPath></text>
  <line transform="rotate(2 0,0)" x1="-400" x2="-300" y1="0" y2="0" class="line4"/>
  <text transform="rotate(9 0,0)" class="text4"><textPath href="#circle4">RIFLING</textPath></text>

  <!-- Fifth circle -->
  <line transform="rotate(26 0,0)" x1="-500" x2="-400" y1="0" y2="0" class="line5"/>
  <text transform="rotate(29 0,0)" class="text5"><textPath href="#circle5">FLIRTING</textPath></text>
  <line transform="rotate(64 0,0)" x1="-500" x2="-400" y1="0" y2="0" class="line5"/>
  <text transform="rotate(68 0,0)" class="text5"><textPath href="#circle5">ANTOINE</textPath></text>
  <line transform="rotate(101 0,0)" x1="-500" x2="-400" y1="0" y2="0" class="line5"/>
  <text transform="rotate(105 0,0)" class="text5"><textPath href="#circle5">CREMATION</textPath></text>
  <line transform="rotate(149 0,0)" x1="-500" x2="-400" y1="0" y2="0" class="line5"/>
  <text transform="rotate(153 0,0)" class="text5"><textPath href="#circle5">ENATION</textPath></text>
  <line transform="rotate(186 0,0)" x1="-500" x2="-400" y1="0" y2="0" class="line5"/>
  <text transform="rotate(190 0,0)" class="text5"><textPath href="#circle5">LAVOISIER</textPath></text>
  <line transform="rotate(229 0,0)" x1="-500" x2="-400" y1="0" y2="0" class="line5"/>
  <text transform="rotate(233 0,0)" class="text5"><textPath href="#circle5">SCREW</textPath></text>
  <line transform="rotate(262 0,0)" x1="-500" x2="-400" y1="0" y2="0" class="line5"/>
  <text transform="rotate(266 0,0)" class="text5"><textPath href="#circle5">CATION</textPath></text>
  <line transform="rotate(295 0,0)" x1="-500" x2="-400" y1="0" y2="0" class="line5"/>
  <text transform="rotate(299 0,0)" class="text5"><textPath href="#circle5">BREW</textPath></text>
  <line transform="rotate(323 0,0)" x1="-500" x2="-400" y1="0" y2="0" class="line5"/>
  <text transform="rotate(326 0,0)" class="text5"><textPath href="#circle5">RIFFING</textPath></text>
  <line transform="rotate(357 0,0)" x1="-500" x2="-400" y1="0" y2="0" class="line5"/>
  <text transform="rotate(1 0,0)" class="text5"><textPath href="#circle5">AXION</textPath></text>

</svg>
