  <svg width="500" height="500" viewBox="-550 -550 1100 1100" xmlns="http://www.w3.org/2000/svg">
  <style>
    .text1 { fill: black; font: 50px sans-serif; }
    .text2 { fill: white; font: 50px sans-serif; }
    .line2 { stroke: white; stroke-width:5; }
    .text3 { fill: black; font: 50px sans-serif; }
    .line3 { stroke: black; stroke-width:5; }
    .text4 { fill: white; font: 50px sans-serif; }
    .line4 { stroke: white; stroke-width:5; }
    .text5 { fill: black; font: 50px sans-serif; }
    .line5 { stroke: black; stroke-width:5; }
  </style>

  <circle cx="0" cy="0" r="505" fill="black" />
  <circle cx="0" cy="0" r="500" fill="white" />
  <circle cx="0" cy="0" r="400" fill="black" />
  <circle cx="0" cy="0" r="300" fill="white" />
  <circle cx="0" cy="0" r="200" fill="black" />
  <circle cx="0" cy="0" r="100" fill="white" />
  <line x1="-415" y1="-415" x2="-390" y2="-390" stroke="black" stroke-width="20"/>
  <polygon points="-375 -415, -415 -375, -360 -360" />

  <path id="circle2" fill="transparent"
      d="
      M 0 0
      m -130, 0
      a 130,130 0 1,1 260,0
      a 130,130 0 1,1 -260,0
      "
  />
  <path id="circle3" fill="transparent"
      d="
      M 0 0
      m -230, 0
      a 230,230 0 1,1 460,0
      a 230,230 0 1,1 -460,0
      "
  />
  <path id="circle4" fill="transparent"
      d="
      M 0 0
      m -330, 0
      a 330,330 0 1,1 660,0
      a 330,330 0 1,1 -660,0
      "
  />
  <path id="circle5" fill="transparent"
      d="
      M 0 0
      m -430, 0
      a 430,430 0 1,1 860,0
      a 430,430 0 1,1 -860,0
      "
  />

  <!-- First circle -->
  <text x="0" y="0" dominant-baseline="middle" text-anchor="middle" class="text1">MARS</text>

  <!-- Second circle -->
  <line transform="rotate(-21 0,0)" x1="-200" x2="-100" y1="0" y2="0" class="line2"/>
  <text transform="rotate(-10 0,0)" class="text2"><textPath href="#circle2">ENIGMA</textPath></text>
  <line transform="rotate(89 0,0)" x1="-200" x2="-100" y1="0" y2="0" class="line2"/>
  <text transform="rotate(101 0,0)" class="text2"><textPath href="#circle2">REAGINS</textPath></text>
  <line transform="rotate(213 0,0)" x1="-200" x2="-100" y1="0" y2="0" class="line2"/>
  <text transform="rotate(224 0,0)" class="text2"><textPath href="#circle2">SEAMING</textPath></text>

  <!-- Third circle -->
  <line transform="rotate(6 0,0)" x1="-300" x2="-200" y1="0" y2="0" class="line3"/>
  <text transform="rotate(13 0,0)" class="text3"><textPath href="#circle3">CURIE</textPath></text>
  <line transform="rotate(59 0,0)" x1="-300" x2="-200" y1="0" y2="0" class="line3"/>
  <text transform="rotate(66 0,0)" class="text3"><textPath href="#circle3">DEVOTION</textPath></text>
  <line transform="rotate(137 0,0)" x1="-300" x2="-200" y1="0" y2="0" class="line3"/>
  <text transform="rotate(145 0,0)" class="text3"><textPath href="#circle3">CURE</textPath></text>
  <line transform="rotate(187 0,0)" x1="-300" x2="-200" y1="0" y2="0" class="line3"/>
  <text transform="rotate(195 0,0)" class="text3"><textPath href="#circle3">REGAIN</textPath></text>
  <line transform="rotate(249 0,0)" x1="-300" x2="-200" y1="0" y2="0" class="line3"/>
  <text transform="rotate(256 0,0)" class="text3"><textPath href="#circle3">MARINE</textPath></text>
  <line transform="rotate(312 0,0)" x1="-300" x2="-200" y1="0" y2="0" class="line3"/>
  <text transform="rotate(319 0,0)" class="text3"><textPath href="#circle3">MARIE</textPath></text>

  <!-- Fourth circle -->
  <line transform="rotate(31 0,0)" x1="-400" x2="-300" y1="0" y2="0" class="line4"/>
  <text transform="rotate(36 0,0)" class="text4"><textPath href="#circle4">SEARING</textPath></text>
  <line transform="rotate(80 0,0)" x1="-400" x2="-300" y1="0" y2="0" class="line4"/>
  <text transform="rotate(86 0,0)" class="text4"><textPath href="#circle4">EMOTION</textPath></text>
  <line transform="rotate(132 0,0)" x1="-400" x2="-300" y1="0" y2="0" class="line4"/>
  <text transform="rotate(137 0,0)" class="text4"><textPath href="#circle4">REAGIN</textPath></text>
  <line transform="rotate(176 0,0)" x1="-400" x2="-300" y1="0" y2="0" class="line4"/>
  <text transform="rotate(181 0,0)" class="text4"><textPath href="#circle4">REMAIN</textPath></text>
  <line transform="rotate(221 0,0)" x1="-400" x2="-300" y1="0" y2="0" class="line4"/>
  <text transform="rotate(226 0,0)" class="text4"><textPath href="#circle4">PLANT</textPath></text>
  <line transform="rotate(260 0,0)" x1="-400" x2="-300" y1="0" y2="0" class="line4"/>
  <text transform="rotate(265 0,0)" class="text4"><textPath href="#circle4">TURING</textPath></text>
  <line transform="rotate(304 0,0)" x1="-400" x2="-300" y1="0" y2="0" class="line4"/>
  <text transform="rotate(309 0,0)" class="text4"><textPath href="#circle4">PLAN</textPath></text>
  <line transform="rotate(337 0,0)" x1="-400" x2="-300" y1="0" y2="0" class="line4"/>
  <text transform="rotate(343 0,0)" class="text4"><textPath href="#circle4">FLEETING</textPath></text>

  <!-- Fifth circle -->
  <line transform="rotate(26 0,0)" x1="-500" x2="-400" y1="0" y2="0" class="line5"/>
  <text transform="rotate(30 0,0)" class="text5"><textPath href="#circle5">MOMENT</textPath></text>
  <line transform="rotate(64 0,0)" x1="-500" x2="-400" y1="0" y2="0" class="line5"/>
  <text transform="rotate(68 0,0)" class="text5"><textPath href="#circle5">DEMOTION</textPath></text>
  <line transform="rotate(109 0,0)" x1="-500" x2="-400" y1="0" y2="0" class="line5"/>
  <text transform="rotate(113 0,0)" class="text5"><textPath href="#circle5">ENIGMAS</textPath></text>
  <line transform="rotate(148 0,0)" x1="-500" x2="-400" y1="0" y2="0" class="line5"/>
  <text transform="rotate(153 0,0)" class="text5"><textPath href="#circle5">DEDICATION</textPath></text>
  <line transform="rotate(198 0,0)" x1="-500" x2="-400" y1="0" y2="0" class="line5"/>
  <text transform="rotate(203 0,0)" class="text5"><textPath href="#circle5">MEDICATION</textPath></text>
  <line transform="rotate(249 0,0)" x1="-500" x2="-400" y1="0" y2="0" class="line5"/>
  <text transform="rotate(253 0,0)" class="text5"><textPath href="#circle5">FLEEING</textPath></text>
  <line transform="rotate(286 0,0)" x1="-500" x2="-400" y1="0" y2="0" class="line5"/>
  <text transform="rotate(291 0,0)" class="text5"><textPath href="#circle5">PLANET</textPath></text>
  <line transform="rotate(321 0,0)" x1="-500" x2="-400" y1="0" y2="0" class="line5"/>
  <text transform="rotate(326 0,0)" class="text5"><textPath href="#circle5">ALAN</textPath></text>
  <line transform="rotate(348 0,0)" x1="-500" x2="-400" y1="0" y2="0" class="line5"/>
  <text transform="rotate(352 0,0)" class="text5"><textPath href="#circle5">FEELING</textPath></text>

</svg>
