  <svg width="500" height="500" viewBox="-550 -550 1100 1100" xmlns="http://www.w3.org/2000/svg">
  <style>
    .text1 { fill: black; font: 50px sans-serif; }
    .text2 { fill: white; font: 50px sans-serif; }
    .line2 { stroke: white; stroke-width:5; }
    .text3 { fill: black; font: 50px sans-serif; }
    .line3 { stroke: black; stroke-width:5; }
    .text4 { fill: white; font: 50px sans-serif; }
    .line4 { stroke: white; stroke-width:5; }
    .text5 { fill: black; font: 50px sans-serif; }
    .line5 { stroke: black; stroke-width:5; }
  </style>

  <circle cx="0" cy="0" r="505" fill="black" />
  <circle cx="0" cy="0" r="500" fill="white" />
  <circle cx="0" cy="0" r="400" fill="black" />
  <circle cx="0" cy="0" r="300" fill="white" />
  <circle cx="0" cy="0" r="200" fill="black" />
  <circle cx="0" cy="0" r="100" fill="white" />
  <line x1="-415" y1="-415" x2="-390" y2="-390" stroke="black" stroke-width="20"/>
  <polygon points="-375 -415, -415 -375, -360 -360" />

  <path id="circle2" fill="transparent"
      d="
      M 0 0
      m -130, 0
      a 130,130 0 1,1 260,0
      a 130,130 0 1,1 -260,0
      "
  />
  <path id="circle3" fill="transparent"
      d="
      M 0 0
      m -230, 0
      a 230,230 0 1,1 460,0
      a 230,230 0 1,1 -460,0
      "
  />
  <path id="circle4" fill="transparent"
      d="
      M 0 0
      m -330, 0
      a 330,330 0 1,1 660,0
      a 330,330 0 1,1 -660,0
      "
  />
  <path id="circle5" fill="transparent"
      d="
      M 0 0
      m -430, 0
      a 430,430 0 1,1 860,0
      a 430,430 0 1,1 -860,0
      "
  />

  <!-- First circle -->
  <text x="0" y="0" dominant-baseline="middle" text-anchor="middle" class="text1">WIND</text>

  <!-- Second circle -->
  <line transform="rotate(-24 0,0)" x1="-200" x2="-100" y1="0" y2="0" class="line2"/>
  <text transform="rotate(0 0,0)" class="text2"><textPath href="#circle2">THIN</textPath></text>
  <line transform="rotate(76 0,0)" x1="-200" x2="-100" y1="0" y2="0" class="line2"/>
  <text transform="rotate(100 0,0)" class="text2"><textPath href="#circle2">JUST</textPath></text>
  <line transform="rotate(181 0,0)" x1="-200" x2="-100" y1="0" y2="0" class="line2"/>
  <text transform="rotate(205 0,0)" class="text2"><textPath href="#circle2">PRESENT</textPath></text>

  <!-- Third circle -->
  <line transform="rotate(-29 0,0)" x1="-300" x2="-200" y1="0" y2="0" class="line3"/>
  <text transform="rotate(-19 0,0)" class="text3"><textPath href="#circle3">THAT</textPath></text>
  <line transform="rotate(24 0,0)" x1="-300" x2="-200" y1="0" y2="0" class="line3"/>
  <text transform="rotate(34 0,0)" class="text3"><textPath href="#circle3">INTRODUCE</textPath></text>
  <line transform="rotate(118 0,0)" x1="-300" x2="-200" y1="0" y2="0" class="line3"/>
  <text transform="rotate(128 0,0)" class="text3"><textPath href="#circle3">OXIDATION</textPath></text>
  <line transform="rotate(206 0,0)" x1="-300" x2="-200" y1="0" y2="0" class="line3"/>
  <text transform="rotate(217 0,0)" class="text3"><textPath href="#circle3">WEST</textPath></text>
  <line transform="rotate(263 0,0)" x1="-300" x2="-200" y1="0" y2="0" class="line3"/>
  <text transform="rotate(274 0,0)" class="text3"><textPath href="#circle3">KNIGHT</textPath></text>

  <!-- Fourth circle -->
  <line transform="rotate(39 0,0)" x1="-400" x2="-300" y1="0" y2="0" class="line4"/>
  <text transform="rotate(46 0,0)" class="text4"><textPath href="#circle4">REDUCTION</textPath></text>
  <line transform="rotate(105 0,0)" x1="-400" x2="-300" y1="0" y2="0" class="line4"/>
  <text transform="rotate(112 0,0)" class="text4"><textPath href="#circle4">ENGINE</textPath></text>
  <line transform="rotate(153 0,0)" x1="-400" x2="-300" y1="0" y2="0" class="line4"/>
  <text transform="rotate(161 0,0)" class="text4"><textPath href="#circle4">RUST</textPath></text>
  <line transform="rotate(192 0,0)" x1="-400" x2="-300" y1="0" y2="0" class="line4"/>
  <text transform="rotate(199 0,0)" class="text4"><textPath href="#circle4">BREEZE</textPath></text>
  <line transform="rotate(241 0,0)" x1="-400" x2="-300" y1="0" y2="0" class="line4"/>
  <text transform="rotate(249 0,0)" class="text4"><textPath href="#circle4">PAST</textPath></text>
  <line transform="rotate(279 0,0)" x1="-400" x2="-300" y1="0" y2="0" class="line4"/>
  <text transform="rotate(286 0,0)" class="text4"><textPath href="#circle4">CAR</textPath></text>
  <line transform="rotate(312 0,0)" x1="-400" x2="-300" y1="0" y2="0" class="line4"/>
  <text transform="rotate(319 0,0)" class="text4"><textPath href="#circle4">THING</textPath></text>
  <line transform="rotate(354 0,0)" x1="-400" x2="-300" y1="0" y2="0" class="line4"/>
  <text transform="rotate(1 0,0)" class="text4"><textPath href="#circle4">STEAM</textPath></text>

  <!-- Fifth circle -->
  <line transform="rotate(9 0,0)" x1="-500" x2="-400" y1="0" y2="0" class="line5"/>
  <text transform="rotate(14 0,0)" class="text5"><textPath href="#circle5">TRANSPORTATION</textPath></text>
  <line transform="rotate(81 0,0)" x1="-500" x2="-400" y1="0" y2="0" class="line5"/>
  <text transform="rotate(87 0,0)" class="text5"><textPath href="#circle5">THAW</textPath></text>
  <line transform="rotate(112 0,0)" x1="-500" x2="-400" y1="0" y2="0" class="line5"/>
  <text transform="rotate(117 0,0)" class="text5"><textPath href="#circle5">EAST</textPath></text>
  <line transform="rotate(140 0,0)" x1="-500" x2="-400" y1="0" y2="0" class="line5"/>
  <text transform="rotate(146 0,0)" class="text5"><textPath href="#circle5">FREEZE</textPath></text>
  <line transform="rotate(178 0,0)" x1="-500" x2="-400" y1="0" y2="0" class="line5"/>
  <text transform="rotate(183 0,0)" class="text5"><textPath href="#circle5">STEW</textPath></text>
  <line transform="rotate(208 0,0)" x1="-500" x2="-400" y1="0" y2="0" class="line5"/>
  <text transform="rotate(214 0,0)" class="text5"><textPath href="#circle5">VEHICLE</textPath></text>
  <line transform="rotate(248 0,0)" x1="-500" x2="-400" y1="0" y2="0" class="line5"/>
  <text transform="rotate(253 0,0)" class="text5"><textPath href="#circle5">THIS</textPath></text>
  <line transform="rotate(274 0,0)" x1="-500" x2="-400" y1="0" y2="0" class="line5"/>
  <text transform="rotate(280 0,0)" class="text5"><textPath href="#circle5">NIGHT</textPath></text>
  <line transform="rotate(306 0,0)" x1="-500" x2="-400" y1="0" y2="0" class="line5"/>
  <text transform="rotate(312 0,0)" class="text5"><textPath href="#circle5">JOUST</textPath></text>
  <line transform="rotate(339 0,0)" x1="-500" x2="-400" y1="0" y2="0" class="line5"/>
  <text transform="rotate(344 0,0)" class="text5"><textPath href="#circle5">STEM</textPath></text>

</svg>
