  <svg width="500" height="500" viewBox="-550 -550 1100 1100" xmlns="http://www.w3.org/2000/svg">
  <style>
    .text1 { fill: black; font: 50px sans-serif; }
    .text2 { fill: white; font: 50px sans-serif; }
    .line2 { stroke: white; stroke-width:5; }
    .text3 { fill: black; font: 50px sans-serif; }
    .line3 { stroke: black; stroke-width:5; }
    .text4 { fill: white; font: 50px sans-serif; }
    .line4 { stroke: white; stroke-width:5; }
    .text5 { fill: black; font: 50px sans-serif; }
    .line5 { stroke: black; stroke-width:5; }
  </style>

  <circle cx="0" cy="0" r="505" fill="black" />
  <circle cx="0" cy="0" r="500" fill="white" />
  <circle cx="0" cy="0" r="400" fill="black" />
  <circle cx="0" cy="0" r="300" fill="white" />
  <circle cx="0" cy="0" r="200" fill="black" />
  <circle cx="0" cy="0" r="100" fill="white" />
  <line x1="-415" y1="-415" x2="-390" y2="-390" stroke="black" stroke-width="20"/>
  <polygon points="-375 -415, -415 -375, -360 -360" />

  <path id="circle2" fill="transparent"
      d="
      M 0 0
      m -130, 0
      a 130,130 0 1,1 260,0
      a 130,130 0 1,1 -260,0
      "
  />
  <path id="circle3" fill="transparent"
      d="
      M 0 0
      m -230, 0
      a 230,230 0 1,1 460,0
      a 230,230 0 1,1 -460,0
      "
  />
  <path id="circle4" fill="transparent"
      d="
      M 0 0
      m -330, 0
      a 330,330 0 1,1 660,0
      a 330,330 0 1,1 -660,0
      "
  />
  <path id="circle5" fill="transparent"
      d="
      M 0 0
      m -430, 0
      a 430,430 0 1,1 860,0
      a 430,430 0 1,1 -860,0
      "
  />

  <!-- First circle -->
  <text x="0" y="0" dominant-baseline="middle" text-anchor="middle" class="text1">PIG</text>

  <!-- Second circle -->
  <line transform="rotate(19 0,0)" x1="-200" x2="-100" y1="0" y2="0" class="line2"/>
  <text transform="rotate(32 0,0)" class="text2"><textPath href="#circle2">CONIFER</textPath></text>
  <line transform="rotate(148 0,0)" x1="-200" x2="-100" y1="0" y2="0" class="line2"/>
  <text transform="rotate(162 0,0)" class="text2"><textPath href="#circle2">QUEUE</textPath></text>
  <line transform="rotate(255 0,0)" x1="-200" x2="-100" y1="0" y2="0" class="line2"/>
  <text transform="rotate(269 0,0)" class="text2"><textPath href="#circle2">CORNET</textPath></text>

  <!-- Third circle -->
  <line transform="rotate(-10 0,0)" x1="-300" x2="-200" y1="0" y2="0" class="line3"/>
  <text transform="rotate(-4 0,0)" class="text3"><textPath href="#circle3">POTION</textPath></text>
  <line transform="rotate(50 0,0)" x1="-300" x2="-200" y1="0" y2="0" class="line3"/>
  <text transform="rotate(57 0,0)" class="text3"><textPath href="#circle3">RIBBIT</textPath></text>
  <line transform="rotate(103 0,0)" x1="-300" x2="-200" y1="0" y2="0" class="line3"/>
  <text transform="rotate(110 0,0)" class="text3"><textPath href="#circle3">THERE</textPath></text>
  <line transform="rotate(158 0,0)" x1="-300" x2="-200" y1="0" y2="0" class="line3"/>
  <text transform="rotate(164 0,0)" class="text3"><textPath href="#circle3">THRONE</textPath></text>
  <line transform="rotate(223 0,0)" x1="-300" x2="-200" y1="0" y2="0" class="line3"/>
  <text transform="rotate(229 0,0)" class="text3"><textPath href="#circle3">PORTION</textPath></text>
  <line transform="rotate(292 0,0)" x1="-300" x2="-200" y1="0" y2="0" class="line3"/>
  <text transform="rotate(299 0,0)" class="text3"><textPath href="#circle3">RABBIT</textPath></text>

  <!-- Fourth circle -->
  <line transform="rotate(30 0,0)" x1="-400" x2="-300" y1="0" y2="0" class="line4"/>
  <text transform="rotate(36 0,0)" class="text4"><textPath href="#circle4">QUEUER</textPath></text>
  <line transform="rotate(79 0,0)" x1="-400" x2="-300" y1="0" y2="0" class="line4"/>
  <text transform="rotate(85 0,0)" class="text4"><textPath href="#circle4">HORNET</textPath></text>
  <line transform="rotate(128 0,0)" x1="-400" x2="-300" y1="0" y2="0" class="line4"/>
  <text transform="rotate(134 0,0)" class="text4"><textPath href="#circle4">TREE</textPath></text>
  <line transform="rotate(163 0,0)" x1="-400" x2="-300" y1="0" y2="0" class="line4"/>
  <text transform="rotate(169 0,0)" class="text4"><textPath href="#circle4">SEGMENT</textPath></text>
  <line transform="rotate(218 0,0)" x1="-400" x2="-300" y1="0" y2="0" class="line4"/>
  <text transform="rotate(224 0,0)" class="text4"><textPath href="#circle4">HARE</textPath></text>
  <line transform="rotate(255 0,0)" x1="-400" x2="-300" y1="0" y2="0" class="line4"/>
  <text transform="rotate(261 0,0)" class="text4"><textPath href="#circle4">QUEEN</textPath></text>
  <line transform="rotate(298 0,0)" x1="-400" x2="-300" y1="0" y2="0" class="line4"/>
  <text transform="rotate(304 0,0)" class="text4"><textPath href="#circle4">THREE</textPath></text>
  <line transform="rotate(340 0,0)" x1="-400" x2="-300" y1="0" y2="0" class="line4"/>
  <text transform="rotate(346 0,0)" class="text4"><textPath href="#circle4">CORNER</textPath></text>

  <!-- Fifth circle -->
  <line transform="rotate(16 0,0)" x1="-500" x2="-400" y1="0" y2="0" class="line5"/>
  <text transform="rotate(22 0,0)" class="text5"><textPath href="#circle5">ALTERNATIVE</textPath></text>
  <line transform="rotate(74 0,0)" x1="-500" x2="-400" y1="0" y2="0" class="line5"/>
  <text transform="rotate(81 0,0)" class="text5"><textPath href="#circle5">FIG</textPath></text>
  <line transform="rotate(98 0,0)" x1="-500" x2="-400" y1="0" y2="0" class="line5"/>
  <text transform="rotate(105 0,0)" class="text5"><textPath href="#circle5">CONNER</textPath></text>
  <line transform="rotate(140 0,0)" x1="-500" x2="-400" y1="0" y2="0" class="line5"/>
  <text transform="rotate(147 0,0)" class="text5"><textPath href="#circle5">QUEER</textPath></text>
  <line transform="rotate(177 0,0)" x1="-500" x2="-400" y1="0" y2="0" class="line5"/>
  <text transform="rotate(183 0,0)" class="text5"><textPath href="#circle5">HERE</textPath></text>
  <line transform="rotate(208 0,0)" x1="-500" x2="-400" y1="0" y2="0" class="line5"/>
  <text transform="rotate(215 0,0)" class="text5"><textPath href="#circle5">LINE</textPath></text>
  <line transform="rotate(236 0,0)" x1="-500" x2="-400" y1="0" y2="0" class="line5"/>
  <text transform="rotate(243 0,0)" class="text5"><textPath href="#circle5">FROG</textPath></text>
  <line transform="rotate(268 0,0)" x1="-500" x2="-400" y1="0" y2="0" class="line5"/>
  <text transform="rotate(275 0,0)" class="text5"><textPath href="#circle5">OPTION</textPath></text>
  <line transform="rotate(307 0,0)" x1="-500" x2="-400" y1="0" y2="0" class="line5"/>
  <text transform="rotate(313 0,0)" class="text5"><textPath href="#circle5">FOG</textPath></text>
  <line transform="rotate(334 0,0)" x1="-500" x2="-400" y1="0" y2="0" class="line5"/>
  <text transform="rotate(341 0,0)" class="text5"><textPath href="#circle5">CONFER</textPath></text>

</svg>
