  <svg width="500" height="500" viewBox="-550 -550 1100 1100" xmlns="http://www.w3.org/2000/svg">
  <style>
    .text1 { fill: black; font: 50px sans-serif; }
    .text2 { fill: white; font: 50px sans-serif; }
    .line2 { stroke: white; stroke-width:5; }
    .text3 { fill: black; font: 50px sans-serif; }
    .line3 { stroke: black; stroke-width:5; }
    .text4 { fill: white; font: 50px sans-serif; }
    .line4 { stroke: white; stroke-width:5; }
    .text5 { fill: black; font: 50px sans-serif; }
    .line5 { stroke: black; stroke-width:5; }
  </style>

  <circle cx="0" cy="0" r="505" fill="black" />
  <circle cx="0" cy="0" r="500" fill="white" />
  <circle cx="0" cy="0" r="400" fill="black" />
  <circle cx="0" cy="0" r="300" fill="white" />
  <circle cx="0" cy="0" r="200" fill="black" />
  <circle cx="0" cy="0" r="100" fill="white" />
  <line x1="-415" y1="-415" x2="-390" y2="-390" stroke="black" stroke-width="20"/>
  <polygon points="-375 -415, -415 -375, -360 -360" />

  <path id="circle2" fill="transparent"
      d="
      M 0 0
      m -130, 0
      a 130,130 0 1,1 260,0
      a 130,130 0 1,1 -260,0
      "
  />
  <path id="circle3" fill="transparent"
      d="
      M 0 0
      m -230, 0
      a 230,230 0 1,1 460,0
      a 230,230 0 1,1 -460,0
      "
  />
  <path id="circle4" fill="transparent"
      d="
      M 0 0
      m -330, 0
      a 330,330 0 1,1 660,0
      a 330,330 0 1,1 -660,0
      "
  />
  <path id="circle5" fill="transparent"
      d="
      M 0 0
      m -430, 0
      a 430,430 0 1,1 860,0
      a 430,430 0 1,1 -860,0
      "
  />

  <!-- First circle -->
  <text x="0" y="0" dominant-baseline="middle" text-anchor="middle" class="text1">BUG</text>

  <!-- Second circle -->
  <line transform="rotate(-25 0,0)" x1="-200" x2="-100" y1="0" y2="0" class="line2"/>
  <text transform="rotate(-10 0,0)" class="text2"><textPath href="#circle2">SNOW</textPath></text>
  <line transform="rotate(74 0,0)" x1="-200" x2="-100" y1="0" y2="0" class="line2"/>
  <text transform="rotate(89 0,0)" class="text2"><textPath href="#circle2">NORTH</textPath></text>
  <line transform="rotate(184 0,0)" x1="-200" x2="-100" y1="0" y2="0" class="line2"/>
  <text transform="rotate(199 0,0)" class="text2"><textPath href="#circle2">MOUNTAIN</textPath></text>

  <!-- Third circle -->
  <line transform="rotate(-8 0,0)" x1="-300" x2="-200" y1="0" y2="0" class="line3"/>
  <text transform="rotate(-2 0,0)" class="text3"><textPath href="#circle3">ALLOCATION</textPath></text>
  <line transform="rotate(82 0,0)" x1="-300" x2="-200" y1="0" y2="0" class="line3"/>
  <text transform="rotate(88 0,0)" class="text3"><textPath href="#circle3">ALGORITHMIC</textPath></text>
  <line transform="rotate(179 0,0)" x1="-300" x2="-200" y1="0" y2="0" class="line3"/>
  <text transform="rotate(185 0,0)" class="text3"><textPath href="#circle3">SOWN</textPath></text>
  <line transform="rotate(230 0,0)" x1="-300" x2="-200" y1="0" y2="0" class="line3"/>
  <text transform="rotate(236 0,0)" class="text3"><textPath href="#circle3">BUD</textPath></text>
  <line transform="rotate(268 0,0)" x1="-300" x2="-200" y1="0" y2="0" class="line3"/>
  <text transform="rotate(275 0,0)" class="text3"><textPath href="#circle3">PEAK</textPath></text>
  <line transform="rotate(314 0,0)" x1="-300" x2="-200" y1="0" y2="0" class="line3"/>
  <text transform="rotate(320 0,0)" class="text3"><textPath href="#circle3">BED</textPath></text>

  <!-- Fourth circle -->
  <line transform="rotate(5 0,0)" x1="-400" x2="-300" y1="0" y2="0" class="line4"/>
  <text transform="rotate(10 0,0)" class="text4"><textPath href="#circle4">YOUTH</textPath></text>
  <line transform="rotate(46 0,0)" x1="-400" x2="-300" y1="0" y2="0" class="line4"/>
  <text transform="rotate(51 0,0)" class="text4"><textPath href="#circle4">LOGARITHMIC</textPath></text>
  <line transform="rotate(117 0,0)" x1="-400" x2="-300" y1="0" y2="0" class="line4"/>
  <text transform="rotate(122 0,0)" class="text4"><textPath href="#circle4">ARTIFICIAL</textPath></text>
  <line transform="rotate(174 0,0)" x1="-400" x2="-300" y1="0" y2="0" class="line4"/>
  <text transform="rotate(180 0,0)" class="text4"><textPath href="#circle4">THORN</textPath></text>
  <line transform="rotate(216 0,0)" x1="-400" x2="-300" y1="0" y2="0" class="line4"/>
  <text transform="rotate(221 0,0)" class="text4"><textPath href="#circle4">FAKE</textPath></text>
  <line transform="rotate(249 0,0)" x1="-400" x2="-300" y1="0" y2="0" class="line4"/>
  <text transform="rotate(255 0,0)" class="text4"><textPath href="#circle4">RESOURCE</textPath></text>
  <line transform="rotate(309 0,0)" x1="-400" x2="-300" y1="0" y2="0" class="line4"/>
  <text transform="rotate(315 0,0)" class="text4"><textPath href="#circle4">FOUNTAIN</textPath></text>

  <!-- Fifth circle -->
  <line transform="rotate(16 0,0)" x1="-500" x2="-400" y1="0" y2="0" class="line5"/>
  <text transform="rotate(19 0,0)" class="text5"><textPath href="#circle5">PROGRAMMING</textPath></text>
  <line transform="rotate(74 0,0)" x1="-500" x2="-400" y1="0" y2="0" class="line5"/>
  <text transform="rotate(77 0,0)" class="text5"><textPath href="#circle5">TORN</textPath></text>
  <line transform="rotate(99 0,0)" x1="-500" x2="-400" y1="0" y2="0" class="line5"/>
  <text transform="rotate(102 0,0)" class="text5"><textPath href="#circle5">SOUTH</textPath></text>
  <line transform="rotate(129 0,0)" x1="-500" x2="-400" y1="0" y2="0" class="line5"/>
  <text transform="rotate(132 0,0)" class="text5"><textPath href="#circle5">BEAD</textPath></text>
  <line transform="rotate(153 0,0)" x1="-500" x2="-400" y1="0" y2="0" class="line5"/>
  <text transform="rotate(156 0,0)" class="text5"><textPath href="#circle5">DISTRIBUTION</textPath></text>
  <line transform="rotate(206 0,0)" x1="-500" x2="-400" y1="0" y2="0" class="line5"/>
  <text transform="rotate(210 0,0)" class="text5"><textPath href="#circle5">NATURAL</textPath></text>
  <line transform="rotate(244 0,0)" x1="-500" x2="-400" y1="0" y2="0" class="line5"/>
  <text transform="rotate(247 0,0)" class="text5"><textPath href="#circle5">TOWN</textPath></text>
  <line transform="rotate(271 0,0)" x1="-500" x2="-400" y1="0" y2="0" class="line5"/>
  <text transform="rotate(274 0,0)" class="text5"><textPath href="#circle5">PROCEDURAL</textPath></text>
  <line transform="rotate(324 0,0)" x1="-500" x2="-400" y1="0" y2="0" class="line5"/>
  <text transform="rotate(327 0,0)" class="text5"><textPath href="#circle5">BEAK</textPath></text>
  <line transform="rotate(348 0,0)" x1="-500" x2="-400" y1="0" y2="0" class="line5"/>
  <text transform="rotate(351 0,0)" class="text5"><textPath href="#circle5">FLAKE</textPath></text>

</svg>
