  <svg width="500" height="500" viewBox="-550 -550 1100 1100" xmlns="http://www.w3.org/2000/svg">
  <style>
    .text1 { fill: black; font: 50px sans-serif; }
    .text2 { fill: white; font: 50px sans-serif; }
    .line2 { stroke: white; stroke-width:5; }
    .text3 { fill: black; font: 50px sans-serif; }
    .line3 { stroke: black; stroke-width:5; }
    .text4 { fill: white; font: 50px sans-serif; }
    .line4 { stroke: white; stroke-width:5; }
    .text5 { fill: black; font: 50px sans-serif; }
    .line5 { stroke: black; stroke-width:5; }
  </style>

  <circle cx="0" cy="0" r="505" fill="black" />
  <circle cx="0" cy="0" r="500" fill="white" />
  <circle cx="0" cy="0" r="400" fill="black" />
  <circle cx="0" cy="0" r="300" fill="white" />
  <circle cx="0" cy="0" r="200" fill="black" />
  <circle cx="0" cy="0" r="100" fill="white" />
  <line x1="-415" y1="-415" x2="-390" y2="-390" stroke="black" stroke-width="20"/>
  <polygon points="-375 -415, -415 -375, -360 -360" />

  <path id="circle2" fill="transparent"
      d="
      M 0 0
      m -130, 0
      a 130,130 0 1,1 260,0
      a 130,130 0 1,1 -260,0
      "
  />
  <path id="circle3" fill="transparent"
      d="
      M 0 0
      m -230, 0
      a 230,230 0 1,1 460,0
      a 230,230 0 1,1 -460,0
      "
  />
  <path id="circle4" fill="transparent"
      d="
      M 0 0
      m -330, 0
      a 330,330 0 1,1 660,0
      a 330,330 0 1,1 -660,0
      "
  />
  <path id="circle5" fill="transparent"
      d="
      M 0 0
      m -430, 0
      a 430,430 0 1,1 860,0
      a 430,430 0 1,1 -860,0
      "
  />

  <!-- First circle -->
  <text x="0" y="0" dominant-baseline="middle" text-anchor="middle" class="text1">GOLGI</text>

  <!-- Second circle -->
  <line transform="rotate(-12 0,0)" x1="-200" x2="-100" y1="0" y2="0" class="line2"/>
  <text transform="rotate(8 0,0)" class="text2"><textPath href="#circle2">MOOSE</textPath></text>
  <line transform="rotate(112 0,0)" x1="-200" x2="-100" y1="0" y2="0" class="line2"/>
  <text transform="rotate(133 0,0)" class="text2"><textPath href="#circle2">SHEEP</textPath></text>
  <line transform="rotate(231 0,0)" x1="-200" x2="-100" y1="0" y2="0" class="line2"/>
  <text transform="rotate(251 0,0)" class="text2"><textPath href="#circle2">TERSE</textPath></text>

  <!-- Third circle -->
  <line transform="rotate(6 0,0)" x1="-300" x2="-200" y1="0" y2="0" class="line3"/>
  <text transform="rotate(15 0,0)" class="text3"><textPath href="#circle3">BERRY</textPath></text>
  <line transform="rotate(66 0,0)" x1="-300" x2="-200" y1="0" y2="0" class="line3"/>
  <text transform="rotate(75 0,0)" class="text3"><textPath href="#circle3">STEER</textPath></text>
  <line transform="rotate(125 0,0)" x1="-300" x2="-200" y1="0" y2="0" class="line3"/>
  <text transform="rotate(134 0,0)" class="text3"><textPath href="#circle3">OBSERVER</textPath></text>
  <line transform="rotate(211 0,0)" x1="-300" x2="-200" y1="0" y2="0" class="line3"/>
  <text transform="rotate(220 0,0)" class="text3"><textPath href="#circle3">OBSERVE</textPath></text>
  <line transform="rotate(288 0,0)" x1="-300" x2="-200" y1="0" y2="0" class="line3"/>
  <text transform="rotate(297 0,0)" class="text3"><textPath href="#circle3">VERBOSE</textPath></text>

  <!-- Fourth circle -->
  <line transform="rotate(35 0,0)" x1="-400" x2="-300" y1="0" y2="0" class="line4"/>
  <text transform="rotate(41 0,0)" class="text4"><textPath href="#circle4">GOOSE</textPath></text>
  <line transform="rotate(79 0,0)" x1="-400" x2="-300" y1="0" y2="0" class="line4"/>
  <text transform="rotate(85 0,0)" class="text4"><textPath href="#circle4">ELDER</textPath></text>
  <line transform="rotate(120 0,0)" x1="-400" x2="-300" y1="0" y2="0" class="line4"/>
  <text transform="rotate(126 0,0)" class="text4"><textPath href="#circle4">BIAS</textPath></text>
  <line transform="rotate(152 0,0)" x1="-400" x2="-300" y1="0" y2="0" class="line4"/>
  <text transform="rotate(158 0,0)" class="text4"><textPath href="#circle4">EXPERIMENTAL</textPath></text>
  <line transform="rotate(231 0,0)" x1="-400" x2="-300" y1="0" y2="0" class="line4"/>
  <text transform="rotate(237 0,0)" class="text4"><textPath href="#circle4">ENDER</textPath></text>
  <line transform="rotate(274 0,0)" x1="-400" x2="-300" y1="0" y2="0" class="line4"/>
  <text transform="rotate(280 0,0)" class="text4"><textPath href="#circle4">DOLLY</textPath></text>
  <line transform="rotate(315 0,0)" x1="-400" x2="-300" y1="0" y2="0" class="line4"/>
  <text transform="rotate(321 0,0)" class="text4"><textPath href="#circle4">CONFIRMATION</textPath></text>

  <!-- Fifth circle -->
  <line transform="rotate(17 0,0)" x1="-500" x2="-400" y1="0" y2="0" class="line5"/>
  <text transform="rotate(20 0,0)" class="text5"><textPath href="#circle5">SCHRODINGER</textPath></text>
  <line transform="rotate(74 0,0)" x1="-500" x2="-400" y1="0" y2="0" class="line5"/>
  <text transform="rotate(77 0,0)" class="text5"><textPath href="#circle5">GANDER</textPath></text>
  <line transform="rotate(110 0,0)" x1="-500" x2="-400" y1="0" y2="0" class="line5"/>
  <text transform="rotate(113 0,0)" class="text5"><textPath href="#circle5">APPARATUS</textPath></text>
  <line transform="rotate(157 0,0)" x1="-500" x2="-400" y1="0" y2="0" class="line5"/>
  <text transform="rotate(161 0,0)" class="text5"><textPath href="#circle5">MOUSE</textPath></text>
  <line transform="rotate(189 0,0)" x1="-500" x2="-400" y1="0" y2="0" class="line5"/>
  <text transform="rotate(193 0,0)" class="text5"><textPath href="#circle5">SHEER</textPath></text>
  <line transform="rotate(219 0,0)" x1="-500" x2="-400" y1="0" y2="0" class="line5"/>
  <text transform="rotate(223 0,0)" class="text5"><textPath href="#circle5">JOLLY</textPath></text>
  <line transform="rotate(247 0,0)" x1="-500" x2="-400" y1="0" y2="0" class="line5"/>
  <text transform="rotate(251 0,0)" class="text5"><textPath href="#circle5">EVIDENCE</textPath></text>
  <line transform="rotate(289 0,0)" x1="-500" x2="-400" y1="0" y2="0" class="line5"/>
  <text transform="rotate(292 0,0)" class="text5"><textPath href="#circle5">MERRY</textPath></text>
  <line transform="rotate(320 0,0)" x1="-500" x2="-400" y1="0" y2="0" class="line5"/>
  <text transform="rotate(324 0,0)" class="text5"><textPath href="#circle5">GENDER</textPath></text>
  <line transform="rotate(356 0,0)" x1="-500" x2="-400" y1="0" y2="0" class="line5"/>
  <text transform="rotate(0 0,0)" class="text5"><textPath href="#circle5">CAT</textPath></text>

</svg>
