  <svg width="500" height="500" viewBox="-550 -550 1100 1100" xmlns="http://www.w3.org/2000/svg">
  <style>
    .text1 { fill: black; font: 50px sans-serif; }
    .text2 { fill: white; font: 50px sans-serif; }
    .line2 { stroke: white; stroke-width:5; }
    .text3 { fill: black; font: 50px sans-serif; }
    .line3 { stroke: black; stroke-width:5; }
    .text4 { fill: white; font: 50px sans-serif; }
    .line4 { stroke: white; stroke-width:5; }
    .text5 { fill: black; font: 50px sans-serif; }
    .line5 { stroke: black; stroke-width:5; }
  </style>

  <circle cx="0" cy="0" r="505" fill="black" />
  <circle cx="0" cy="0" r="500" fill="white" />
  <circle cx="0" cy="0" r="400" fill="black" />
  <circle cx="0" cy="0" r="300" fill="white" />
  <circle cx="0" cy="0" r="200" fill="black" />
  <circle cx="0" cy="0" r="100" fill="white" />
  <line x1="-415" y1="-415" x2="-390" y2="-390" stroke="black" stroke-width="20"/>
  <polygon points="-375 -415, -415 -375, -360 -360" />

  <path id="circle2" fill="transparent"
      d="
      M 0 0
      m -130, 0
      a 130,130 0 1,1 260,0
      a 130,130 0 1,1 -260,0
      "
  />
  <path id="circle3" fill="transparent"
      d="
      M 0 0
      m -230, 0
      a 230,230 0 1,1 460,0
      a 230,230 0 1,1 -460,0
      "
  />
  <path id="circle4" fill="transparent"
      d="
      M 0 0
      m -330, 0
      a 330,330 0 1,1 660,0
      a 330,330 0 1,1 -660,0
      "
  />
  <path id="circle5" fill="transparent"
      d="
      M 0 0
      m -430, 0
      a 430,430 0 1,1 860,0
      a 430,430 0 1,1 -860,0
      "
  />

  <!-- First circle -->
  <text x="0" y="0" dominant-baseline="middle" text-anchor="middle" class="text1">ATOM</text>

  <!-- Second circle -->
  <line transform="rotate(7 0,0)" x1="-200" x2="-100" y1="0" y2="0" class="line2"/>
  <text transform="rotate(19 0,0)" class="text2"><textPath href="#circle2">ENGINEER</textPath></text>
  <line transform="rotate(150 0,0)" x1="-200" x2="-100" y1="0" y2="0" class="line2"/>
  <text transform="rotate(163 0,0)" class="text2"><textPath href="#circle2">CYAN</textPath></text>
  <line transform="rotate(238 0,0)" x1="-200" x2="-100" y1="0" y2="0" class="line2"/>
  <text transform="rotate(251 0,0)" class="text2"><textPath href="#circle2">ENGINER</textPath></text>

  <!-- Third circle -->
  <line transform="rotate(32 0,0)" x1="-300" x2="-200" y1="0" y2="0" class="line3"/>
  <text transform="rotate(43 0,0)" class="text3"><textPath href="#circle3">CARTOON</textPath></text>
  <line transform="rotate(115 0,0)" x1="-300" x2="-200" y1="0" y2="0" class="line3"/>
  <text transform="rotate(126 0,0)" class="text3"><textPath href="#circle3">BACTERIAL</textPath></text>
  <line transform="rotate(205 0,0)" x1="-300" x2="-200" y1="0" y2="0" class="line3"/>
  <text transform="rotate(216 0,0)" class="text3"><textPath href="#circle3">CLAN</textPath></text>
  <line transform="rotate(260 0,0)" x1="-300" x2="-200" y1="0" y2="0" class="line3"/>
  <text transform="rotate(271 0,0)" class="text3"><textPath href="#circle3">MOAT</textPath></text>
  <line transform="rotate(317 0,0)" x1="-300" x2="-200" y1="0" y2="0" class="line3"/>
  <text transform="rotate(328 0,0)" class="text3"><textPath href="#circle3">CARBON</textPath></text>

  <!-- Fourth circle -->
  <line transform="rotate(27 0,0)" x1="-400" x2="-300" y1="0" y2="0" class="line4"/>
  <text transform="rotate(35 0,0)" class="text4"><textPath href="#circle4">DIAMOND</textPath></text>
  <line transform="rotate(86 0,0)" x1="-400" x2="-300" y1="0" y2="0" class="line4"/>
  <text transform="rotate(94 0,0)" class="text4"><textPath href="#circle4">CALIBRATE</textPath></text>
  <line transform="rotate(152 0,0)" x1="-400" x2="-300" y1="0" y2="0" class="line4"/>
  <text transform="rotate(161 0,0)" class="text4"><textPath href="#circle4">MEAT</textPath></text>
  <line transform="rotate(194 0,0)" x1="-400" x2="-300" y1="0" y2="0" class="line4"/>
  <text transform="rotate(203 0,0)" class="text4"><textPath href="#circle4">ADJUST</textPath></text>
  <line transform="rotate(245 0,0)" x1="-400" x2="-300" y1="0" y2="0" class="line4"/>
  <text transform="rotate(254 0,0)" class="text4"><textPath href="#circle4">ENGINE</textPath></text>
  <line transform="rotate(297 0,0)" x1="-400" x2="-300" y1="0" y2="0" class="line4"/>
  <text transform="rotate(306 0,0)" class="text4"><textPath href="#circle4">CYANO</textPath></text>
  <line transform="rotate(346 0,0)" x1="-400" x2="-300" y1="0" y2="0" class="line4"/>
  <text transform="rotate(354 0,0)" class="text4"><textPath href="#circle4">HEAT</textPath></text>

  <!-- Fifth circle -->
  <line transform="rotate(21 0,0)" x1="-500" x2="-400" y1="0" y2="0" class="line5"/>
  <text transform="rotate(26 0,0)" class="text5"><textPath href="#circle5">ANIMATION</textPath></text>
  <line transform="rotate(69 0,0)" x1="-500" x2="-400" y1="0" y2="0" class="line5"/>
  <text transform="rotate(75 0,0)" class="text5"><textPath href="#circle5">CLEAN</textPath></text>
  <line transform="rotate(103 0,0)" x1="-500" x2="-400" y1="0" y2="0" class="line5"/>
  <text transform="rotate(108 0,0)" class="text5"><textPath href="#circle5">NUCLEAR</textPath></text>
  <line transform="rotate(146 0,0)" x1="-500" x2="-400" y1="0" y2="0" class="line5"/>
  <text transform="rotate(152 0,0)" class="text5"><textPath href="#circle5">DUST</textPath></text>
  <line transform="rotate(176 0,0)" x1="-500" x2="-400" y1="0" y2="0" class="line5"/>
  <text transform="rotate(181 0,0)" class="text5"><textPath href="#circle5">UNCLEAN</textPath></text>
  <line transform="rotate(219 0,0)" x1="-500" x2="-400" y1="0" y2="0" class="line5"/>
  <text transform="rotate(225 0,0)" class="text5"><textPath href="#circle5">ADUST</textPath></text>
  <line transform="rotate(253 0,0)" x1="-500" x2="-400" y1="0" y2="0" class="line5"/>
  <text transform="rotate(259 0,0)" class="text5"><textPath href="#circle5">CARTON</textPath></text>
  <line transform="rotate(292 0,0)" x1="-500" x2="-400" y1="0" y2="0" class="line5"/>
  <text transform="rotate(298 0,0)" class="text5"><textPath href="#circle5">UNCLEAR</textPath></text>
  <line transform="rotate(336 0,0)" x1="-500" x2="-400" y1="0" y2="0" class="line5"/>
  <text transform="rotate(341 0,0)" class="text5"><textPath href="#circle5">BACTERIA</textPath></text>

</svg>
