  <svg width="500" height="500" viewBox="-550 -550 1100 1100" xmlns="http://www.w3.org/2000/svg">
  <style>
    .text1 { fill: black; font: 50px sans-serif; }
    .text2 { fill: white; font: 50px sans-serif; }
    .line2 { stroke: white; stroke-width:5; }
    .text3 { fill: black; font: 50px sans-serif; }
    .line3 { stroke: black; stroke-width:5; }
    .text4 { fill: white; font: 50px sans-serif; }
    .line4 { stroke: white; stroke-width:5; }
    .text5 { fill: black; font: 50px sans-serif; }
    .line5 { stroke: black; stroke-width:5; }
  </style>

  <circle cx="0" cy="0" r="505" fill="black" />
  <circle cx="0" cy="0" r="500" fill="white" />
  <circle cx="0" cy="0" r="400" fill="black" />
  <circle cx="0" cy="0" r="300" fill="white" />
  <circle cx="0" cy="0" r="200" fill="black" />
  <circle cx="0" cy="0" r="100" fill="white" />
  <line x1="-415" y1="-415" x2="-390" y2="-390" stroke="black" stroke-width="20"/>
  <polygon points="-375 -415, -415 -375, -360 -360" />

  <path id="circle2" fill="transparent"
      d="
      M 0 0
      m -130, 0
      a 130,130 0 1,1 260,0
      a 130,130 0 1,1 -260,0
      "
  />
  <path id="circle3" fill="transparent"
      d="
      M 0 0
      m -230, 0
      a 230,230 0 1,1 460,0
      a 230,230 0 1,1 -460,0
      "
  />
  <path id="circle4" fill="transparent"
      d="
      M 0 0
      m -330, 0
      a 330,330 0 1,1 660,0
      a 330,330 0 1,1 -660,0
      "
  />
  <path id="circle5" fill="transparent"
      d="
      M 0 0
      m -430, 0
      a 430,430 0 1,1 860,0
      a 430,430 0 1,1 -860,0
      "
  />

  <!-- First circle -->
  <text x="0" y="0" dominant-baseline="middle" text-anchor="middle" class="text1">WAY</text>

  <!-- Second circle -->
  <line transform="rotate(2 0,0)" x1="-200" x2="-100" y1="0" y2="0" class="line2"/>
  <text transform="rotate(12 0,0)" class="text2"><textPath href="#circle2">NONPOLAR</textPath></text>
  <line transform="rotate(149 0,0)" x1="-200" x2="-100" y1="0" y2="0" class="line2"/>
  <text transform="rotate(159 0,0)" class="text2"><textPath href="#circle2">BOUND</textPath></text>
  <line transform="rotate(251 0,0)" x1="-200" x2="-100" y1="0" y2="0" class="line2"/>
  <text transform="rotate(262 0,0)" class="text2"><textPath href="#circle2">STATUE</textPath></text>

  <!-- Third circle -->
  <line transform="rotate(46 0,0)" x1="-300" x2="-200" y1="0" y2="0" class="line3"/>
  <text transform="rotate(55 0,0)" class="text3"><textPath href="#circle3">MEMORY</textPath></text>
  <line transform="rotate(119 0,0)" x1="-300" x2="-200" y1="0" y2="0" class="line3"/>
  <text transform="rotate(128 0,0)" class="text3"><textPath href="#circle3">GRIME</textPath></text>
  <line transform="rotate(178 0,0)" x1="-300" x2="-200" y1="0" y2="0" class="line3"/>
  <text transform="rotate(187 0,0)" class="text3"><textPath href="#circle3">CRANK</textPath></text>
  <line transform="rotate(239 0,0)" x1="-300" x2="-200" y1="0" y2="0" class="line3"/>
  <text transform="rotate(248 0,0)" class="text3"><textPath href="#circle3">POLAR</textPath></text>
  <line transform="rotate(299 0,0)" x1="-300" x2="-200" y1="0" y2="0" class="line3"/>
  <text transform="rotate(308 0,0)" class="text3"><textPath href="#circle3">STATE</textPath></text>
  <line transform="rotate(357 0,0)" x1="-300" x2="-200" y1="0" y2="0" class="line3"/>
  <text transform="rotate(6 0,0)" class="text3"><textPath href="#circle3">BELL</textPath></text>

  <!-- Fourth circle -->
  <line transform="rotate(104 0,0)" x1="-400" x2="-300" y1="0" y2="0" class="line4"/>
  <text transform="rotate(110 0,0)" class="text4"><textPath href="#circle4">SEAL</textPath></text>
  <line transform="rotate(138 0,0)" x1="-400" x2="-300" y1="0" y2="0" class="line4"/>
  <text transform="rotate(144 0,0)" class="text4"><textPath href="#circle4">WORKER</textPath></text>
  <line transform="rotate(189 0,0)" x1="-400" x2="-300" y1="0" y2="0" class="line4"/>
  <text transform="rotate(195 0,0)" class="text4"><textPath href="#circle4">GRAM</textPath></text>
  <line transform="rotate(228 0,0)" x1="-400" x2="-300" y1="0" y2="0" class="line4"/>
  <text transform="rotate(234 0,0)" class="text4"><textPath href="#circle4">CRANE</textPath></text>
  <line transform="rotate(270 0,0)" x1="-400" x2="-300" y1="0" y2="0" class="line4"/>
  <text transform="rotate(276 0,0)" class="text4"><textPath href="#circle4">SELL</textPath></text>
  <line transform="rotate(304 0,0)" x1="-400" x2="-300" y1="0" y2="0" class="line4"/>
  <text transform="rotate(310 0,0)" class="text4"><textPath href="#circle4">FORKER</textPath></text>
  <line transform="rotate(352 0,0)" x1="-400" x2="-300" y1="0" y2="0" class="line4"/>
  <text transform="rotate(358 0,0)" class="text4"><textPath href="#circle4">FORGET</textPath></text>
  <line transform="rotate(41 0,0)" x1="-400" x2="-300" y1="0" y2="0" class="line4"/>
  <text transform="rotate(47 0,0)" class="text4"><textPath href="#circle4">REMEMBER</textPath></text>

  <!-- Fifth circle -->
  <line transform="rotate(17 0,0)" x1="-500" x2="-400" y1="0" y2="0" class="line5"/>
  <text transform="rotate(20 0,0)" class="text5"><textPath href="#circle5">HYDROPHOBIC</textPath></text>
  <line transform="rotate(73 0,0)" x1="-500" x2="-400" y1="0" y2="0" class="line5"/>
  <text transform="rotate(76 0,0)" class="text5"><textPath href="#circle5">CONSTRUCTION</textPath></text>
  <line transform="rotate(133 0,0)" x1="-500" x2="-400" y1="0" y2="0" class="line5"/>
  <text transform="rotate(137 0,0)" class="text5"><textPath href="#circle5">RAM</textPath></text>
  <line transform="rotate(155 0,0)" x1="-500" x2="-400" y1="0" y2="0" class="line5"/>
  <text transform="rotate(158 0,0)" class="text5"><textPath href="#circle5">RANK</textPath></text>
  <line transform="rotate(180 0,0)" x1="-500" x2="-400" y1="0" y2="0" class="line5"/>
  <text transform="rotate(183 0,0)" class="text5"><textPath href="#circle5">WAX</textPath></text>
  <line transform="rotate(202 0,0)" x1="-500" x2="-400" y1="0" y2="0" class="line5"/>
  <text transform="rotate(205 0,0)" class="text5"><textPath href="#circle5">FORGER</textPath></text>
  <line transform="rotate(237 0,0)" x1="-500" x2="-400" y1="0" y2="0" class="line5"/>
  <text transform="rotate(240 0,0)" class="text5"><textPath href="#circle5">GRIM</textPath></text>
  <line transform="rotate(261 0,0)" x1="-500" x2="-400" y1="0" y2="0" class="line5"/>
  <text transform="rotate(265 0,0)" class="text5"><textPath href="#circle5">CRIME</textPath></text>
  <line transform="rotate(289 0,0)" x1="-500" x2="-400" y1="0" y2="0" class="line5"/>
  <text transform="rotate(293 0,0)" class="text5"><textPath href="#circle5">CHIME</textPath></text>
  <line transform="rotate(318 0,0)" x1="-500" x2="-400" y1="0" y2="0" class="line5"/>
  <text transform="rotate(321 0,0)" class="text5"><textPath href="#circle5">BOND</textPath></text>
  <line transform="rotate(344 0,0)" x1="-500" x2="-400" y1="0" y2="0" class="line5"/>
  <text transform="rotate(347 0,0)" class="text5"><textPath href="#circle5">STATUS</textPath></text>

</svg>
