  <svg width="500" height="500" viewBox="-550 -550 1100 1100" xmlns="http://www.w3.org/2000/svg">
  <style>
    .text1 { fill: black; font: 50px sans-serif; }
    .text2 { fill: white; font: 50px sans-serif; }
    .line2 { stroke: white; stroke-width:5; }
    .text3 { fill: black; font: 50px sans-serif; }
    .line3 { stroke: black; stroke-width:5; }
    .text4 { fill: white; font: 50px sans-serif; }
    .line4 { stroke: white; stroke-width:5; }
    .text5 { fill: black; font: 50px sans-serif; }
    .line5 { stroke: black; stroke-width:5; }
  </style>

  <circle cx="0" cy="0" r="505" fill="black" />
  <circle cx="0" cy="0" r="500" fill="white" />
  <circle cx="0" cy="0" r="400" fill="black" />
  <circle cx="0" cy="0" r="300" fill="white" />
  <circle cx="0" cy="0" r="200" fill="black" />
  <circle cx="0" cy="0" r="100" fill="white" />
  <line x1="-415" y1="-415" x2="-390" y2="-390" stroke="black" stroke-width="20"/>
  <polygon points="-375 -415, -415 -375, -360 -360" />

  <path id="circle2" fill="transparent"
      d="
      M 0 0
      m -130, 0
      a 130,130 0 1,1 260,0
      a 130,130 0 1,1 -260,0
      "
  />
  <path id="circle3" fill="transparent"
      d="
      M 0 0
      m -230, 0
      a 230,230 0 1,1 460,0
      a 230,230 0 1,1 -460,0
      "
  />
  <path id="circle4" fill="transparent"
      d="
      M 0 0
      m -330, 0
      a 330,330 0 1,1 660,0
      a 330,330 0 1,1 -660,0
      "
  />
  <path id="circle5" fill="transparent"
      d="
      M 0 0
      m -430, 0
      a 430,430 0 1,1 860,0
      a 430,430 0 1,1 -860,0
      "
  />

  <!-- First circle -->
  <text x="0" y="0" dominant-baseline="middle" text-anchor="middle" class="text1">BEAR</text>

  <!-- Second circle -->
  <line transform="rotate(16 0,0)" x1="-200" x2="-100" y1="0" y2="0" class="line2"/>
  <text transform="rotate(38 0,0)" class="text2"><textPath href="#circle2">COT</textPath></text>
  <line transform="rotate(108 0,0)" x1="-200" x2="-100" y1="0" y2="0" class="line2"/>
  <text transform="rotate(131 0,0)" class="text2"><textPath href="#circle2">STAMP</textPath></text>
  <line transform="rotate(232 0,0)" x1="-200" x2="-100" y1="0" y2="0" class="line2"/>
  <text transform="rotate(254 0,0)" class="text2"><textPath href="#circle2">GRAVITY</textPath></text>

  <!-- Third circle -->
  <line transform="rotate(-6 0,0)" x1="-300" x2="-200" y1="0" y2="0" class="line3"/>
  <text transform="rotate(4 0,0)" class="text3"><textPath href="#circle3">RIPE</textPath></text>
  <line transform="rotate(43 0,0)" x1="-300" x2="-200" y1="0" y2="0" class="line3"/>
  <text transform="rotate(53 0,0)" class="text3"><textPath href="#circle3">MARS</textPath></text>
  <line transform="rotate(99 0,0)" x1="-300" x2="-200" y1="0" y2="0" class="line3"/>
  <text transform="rotate(109 0,0)" class="text3"><textPath href="#circle3">MARLINE</textPath></text>
  <line transform="rotate(174 0,0)" x1="-300" x2="-200" y1="0" y2="0" class="line3"/>
  <text transform="rotate(184 0,0)" class="text3"><textPath href="#circle3">BEAD</textPath></text>
  <line transform="rotate(227 0,0)" x1="-300" x2="-200" y1="0" y2="0" class="line3"/>
  <text transform="rotate(238 0,0)" class="text3"><textPath href="#circle3">SALT</textPath></text>
  <line transform="rotate(279 0,0)" x1="-300" x2="-200" y1="0" y2="0" class="line3"/>
  <text transform="rotate(289 0,0)" class="text3"><textPath href="#circle3">NEWTON</textPath></text>

  <!-- Fourth circle -->
  <line transform="rotate(-11 0,0)" x1="-400" x2="-300" y1="0" y2="0" class="line4"/>
  <text transform="rotate(3 0,0)" class="text4"><textPath href="#circle4">MINERAL</textPath></text>
  <line transform="rotate(56 0,0)" x1="-400" x2="-300" y1="0" y2="0" class="line4"/>
  <text transform="rotate(71 0,0)" class="text4"><textPath href="#circle4">PRICE</textPath></text>
  <line transform="rotate(112 0,0)" x1="-400" x2="-300" y1="0" y2="0" class="line4"/>
  <text transform="rotate(126 0,0)" class="text4"><textPath href="#circle4">POSTAGE</textPath></text>
  <line transform="rotate(183 0,0)" x1="-400" x2="-300" y1="0" y2="0" class="line4"/>
  <text transform="rotate(198 0,0)" class="text4"><textPath href="#circle4">ROPE</textPath></text>
  <line transform="rotate(237 0,0)" x1="-400" x2="-300" y1="0" y2="0" class="line4"/>
  <text transform="rotate(251 0,0)" class="text4"><textPath href="#circle4">RICE</textPath></text>
  <line transform="rotate(287 0,0)" x1="-400" x2="-300" y1="0" y2="0" class="line4"/>
  <text transform="rotate(301 0,0)" class="text4"><textPath href="#circle4">SWAMP</textPath></text>

  <!-- Fifth circle -->
  <line transform="rotate(29 0,0)" x1="-500" x2="-400" y1="0" y2="0" class="line5"/>
  <text transform="rotate(33 0,0)" class="text5"><textPath href="#circle5">POLICY</textPath></text>
  <line transform="rotate(62 0,0)" x1="-500" x2="-400" y1="0" y2="0" class="line5"/>
  <text transform="rotate(67 0,0)" class="text5"><textPath href="#circle5">POLICE</textPath></text>
  <line transform="rotate(96 0,0)" x1="-500" x2="-400" y1="0" y2="0" class="line5"/>
  <text transform="rotate(101 0,0)" class="text5"><textPath href="#circle5">LAST</textPath></text>
  <line transform="rotate(122 0,0)" x1="-500" x2="-400" y1="0" y2="0" class="line5"/>
  <text transform="rotate(127 0,0)" class="text5"><textPath href="#circle5">FIST</textPath></text>
  <line transform="rotate(146 0,0)" x1="-500" x2="-400" y1="0" y2="0" class="line5"/>
  <text transform="rotate(150 0,0)" class="text5"><textPath href="#circle5">FIRST</textPath></text>
  <line transform="rotate(174 0,0)" x1="-500" x2="-400" y1="0" y2="0" class="line5"/>
  <text transform="rotate(179 0,0)" class="text5"><textPath href="#circle5">MASS</textPath></text>
  <line transform="rotate(202 0,0)" x1="-500" x2="-400" y1="0" y2="0" class="line5"/>
  <text transform="rotate(207 0,0)" class="text5"><textPath href="#circle5">FISH</textPath></text>
  <line transform="rotate(227 0,0)" x1="-500" x2="-400" y1="0" y2="0" class="line5"/>
  <text transform="rotate(231 0,0)" class="text5"><textPath href="#circle5">COST</textPath></text>
  <line transform="rotate(254 0,0)" x1="-500" x2="-400" y1="0" y2="0" class="line5"/>
  <text transform="rotate(259 0,0)" class="text5"><textPath href="#circle5">BED</textPath></text>
  <line transform="rotate(277 0,0)" x1="-500" x2="-400" y1="0" y2="0" class="line5"/>
  <text transform="rotate(282 0,0)" class="text5"><textPath href="#circle5">NEKTON</textPath></text>
  <line transform="rotate(314 0,0)" x1="-500" x2="-400" y1="0" y2="0" class="line5"/>
  <text transform="rotate(318 0,0)" class="text5"><textPath href="#circle5">GESTAPO</textPath></text>
  <line transform="rotate(355 0,0)" x1="-500" x2="-400" y1="0" y2="0" class="line5"/>
  <text transform="rotate(0 0,0)" class="text5"><textPath href="#circle5">MARSH</textPath></text>

</svg>
