  <svg width="500" height="500" viewBox="-550 -550 1100 1100" xmlns="http://www.w3.org/2000/svg">
  <style>
    .text1 { fill: black; font: 50px sans-serif; }
    .text2 { fill: white; font: 50px sans-serif; }
    .line2 { stroke: white; stroke-width:5; }
    .text3 { fill: black; font: 50px sans-serif; }
    .line3 { stroke: black; stroke-width:5; }
    .text4 { fill: white; font: 50px sans-serif; }
    .line4 { stroke: white; stroke-width:5; }
    .text5 { fill: black; font: 50px sans-serif; }
    .line5 { stroke: black; stroke-width:5; }
  </style>

  <circle cx="0" cy="0" r="505" fill="black" />
  <circle cx="0" cy="0" r="500" fill="white" />
  <circle cx="0" cy="0" r="400" fill="black" />
  <circle cx="0" cy="0" r="300" fill="white" />
  <circle cx="0" cy="0" r="200" fill="black" />
  <circle cx="0" cy="0" r="100" fill="white" />
  <line x1="-415" y1="-415" x2="-390" y2="-390" stroke="black" stroke-width="20"/>
  <polygon points="-375 -415, -415 -375, -360 -360" />

  <path id="circle2" fill="transparent"
      d="
      M 0 0
      m -130, 0
      a 130,130 0 1,1 260,0
      a 130,130 0 1,1 -260,0
      "
  />
  <path id="circle3" fill="transparent"
      d="
      M 0 0
      m -230, 0
      a 230,230 0 1,1 460,0
      a 230,230 0 1,1 -460,0
      "
  />
  <path id="circle4" fill="transparent"
      d="
      M 0 0
      m -330, 0
      a 330,330 0 1,1 660,0
      a 330,330 0 1,1 -660,0
      "
  />
  <path id="circle5" fill="transparent"
      d="
      M 0 0
      m -430, 0
      a 430,430 0 1,1 860,0
      a 430,430 0 1,1 -860,0
      "
  />

  <!-- First circle -->
  <text x="0" y="0" dominant-baseline="middle" text-anchor="middle" class="text1">HOSE</text>

  <!-- Second circle -->
  <line transform="rotate(-22 0,0)" x1="-200" x2="-100" y1="0" y2="0" class="line2"/>
  <text transform="rotate(-12 0,0)" class="text2"><textPath href="#circle2">POLE</textPath></text>
  <line transform="rotate(58 0,0)" x1="-200" x2="-100" y1="0" y2="0" class="line2"/>
  <text transform="rotate(69 0,0)" class="text2"><textPath href="#circle2">EJECT</textPath></text>
  <line transform="rotate(151 0,0)" x1="-200" x2="-100" y1="0" y2="0" class="line2"/>
  <text transform="rotate(162 0,0)" class="text2"><textPath href="#circle2">HERON</textPath></text>
  <line transform="rotate(254 0,0)" x1="-200" x2="-100" y1="0" y2="0" class="line2"/>
  <text transform="rotate(265 0,0)" class="text2"><textPath href="#circle2">POPE</textPath></text>

  <!-- Third circle -->
  <line transform="rotate(18 0,0)" x1="-300" x2="-200" y1="0" y2="0" class="line3"/>
  <text transform="rotate(24 0,0)" class="text3"><textPath href="#circle3">ZERO</textPath></text>
  <line transform="rotate(64 0,0)" x1="-300" x2="-200" y1="0" y2="0" class="line3"/>
  <text transform="rotate(70 0,0)" class="text3"><textPath href="#circle3">PHONE</textPath></text>
  <line transform="rotate(119 0,0)" x1="-300" x2="-200" y1="0" y2="0" class="line3"/>
  <text transform="rotate(126 0,0)" class="text3"><textPath href="#circle3">REJECT</textPath></text>
  <line transform="rotate(179 0,0)" x1="-300" x2="-200" y1="0" y2="0" class="line3"/>
  <text transform="rotate(185 0,0)" class="text3"><textPath href="#circle3">HERO</textPath></text>
  <line transform="rotate(227 0,0)" x1="-300" x2="-200" y1="0" y2="0" class="line3"/>
  <text transform="rotate(233 0,0)" class="text3"><textPath href="#circle3">PROOF</textPath></text>
  <line transform="rotate(282 0,0)" x1="-300" x2="-200" y1="0" y2="0" class="line3"/>
  <text transform="rotate(289 0,0)" class="text3"><textPath href="#circle3">SOUP</textPath></text>
  <line transform="rotate(329 0,0)" x1="-300" x2="-200" y1="0" y2="0" class="line3"/>
  <text transform="rotate(335 0,0)" class="text3"><textPath href="#circle3">ROOK</textPath></text>

  <!-- Fourth circle -->
  <line transform="rotate(27 0,0)" x1="-400" x2="-300" y1="0" y2="0" class="line4"/>
  <text transform="rotate(32 0,0)" class="text4"><textPath href="#circle4">BINOMIAL</textPath></text>
  <line transform="rotate(79 0,0)" x1="-400" x2="-300" y1="0" y2="0" class="line4"/>
  <text transform="rotate(84 0,0)" class="text4"><textPath href="#circle4">DICTION</textPath></text>
  <line transform="rotate(126 0,0)" x1="-400" x2="-300" y1="0" y2="0" class="line4"/>
  <text transform="rotate(131 0,0)" class="text4"><textPath href="#circle4">ACCENT</textPath></text>
  <line transform="rotate(172 0,0)" x1="-400" x2="-300" y1="0" y2="0" class="line4"/>
  <text transform="rotate(178 0,0)" class="text4"><textPath href="#circle4">ELECT</textPath></text>
  <line transform="rotate(211 0,0)" x1="-400" x2="-300" y1="0" y2="0" class="line4"/>
  <text transform="rotate(217 0,0)" class="text4"><textPath href="#circle4">BROTH</textPath></text>
  <line transform="rotate(252 0,0)" x1="-400" x2="-300" y1="0" y2="0" class="line4"/>
  <text transform="rotate(258 0,0)" class="text4"><textPath href="#circle4">FICTION</textPath></text>
  <line transform="rotate(298 0,0)" x1="-400" x2="-300" y1="0" y2="0" class="line4"/>
  <text transform="rotate(303 0,0)" class="text4"><textPath href="#circle4">RHONE</textPath></text>
  <line transform="rotate(340 0,0)" x1="-400" x2="-300" y1="0" y2="0" class="line4"/>
  <text transform="rotate(346 0,0)" class="text4"><textPath href="#circle4">ACCEPT</textPath></text>

  <!-- Fifth circle -->
  <line transform="rotate(22 0,0)" x1="-500" x2="-400" y1="0" y2="0" class="line5"/>
  <text transform="rotate(25 0,0)" class="text5"><textPath href="#circle5">PRIMORDIAL</textPath></text>
  <line transform="rotate(69 0,0)" x1="-500" x2="-400" y1="0" y2="0" class="line5"/>
  <text transform="rotate(72 0,0)" class="text5"><textPath href="#circle5">CHOOSE</textPath></text>
  <line transform="rotate(104 0,0)" x1="-500" x2="-400" y1="0" y2="0" class="line5"/>
  <text transform="rotate(108 0,0)" class="text5"><textPath href="#circle5">BOOTH</textPath></text>
  <line transform="rotate(134 0,0)" x1="-500" x2="-400" y1="0" y2="0" class="line5"/>
  <text transform="rotate(138 0,0)" class="text5"><textPath href="#circle5">SELECT</textPath></text>
  <line transform="rotate(167 0,0)" x1="-500" x2="-400" y1="0" y2="0" class="line5"/>
  <text transform="rotate(170 0,0)" class="text5"><textPath href="#circle5">FRICTION</textPath></text>
  <line transform="rotate(205 0,0)" x1="-500" x2="-400" y1="0" y2="0" class="line5"/>
  <text transform="rotate(208 0,0)" class="text5"><textPath href="#circle5">CHOSE</textPath></text>
  <line transform="rotate(234 0,0)" x1="-500" x2="-400" y1="0" y2="0" class="line5"/>
  <text transform="rotate(238 0,0)" class="text5"><textPath href="#circle5">ROOF</textPath></text>
  <line transform="rotate(260 0,0)" x1="-500" x2="-400" y1="0" y2="0" class="line5"/>
  <text transform="rotate(263 0,0)" class="text5"><textPath href="#circle5">COEFFICIENT</textPath></text>
  <line transform="rotate(311 0,0)" x1="-500" x2="-400" y1="0" y2="0" class="line5"/>
  <text transform="rotate(314 0,0)" class="text5"><textPath href="#circle5">THEOREM</textPath></text>
  <line transform="rotate(350 0,0)" x1="-500" x2="-400" y1="0" y2="0" class="line5"/>
  <text transform="rotate(353 0,0)" class="text5"><textPath href="#circle5">BISHOP</textPath></text>

</svg>
