  <svg width="500" height="500" viewBox="-550 -550 1100 1100" xmlns="http://www.w3.org/2000/svg">
  <style>
    .text1 { fill: black; font: 50px sans-serif; }
    .text2 { fill: white; font: 50px sans-serif; }
    .line2 { stroke: white; stroke-width:5; }
    .text3 { fill: black; font: 50px sans-serif; }
    .line3 { stroke: black; stroke-width:5; }
    .text4 { fill: white; font: 50px sans-serif; }
    .line4 { stroke: white; stroke-width:5; }
    .text5 { fill: black; font: 50px sans-serif; }
    .line5 { stroke: black; stroke-width:5; }
  </style>

  <circle cx="0" cy="0" r="505" fill="black" />
  <circle cx="0" cy="0" r="500" fill="white" />
  <circle cx="0" cy="0" r="400" fill="black" />
  <circle cx="0" cy="0" r="300" fill="white" />
  <circle cx="0" cy="0" r="200" fill="black" />
  <circle cx="0" cy="0" r="100" fill="white" />
  <line x1="-415" y1="-415" x2="-390" y2="-390" stroke="black" stroke-width="20"/>
  <polygon points="-375 -415, -415 -375, -360 -360" />

  <path id="circle2" fill="transparent"
      d="
      M 0 0
      m -130, 0
      a 130,130 0 1,1 260,0
      a 130,130 0 1,1 -260,0
      "
  />
  <path id="circle3" fill="transparent"
      d="
      M 0 0
      m -230, 0
      a 230,230 0 1,1 460,0
      a 230,230 0 1,1 -460,0
      "
  />
  <path id="circle4" fill="transparent"
      d="
      M 0 0
      m -330, 0
      a 330,330 0 1,1 660,0
      a 330,330 0 1,1 -660,0
      "
  />
  <path id="circle5" fill="transparent"
      d="
      M 0 0
      m -430, 0
      a 430,430 0 1,1 860,0
      a 430,430 0 1,1 -860,0
      "
  />

  <!-- First circle -->
  <text x="0" y="0" dominant-baseline="middle" text-anchor="middle" class="text1">ROOM</text>

  <!-- Second circle -->
  <line transform="rotate(-24 0,0)" x1="-200" x2="-100" y1="0" y2="0" class="line2"/>
  <text transform="rotate(-11 0,0)" class="text2"><textPath href="#circle2">PRIMATE</textPath></text>
  <line transform="rotate(103 0,0)" x1="-200" x2="-100" y1="0" y2="0" class="line2"/>
  <text transform="rotate(116 0,0)" class="text2"><textPath href="#circle2">MANGA</textPath></text>
  <line transform="rotate(212 0,0)" x1="-200" x2="-100" y1="0" y2="0" class="line2"/>
  <text transform="rotate(226 0,0)" class="text2"><textPath href="#circle2">TALKING</textPath></text>

  <!-- Third circle -->
  <line transform="rotate(23 0,0)" x1="-300" x2="-200" y1="0" y2="0" class="line3"/>
  <text transform="rotate(30 0,0)" class="text3"><textPath href="#circle3">SALON</textPath></text>
  <line transform="rotate(80 0,0)" x1="-300" x2="-200" y1="0" y2="0" class="line3"/>
  <text transform="rotate(88 0,0)" class="text3"><textPath href="#circle3">REAGENTS</textPath></text>
  <line transform="rotate(163 0,0)" x1="-300" x2="-200" y1="0" y2="0" class="line3"/>
  <text transform="rotate(171 0,0)" class="text3"><textPath href="#circle3">WAY</textPath></text>
  <line transform="rotate(207 0,0)" x1="-300" x2="-200" y1="0" y2="0" class="line3"/>
  <text transform="rotate(215 0,0)" class="text3"><textPath href="#circle3">MANTA</textPath></text>
  <line transform="rotate(266 0,0)" x1="-300" x2="-200" y1="0" y2="0" class="line3"/>
  <text transform="rotate(274 0,0)" class="text3"><textPath href="#circle3">CHIMP</textPath></text>
  <line transform="rotate(321 0,0)" x1="-300" x2="-200" y1="0" y2="0" class="line3"/>
  <text transform="rotate(329 0,0)" class="text3"><textPath href="#circle3">TAKING</textPath></text>

  <!-- Fourth circle -->
  <line transform="rotate(-19 0,0)" x1="-400" x2="-300" y1="0" y2="0" class="line4"/>
  <text transform="rotate(-13 0,0)" class="text4"><textPath href="#circle4">RAY</textPath></text>
  <line transform="rotate(11 0,0)" x1="-400" x2="-300" y1="0" y2="0" class="line4"/>
  <text transform="rotate(17 0,0)" class="text4"><textPath href="#circle4">ANGLO</textPath></text>
  <line transform="rotate(53 0,0)" x1="-400" x2="-300" y1="0" y2="0" class="line4"/>
  <text transform="rotate(59 0,0)" class="text4"><textPath href="#circle4">SERGEANT</textPath></text>
  <line transform="rotate(113 0,0)" x1="-400" x2="-300" y1="0" y2="0" class="line4"/>
  <text transform="rotate(119 0,0)" class="text4"><textPath href="#circle4">CHIPS</textPath></text>
  <line transform="rotate(152 0,0)" x1="-400" x2="-300" y1="0" y2="0" class="line4"/>
  <text transform="rotate(158 0,0)" class="text4"><textPath href="#circle4">GIVING</textPath></text>
  <line transform="rotate(195 0,0)" x1="-400" x2="-300" y1="0" y2="0" class="line4"/>
  <text transform="rotate(201 0,0)" class="text4"><textPath href="#circle4">LIVING</textPath></text>
  <line transform="rotate(235 0,0)" x1="-400" x2="-300" y1="0" y2="0" class="line4"/>
  <text transform="rotate(241 0,0)" class="text4"><textPath href="#circle4">SALMON</textPath></text>
  <line transform="rotate(284 0,0)" x1="-400" x2="-300" y1="0" y2="0" class="line4"/>
  <text transform="rotate(290 0,0)" class="text4"><textPath href="#circle4">DISTANCE</textPath></text>

  <!-- Fifth circle -->
  <line transform="rotate(25 0,0)" x1="-500" x2="-400" y1="0" y2="0" class="line5"/>
  <text transform="rotate(28 0,0)" class="text5"><textPath href="#circle5">REACTION</textPath></text>
  <line transform="rotate(66 0,0)" x1="-500" x2="-400" y1="0" y2="0" class="line5"/>
  <text transform="rotate(70 0,0)" class="text5"><textPath href="#circle5">MANGO</textPath></text>
  <line transform="rotate(98 0,0)" x1="-500" x2="-400" y1="0" y2="0" class="line5"/>
  <text transform="rotate(102 0,0)" class="text5"><textPath href="#circle5">WALKING</textPath></text>
  <line transform="rotate(137 0,0)" x1="-500" x2="-400" y1="0" y2="0" class="line5"/>
  <text transform="rotate(140 0,0)" class="text5"><textPath href="#circle5">FISH</textPath></text>
  <line transform="rotate(159 0,0)" x1="-500" x2="-400" y1="0" y2="0" class="line5"/>
  <text transform="rotate(163 0,0)" class="text5"><textPath href="#circle5">ALONG</textPath></text>
  <line transform="rotate(190 0,0)" x1="-500" x2="-400" y1="0" y2="0" class="line5"/>
  <text transform="rotate(193 0,0)" class="text5"><textPath href="#circle5">SAXON</textPath></text>
  <line transform="rotate(220 0,0)" x1="-500" x2="-400" y1="0" y2="0" class="line5"/>
  <text transform="rotate(224 0,0)" class="text5"><textPath href="#circle5">CHIP</textPath></text>
  <line transform="rotate(243 0,0)" x1="-500" x2="-400" y1="0" y2="0" class="line5"/>
  <text transform="rotate(247 0,0)" class="text5"><textPath href="#circle5">PRIVATE</textPath></text>
  <line transform="rotate(279 0,0)" x1="-500" x2="-400" y1="0" y2="0" class="line5"/>
  <text transform="rotate(282 0,0)" class="text5"><textPath href="#circle5">MILK</textPath></text>
  <line transform="rotate(302 0,0)" x1="-500" x2="-400" y1="0" y2="0" class="line5"/>
  <text transform="rotate(305 0,0)" class="text5"><textPath href="#circle5">AMONG</textPath></text>
  <line transform="rotate(334 0,0)" x1="-500" x2="-400" y1="0" y2="0" class="line5"/>
  <text transform="rotate(338 0,0)" class="text5"><textPath href="#circle5">MILKY</textPath></text>
  <line transform="rotate(2 0,0)" x1="-500" x2="-400" y1="0" y2="0" class="line5"/>
  <text transform="rotate(5 0,0)" class="text5"><textPath href="#circle5">MILE</textPath></text>

</svg>
