  <svg width="500" height="500" viewBox="-550 -550 1100 1100" xmlns="http://www.w3.org/2000/svg">
  <style>
    .text1 { fill: black; font: 50px sans-serif; }
    .text2 { fill: white; font: 50px sans-serif; }
    .line2 { stroke: white; stroke-width:5; }
    .text3 { fill: black; font: 50px sans-serif; }
    .line3 { stroke: black; stroke-width:5; }
    .text4 { fill: white; font: 50px sans-serif; }
    .line4 { stroke: white; stroke-width:5; }
    .text5 { fill: black; font: 50px sans-serif; }
    .line5 { stroke: black; stroke-width:5; }
  </style>

  <circle cx="0" cy="0" r="505" fill="black" />
  <circle cx="0" cy="0" r="500" fill="white" />
  <circle cx="0" cy="0" r="400" fill="black" />
  <circle cx="0" cy="0" r="300" fill="white" />
  <circle cx="0" cy="0" r="200" fill="black" />
  <circle cx="0" cy="0" r="100" fill="white" />
  <line x1="-415" y1="-415" x2="-390" y2="-390" stroke="black" stroke-width="20"/>
  <polygon points="-375 -415, -415 -375, -360 -360" />

  <path id="circle2" fill="transparent"
      d="
      M 0 0
      m -130, 0
      a 130,130 0 1,1 260,0
      a 130,130 0 1,1 -260,0
      "
  />
  <path id="circle3" fill="transparent"
      d="
      M 0 0
      m -230, 0
      a 230,230 0 1,1 460,0
      a 230,230 0 1,1 -460,0
      "
  />
  <path id="circle4" fill="transparent"
      d="
      M 0 0
      m -330, 0
      a 330,330 0 1,1 660,0
      a 330,330 0 1,1 -660,0
      "
  />
  <path id="circle5" fill="transparent"
      d="
      M 0 0
      m -430, 0
      a 430,430 0 1,1 860,0
      a 430,430 0 1,1 -860,0
      "
  />

  <!-- First circle -->
  <text x="0" y="0" dominant-baseline="middle" text-anchor="middle" class="text1">RODS</text>

  <!-- Second circle -->
  <line transform="rotate(-16 0,0)" x1="-200" x2="-100" y1="0" y2="0" class="line2"/>
  <text transform="rotate(5 0,0)" class="text2"><textPath href="#circle2">LEMON</textPath></text>
  <line transform="rotate(107 0,0)" x1="-200" x2="-100" y1="0" y2="0" class="line2"/>
  <text transform="rotate(129 0,0)" class="text2"><textPath href="#circle2">REST</textPath></text>
  <line transform="rotate(211 0,0)" x1="-200" x2="-100" y1="0" y2="0" class="line2"/>
  <text transform="rotate(233 0,0)" class="text2"><textPath href="#circle2">SUMMIT</textPath></text>

  <!-- Third circle -->
  <line transform="rotate(40 0,0)" x1="-300" x2="-200" y1="0" y2="0" class="line3"/>
  <text transform="rotate(47 0,0)" class="text3"><textPath href="#circle3">ANGER</textPath></text>
  <line transform="rotate(97 0,0)" x1="-300" x2="-200" y1="0" y2="0" class="line3"/>
  <text transform="rotate(105 0,0)" class="text3"><textPath href="#circle3">DEMON</textPath></text>
  <line transform="rotate(157 0,0)" x1="-300" x2="-200" y1="0" y2="0" class="line3"/>
  <text transform="rotate(164 0,0)" class="text3"><textPath href="#circle3">PREPOSE</textPath></text>
  <line transform="rotate(231 0,0)" x1="-300" x2="-200" y1="0" y2="0" class="line3"/>
  <text transform="rotate(238 0,0)" class="text3"><textPath href="#circle3">ARMSTRONG</textPath></text>
  <line transform="rotate(325 0,0)" x1="-300" x2="-200" y1="0" y2="0" class="line3"/>
  <text transform="rotate(332 0,0)" class="text3"><textPath href="#circle3">PROPOSE</textPath></text>

  <!-- Fourth circle -->
  <line transform="rotate(24 0,0)" x1="-400" x2="-300" y1="0" y2="0" class="line4"/>
  <text transform="rotate(32 0,0)" class="text4"><textPath href="#circle4">SPECTRUM</textPath></text>
  <line transform="rotate(89 0,0)" x1="-400" x2="-300" y1="0" y2="0" class="line4"/>
  <text transform="rotate(98 0,0)" class="text4"><textPath href="#circle4">CONES</textPath></text>
  <line transform="rotate(137 0,0)" x1="-400" x2="-300" y1="0" y2="0" class="line4"/>
  <text transform="rotate(146 0,0)" class="text4"><textPath href="#circle4">MUTISM</textPath></text>
  <line transform="rotate(189 0,0)" x1="-400" x2="-300" y1="0" y2="0" class="line4"/>
  <text transform="rotate(197 0,0)" class="text4"><textPath href="#circle4">SINE</textPath></text>
  <line transform="rotate(226 0,0)" x1="-400" x2="-300" y1="0" y2="0" class="line4"/>
  <text transform="rotate(234 0,0)" class="text4"><textPath href="#circle4">LINE</textPath></text>
  <line transform="rotate(262 0,0)" x1="-400" x2="-300" y1="0" y2="0" class="line4"/>
  <text transform="rotate(270 0,0)" class="text4"><textPath href="#circle4">ZEST</textPath></text>
  <line transform="rotate(301 0,0)" x1="-400" x2="-300" y1="0" y2="0" class="line4"/>
  <text transform="rotate(309 0,0)" class="text4"><textPath href="#circle4">NEIL</textPath></text>
  <line transform="rotate(337 0,0)" x1="-400" x2="-300" y1="0" y2="0" class="line4"/>
  <text transform="rotate(346 0,0)" class="text4"><textPath href="#circle4">ANGEL</textPath></text>

  <!-- Fifth circle -->
  <line transform="rotate(17 0,0)" x1="-500" x2="-400" y1="0" y2="0" class="line5"/>
  <text transform="rotate(21 0,0)" class="text5"><textPath href="#circle5">MANAGEMENT</textPath></text>
  <line transform="rotate(73 0,0)" x1="-500" x2="-400" y1="0" y2="0" class="line5"/>
  <text transform="rotate(78 0,0)" class="text5"><textPath href="#circle5">AUTISM</textPath></text>
  <line transform="rotate(107 0,0)" x1="-500" x2="-400" y1="0" y2="0" class="line5"/>
  <text transform="rotate(112 0,0)" class="text5"><textPath href="#circle5">COSINE</textPath></text>
  <line transform="rotate(142 0,0)" x1="-500" x2="-400" y1="0" y2="0" class="line5"/>
  <text transform="rotate(146 0,0)" class="text5"><textPath href="#circle5">CRUMPET</textPath></text>
  <line transform="rotate(184 0,0)" x1="-500" x2="-400" y1="0" y2="0" class="line5"/>
  <text transform="rotate(188 0,0)" class="text5"><textPath href="#circle5">REPOSE</textPath></text>
  <line transform="rotate(220 0,0)" x1="-500" x2="-400" y1="0" y2="0" class="line5"/>
  <text transform="rotate(225 0,0)" class="text5"><textPath href="#circle5">SUBMIT</textPath></text>
  <line transform="rotate(255 0,0)" x1="-500" x2="-400" y1="0" y2="0" class="line5"/>
  <text transform="rotate(259 0,0)" class="text5"><textPath href="#circle5">TRUMPET</textPath></text>
  <line transform="rotate(296 0,0)" x1="-500" x2="-400" y1="0" y2="0" class="line5"/>
  <text transform="rotate(300 0,0)" class="text5"><textPath href="#circle5">CRUMPETS</textPath></text>
  <line transform="rotate(342 0,0)" x1="-500" x2="-400" y1="0" y2="0" class="line5"/>
  <text transform="rotate(346 0,0)" class="text5"><textPath href="#circle5">CONIES</textPath></text>

</svg>
