  <svg width="500" height="500" viewBox="-550 -550 1100 1100" xmlns="http://www.w3.org/2000/svg">
  <style>
    .text1 { fill: black; font: 50px sans-serif; }
    .text2 { fill: white; font: 50px sans-serif; }
    .line2 { stroke: white; stroke-width:5; }
    .text3 { fill: black; font: 50px sans-serif; }
    .line3 { stroke: black; stroke-width:5; }
    .text4 { fill: white; font: 50px sans-serif; }
    .line4 { stroke: white; stroke-width:5; }
    .text5 { fill: black; font: 50px sans-serif; }
    .line5 { stroke: black; stroke-width:5; }
  </style>

  <circle cx="0" cy="0" r="505" fill="black" />
  <circle cx="0" cy="0" r="500" fill="white" />
  <circle cx="0" cy="0" r="400" fill="black" />
  <circle cx="0" cy="0" r="300" fill="white" />
  <circle cx="0" cy="0" r="200" fill="black" />
  <circle cx="0" cy="0" r="100" fill="white" />
  <line x1="-415" y1="-415" x2="-390" y2="-390" stroke="black" stroke-width="20"/>
  <polygon points="-375 -415, -415 -375, -360 -360" />

  <path id="circle2" fill="transparent"
      d="
      M 0 0
      m -130, 0
      a 130,130 0 1,1 260,0
      a 130,130 0 1,1 -260,0
      "
  />
  <path id="circle3" fill="transparent"
      d="
      M 0 0
      m -230, 0
      a 230,230 0 1,1 460,0
      a 230,230 0 1,1 -460,0
      "
  />
  <path id="circle4" fill="transparent"
      d="
      M 0 0
      m -330, 0
      a 330,330 0 1,1 660,0
      a 330,330 0 1,1 -660,0
      "
  />
  <path id="circle5" fill="transparent"
      d="
      M 0 0
      m -430, 0
      a 430,430 0 1,1 860,0
      a 430,430 0 1,1 -860,0
      "
  />

  <!-- First circle -->
  <text x="0" y="0" dominant-baseline="middle" text-anchor="middle" class="text1">EYE</text>

  <!-- Second circle -->
  <line transform="rotate(15 0,0)" x1="-200" x2="-100" y1="0" y2="0" class="line2"/>
  <text transform="rotate(26 0,0)" class="text2"><textPath href="#circle2">CANCER</textPath></text>
  <line transform="rotate(133 0,0)" x1="-200" x2="-100" y1="0" y2="0" class="line2"/>
  <text transform="rotate(145 0,0)" class="text2"><textPath href="#circle2">PUNCHER</textPath></text>
  <line transform="rotate(268 0,0)" x1="-200" x2="-100" y1="0" y2="0" class="line2"/>
  <text transform="rotate(280 0,0)" class="text2"><textPath href="#circle2">AFRICA</textPath></text>

  <!-- Third circle -->
  <line transform="rotate(26 0,0)" x1="-300" x2="-200" y1="0" y2="0" class="line3"/>
  <text transform="rotate(34 0,0)" class="text3"><textPath href="#circle3">PUNCHIER</textPath></text>
  <line transform="rotate(106 0,0)" x1="-300" x2="-200" y1="0" y2="0" class="line3"/>
  <text transform="rotate(114 0,0)" class="text3"><textPath href="#circle3">BONE</textPath></text>
  <line transform="rotate(157 0,0)" x1="-300" x2="-200" y1="0" y2="0" class="line3"/>
  <text transform="rotate(166 0,0)" class="text3"><textPath href="#circle3">TUMOR</textPath></text>
  <line transform="rotate(219 0,0)" x1="-300" x2="-200" y1="0" y2="0" class="line3"/>
  <text transform="rotate(227 0,0)" class="text3"><textPath href="#circle3">RUMOR</textPath></text>
  <line transform="rotate(282 0,0)" x1="-300" x2="-200" y1="0" y2="0" class="line3"/>
  <text transform="rotate(290 0,0)" class="text3"><textPath href="#circle3">MADAGASCAR</textPath></text>

  <!-- Fourth circle -->
  <line transform="rotate(34 0,0)" x1="-400" x2="-300" y1="0" y2="0" class="line4"/>
  <text transform="rotate(42 0,0)" class="text4"><textPath href="#circle4">CONTINENT</textPath></text>
  <line transform="rotate(101 0,0)" x1="-400" x2="-300" y1="0" y2="0" class="line4"/>
  <text transform="rotate(109 0,0)" class="text4"><textPath href="#circle4">BOXES</textPath></text>
  <line transform="rotate(148 0,0)" x1="-400" x2="-300" y1="0" y2="0" class="line4"/>
  <text transform="rotate(156 0,0)" class="text4"><textPath href="#circle4">FEMUR</textPath></text>
  <line transform="rotate(195 0,0)" x1="-400" x2="-300" y1="0" y2="0" class="line4"/>
  <text transform="rotate(204 0,0)" class="text4"><textPath href="#circle4">RAUNCHIER</textPath></text>
  <line transform="rotate(264 0,0)" x1="-400" x2="-300" y1="0" y2="0" class="line4"/>
  <text transform="rotate(272 0,0)" class="text4"><textPath href="#circle4">CHANCE</textPath></text>
  <line transform="rotate(317 0,0)" x1="-400" x2="-300" y1="0" y2="0" class="line4"/>
  <text transform="rotate(326 0,0)" class="text4"><textPath href="#circle4">CONDITIONAL</textPath></text>

  <!-- Fifth circle -->
  <line transform="rotate(26 0,0)" x1="-500" x2="-400" y1="0" y2="0" class="line5"/>
  <text transform="rotate(29 0,0)" class="text5"><textPath href="#circle5">HEARSAY</textPath></text>
  <line transform="rotate(64 0,0)" x1="-500" x2="-400" y1="0" y2="0" class="line5"/>
  <text transform="rotate(67 0,0)" class="text5"><textPath href="#circle5">PROBABILITY</textPath></text>
  <line transform="rotate(114 0,0)" x1="-500" x2="-400" y1="0" y2="0" class="line5"/>
  <text transform="rotate(118 0,0)" class="text5"><textPath href="#circle5">PAUNCHIER</textPath></text>
  <line transform="rotate(160 0,0)" x1="-500" x2="-400" y1="0" y2="0" class="line5"/>
  <text transform="rotate(163 0,0)" class="text5"><textPath href="#circle5">BOXER</textPath></text>
  <line transform="rotate(190 0,0)" x1="-500" x2="-400" y1="0" y2="0" class="line5"/>
  <text transform="rotate(193 0,0)" class="text5"><textPath href="#circle5">LEMUR</textPath></text>
  <line transform="rotate(220 0,0)" x1="-500" x2="-400" y1="0" y2="0" class="line5"/>
  <text transform="rotate(223 0,0)" class="text5"><textPath href="#circle5">BONES</textPath></text>
  <line transform="rotate(250 0,0)" x1="-500" x2="-400" y1="0" y2="0" class="line5"/>
  <text transform="rotate(253 0,0)" class="text5"><textPath href="#circle5">CONTINGENT</textPath></text>
  <line transform="rotate(300 0,0)" x1="-500" x2="-400" y1="0" y2="0" class="line5"/>
  <text transform="rotate(303 0,0)" class="text5"><textPath href="#circle5">CHANCER</textPath></text>
  <line transform="rotate(340 0,0)" x1="-500" x2="-400" y1="0" y2="0" class="line5"/>
  <text transform="rotate(343 0,0)" class="text5"><textPath href="#circle5">HURRICANE</textPath></text>

</svg>
