  <svg width="500" height="500" viewBox="-550 -550 1100 1100" xmlns="http://www.w3.org/2000/svg">
  <style>
    .text1 { fill: black; font: 50px sans-serif; }
    .text2 { fill: white; font: 50px sans-serif; }
    .line2 { stroke: white; stroke-width:5; }
    .text3 { fill: black; font: 50px sans-serif; }
    .line3 { stroke: black; stroke-width:5; }
    .text4 { fill: white; font: 50px sans-serif; }
    .line4 { stroke: white; stroke-width:5; }
    .text5 { fill: black; font: 50px sans-serif; }
    .line5 { stroke: black; stroke-width:5; }
  </style>

  <circle cx="0" cy="0" r="505" fill="black" />
  <circle cx="0" cy="0" r="500" fill="white" />
  <circle cx="0" cy="0" r="400" fill="black" />
  <circle cx="0" cy="0" r="300" fill="white" />
  <circle cx="0" cy="0" r="200" fill="black" />
  <circle cx="0" cy="0" r="100" fill="white" />
  <line x1="-415" y1="-415" x2="-390" y2="-390" stroke="black" stroke-width="20"/>
  <polygon points="-375 -415, -415 -375, -360 -360" />

  <path id="circle2" fill="transparent"
      d="
      M 0 0
      m -130, 0
      a 130,130 0 1,1 260,0
      a 130,130 0 1,1 -260,0
      "
  />
  <path id="circle3" fill="transparent"
      d="
      M 0 0
      m -230, 0
      a 230,230 0 1,1 460,0
      a 230,230 0 1,1 -460,0
      "
  />
  <path id="circle4" fill="transparent"
      d="
      M 0 0
      m -330, 0
      a 330,330 0 1,1 660,0
      a 330,330 0 1,1 -660,0
      "
  />
  <path id="circle5" fill="transparent"
      d="
      M 0 0
      m -430, 0
      a 430,430 0 1,1 860,0
      a 430,430 0 1,1 -860,0
      "
  />

  <!-- First circle -->
  <text x="0" y="0" dominant-baseline="middle" text-anchor="middle" class="text1">WORD</text>

  <!-- Second circle -->
  <line transform="rotate(6 0,0)" x1="-200" x2="-100" y1="0" y2="0" class="line2"/>
  <text transform="rotate(18 0,0)" class="text2"><textPath href="#circle2">HELIO</textPath></text>
  <line transform="rotate(97 0,0)" x1="-200" x2="-100" y1="0" y2="0" class="line2"/>
  <text transform="rotate(109 0,0)" class="text2"><textPath href="#circle2">FALL</textPath></text>
  <line transform="rotate(175 0,0)" x1="-200" x2="-100" y1="0" y2="0" class="line2"/>
  <text transform="rotate(187 0,0)" class="text2"><textPath href="#circle2">GOAL</textPath></text>
  <line transform="rotate(261 0,0)" x1="-200" x2="-100" y1="0" y2="0" class="line2"/>
  <text transform="rotate(273 0,0)" class="text2"><textPath href="#circle2">ARSON</textPath></text>

  <!-- Third circle -->
  <line transform="rotate(-2 0,0)" x1="-300" x2="-200" y1="0" y2="0" class="line3"/>
  <text transform="rotate(4 0,0)" class="text3"><textPath href="#circle3">HELIX</textPath></text>
  <line transform="rotate(46 0,0)" x1="-300" x2="-200" y1="0" y2="0" class="line3"/>
  <text transform="rotate(52 0,0)" class="text3"><textPath href="#circle3">SUN</textPath></text>
  <line transform="rotate(85 0,0)" x1="-300" x2="-200" y1="0" y2="0" class="line3"/>
  <text transform="rotate(91 0,0)" class="text3"><textPath href="#circle3">INTESTINE</textPath></text>
  <line transform="rotate(162 0,0)" x1="-300" x2="-200" y1="0" y2="0" class="line3"/>
  <text transform="rotate(168 0,0)" class="text3"><textPath href="#circle3">WILL</textPath></text>
  <line transform="rotate(203 0,0)" x1="-300" x2="-200" y1="0" y2="0" class="line3"/>
  <text transform="rotate(210 0,0)" class="text3"><textPath href="#circle3">WOOD</textPath></text>
  <line transform="rotate(255 0,0)" x1="-300" x2="-200" y1="0" y2="0" class="line3"/>
  <text transform="rotate(262 0,0)" class="text3"><textPath href="#circle3">GOAT</textPath></text>
  <line transform="rotate(303 0,0)" x1="-300" x2="-200" y1="0" y2="0" class="line3"/>
  <text transform="rotate(310 0,0)" class="text3"><textPath href="#circle3">LARGE</textPath></text>

  <!-- Fourth circle -->
  <line transform="rotate(-7 0,0)" x1="-400" x2="-300" y1="0" y2="0" class="line4"/>
  <text transform="rotate(-2 0,0)" class="text4"><textPath href="#circle4">DOUBLE</textPath></text>
  <line transform="rotate(40 0,0)" x1="-400" x2="-300" y1="0" y2="0" class="line4"/>
  <text transform="rotate(46 0,0)" class="text4"><textPath href="#circle4">BOAT</textPath></text>
  <line transform="rotate(75 0,0)" x1="-400" x2="-300" y1="0" y2="0" class="line4"/>
  <text transform="rotate(81 0,0)" class="text4"><textPath href="#circle4">ORGAN</textPath></text>
  <line transform="rotate(119 0,0)" x1="-400" x2="-300" y1="0" y2="0" class="line4"/>
  <text transform="rotate(124 0,0)" class="text4"><textPath href="#circle4">WALL</textPath></text>
  <line transform="rotate(154 0,0)" x1="-400" x2="-300" y1="0" y2="0" class="line4"/>
  <text transform="rotate(160 0,0)" class="text4"><textPath href="#circle4">SONAR</textPath></text>
  <line transform="rotate(196 0,0)" x1="-400" x2="-300" y1="0" y2="0" class="line4"/>
  <text transform="rotate(202 0,0)" class="text4"><textPath href="#circle4">STUNT</textPath></text>
  <line transform="rotate(237 0,0)" x1="-400" x2="-300" y1="0" y2="0" class="line4"/>
  <text transform="rotate(243 0,0)" class="text4"><textPath href="#circle4">CELLO</textPath></text>
  <line transform="rotate(277 0,0)" x1="-400" x2="-300" y1="0" y2="0" class="line4"/>
  <text transform="rotate(283 0,0)" class="text4"><textPath href="#circle4">CELL</textPath></text>
  <line transform="rotate(310 0,0)" x1="-400" x2="-300" y1="0" y2="0" class="line4"/>
  <text transform="rotate(316 0,0)" class="text4"><textPath href="#circle4">BARGE</textPath></text>

  <!-- Fifth circle -->
  <line transform="rotate(28 0,0)" x1="-500" x2="-400" y1="0" y2="0" class="line5"/>
  <text transform="rotate(32 0,0)" class="text5"><textPath href="#circle5">TARGET</textPath></text>
  <line transform="rotate(63 0,0)" x1="-500" x2="-400" y1="0" y2="0" class="line5"/>
  <text transform="rotate(68 0,0)" class="text5"><textPath href="#circle5">ARGON</textPath></text>
  <line transform="rotate(96 0,0)" x1="-500" x2="-400" y1="0" y2="0" class="line5"/>
  <text transform="rotate(101 0,0)" class="text5"><textPath href="#circle5">SOLAR</textPath></text>
  <line transform="rotate(128 0,0)" x1="-500" x2="-400" y1="0" y2="0" class="line5"/>
  <text transform="rotate(132 0,0)" class="text5"><textPath href="#circle5">FINISH</textPath></text>
  <line transform="rotate(159 0,0)" x1="-500" x2="-400" y1="0" y2="0" class="line5"/>
  <text transform="rotate(163 0,0)" class="text5"><textPath href="#circle5">HELLO</textPath></text>
  <line transform="rotate(190 0,0)" x1="-500" x2="-400" y1="0" y2="0" class="line5"/>
  <text transform="rotate(194 0,0)" class="text5"><textPath href="#circle5">MILL</textPath></text>
  <line transform="rotate(214 0,0)" x1="-500" x2="-400" y1="0" y2="0" class="line5"/>
  <text transform="rotate(218 0,0)" class="text5"><textPath href="#circle5">STUART</textPath></text>
  <line transform="rotate(249 0,0)" x1="-500" x2="-400" y1="0" y2="0" class="line5"/>
  <text transform="rotate(253 0,0)" class="text5"><textPath href="#circle5">SOLSTICE</textPath></text>
  <line transform="rotate(291 0,0)" x1="-500" x2="-400" y1="0" y2="0" class="line5"/>
  <text transform="rotate(295 0,0)" class="text5"><textPath href="#circle5">STUN</textPath></text>
  <line transform="rotate(318 0,0)" x1="-500" x2="-400" y1="0" y2="0" class="line5"/>
  <text transform="rotate(322 0,0)" class="text5"><textPath href="#circle5">START</textPath></text>
  <line transform="rotate(348 0,0)" x1="-500" x2="-400" y1="0" y2="0" class="line5"/>
  <text transform="rotate(352 0,0)" class="text5"><textPath href="#circle5">EQUINOX</textPath></text>

</svg>
