  <svg width="500" height="500" viewBox="-550 -550 1100 1100" xmlns="http://www.w3.org/2000/svg">
  <style>
    .text1 { fill: black; font: 50px sans-serif; }
    .text2 { fill: white; font: 50px sans-serif; }
    .line2 { stroke: white; stroke-width:5; }
    .text3 { fill: black; font: 50px sans-serif; }
    .line3 { stroke: black; stroke-width:5; }
    .text4 { fill: white; font: 50px sans-serif; }
    .line4 { stroke: white; stroke-width:5; }
    .text5 { fill: black; font: 50px sans-serif; }
    .line5 { stroke: black; stroke-width:5; }
  </style>

  <circle cx="0" cy="0" r="505" fill="black" />
  <circle cx="0" cy="0" r="500" fill="white" />
  <circle cx="0" cy="0" r="400" fill="black" />
  <circle cx="0" cy="0" r="300" fill="white" />
  <circle cx="0" cy="0" r="200" fill="black" />
  <circle cx="0" cy="0" r="100" fill="white" />
  <line x1="-415" y1="-415" x2="-390" y2="-390" stroke="black" stroke-width="20"/>
  <polygon points="-375 -415, -415 -375, -360 -360" />

  <path id="circle2" fill="transparent"
      d="
      M 0 0
      m -130, 0
      a 130,130 0 1,1 260,0
      a 130,130 0 1,1 -260,0
      "
  />
  <path id="circle3" fill="transparent"
      d="
      M 0 0
      m -230, 0
      a 230,230 0 1,1 460,0
      a 230,230 0 1,1 -460,0
      "
  />
  <path id="circle4" fill="transparent"
      d="
      M 0 0
      m -330, 0
      a 330,330 0 1,1 660,0
      a 330,330 0 1,1 -660,0
      "
  />
  <path id="circle5" fill="transparent"
      d="
      M 0 0
      m -430, 0
      a 430,430 0 1,1 860,0
      a 430,430 0 1,1 -860,0
      "
  />

  <!-- First circle -->
  <text x="0" y="0" dominant-baseline="middle" text-anchor="middle" class="text1">DOG</text>

  <!-- Second circle -->
  <line transform="rotate(9 0,0)" x1="-200" x2="-100" y1="0" y2="0" class="line2"/>
  <text transform="rotate(25 0,0)" class="text2"><textPath href="#circle2">HEALTH</textPath></text>
  <line transform="rotate(131 0,0)" x1="-200" x2="-100" y1="0" y2="0" class="line2"/>
  <text transform="rotate(148 0,0)" class="text2"><textPath href="#circle2">LOCKET</textPath></text>
  <line transform="rotate(255 0,0)" x1="-200" x2="-100" y1="0" y2="0" class="line2"/>
  <text transform="rotate(271 0,0)" class="text2"><textPath href="#circle2">MAVEN</textPath></text>

  <!-- Third circle -->
  <line transform="rotate(4 0,0)" x1="-300" x2="-200" y1="0" y2="0" class="line3"/>
  <text transform="rotate(11 0,0)" class="text3"><textPath href="#circle3">EARTH</textPath></text>
  <line transform="rotate(61 0,0)" x1="-300" x2="-200" y1="0" y2="0" class="line3"/>
  <text transform="rotate(68 0,0)" class="text3"><textPath href="#circle3">DRAWN</textPath></text>
  <line transform="rotate(122 0,0)" x1="-300" x2="-200" y1="0" y2="0" class="line3"/>
  <text transform="rotate(130 0,0)" class="text3"><textPath href="#circle3">GENUS</textPath></text>
  <line transform="rotate(181 0,0)" x1="-300" x2="-200" y1="0" y2="0" class="line3"/>
  <text transform="rotate(189 0,0)" class="text3"><textPath href="#circle3">BRAIN</textPath></text>
  <line transform="rotate(234 0,0)" x1="-300" x2="-200" y1="0" y2="0" class="line3"/>
  <text transform="rotate(242 0,0)" class="text3"><textPath href="#circle3">ROCKET</textPath></text>
  <line transform="rotate(301 0,0)" x1="-300" x2="-200" y1="0" y2="0" class="line3"/>
  <text transform="rotate(309 0,0)" class="text3"><textPath href="#circle3">GENIUS</textPath></text>

  <!-- Fourth circle -->
  <line transform="rotate(10 0,0)" x1="-400" x2="-300" y1="0" y2="0" class="line4"/>
  <text transform="rotate(15 0,0)" class="text4"><textPath href="#circle4">RAVEN</textPath></text>
  <line transform="rotate(50 0,0)" x1="-400" x2="-300" y1="0" y2="0" class="line4"/>
  <text transform="rotate(56 0,0)" class="text4"><textPath href="#circle4">STEM</textPath></text>
  <line transform="rotate(85 0,0)" x1="-400" x2="-300" y1="0" y2="0" class="line4"/>
  <text transform="rotate(91 0,0)" class="text4"><textPath href="#circle4">TIME</textPath></text>
  <line transform="rotate(117 0,0)" x1="-400" x2="-300" y1="0" y2="0" class="line4"/>
  <text transform="rotate(122 0,0)" class="text4"><textPath href="#circle4">HEALTHY</textPath></text>
  <line transform="rotate(168 0,0)" x1="-400" x2="-300" y1="0" y2="0" class="line4"/>
  <text transform="rotate(173 0,0)" class="text4"><textPath href="#circle4">RAMEN</textPath></text>
  <line transform="rotate(210 0,0)" x1="-400" x2="-300" y1="0" y2="0" class="line4"/>
  <text transform="rotate(216 0,0)" class="text4"><textPath href="#circle4">DRAIN</textPath></text>
  <line transform="rotate(248 0,0)" x1="-400" x2="-300" y1="0" y2="0" class="line4"/>
  <text transform="rotate(254 0,0)" class="text4"><textPath href="#circle4">DOOR</textPath></text>
  <line transform="rotate(285 0,0)" x1="-400" x2="-300" y1="0" y2="0" class="line4"/>
  <text transform="rotate(291 0,0)" class="text4"><textPath href="#circle4">DRAW</textPath></text>
  <line transform="rotate(323 0,0)" x1="-400" x2="-300" y1="0" y2="0" class="line4"/>
  <text transform="rotate(328 0,0)" class="text4"><textPath href="#circle4">HEARTH</textPath></text>

  <!-- Fifth circle -->
  <line transform="rotate(21 0,0)" x1="-500" x2="-400" y1="0" y2="0" class="line5"/>
  <text transform="rotate(25 0,0)" class="text5"><textPath href="#circle5">ILLUSTRATE</textPath></text>
  <line transform="rotate(70 0,0)" x1="-500" x2="-400" y1="0" y2="0" class="line5"/>
  <text transform="rotate(74 0,0)" class="text5"><textPath href="#circle5">VENUS</textPath></text>
  <line transform="rotate(101 0,0)" x1="-500" x2="-400" y1="0" y2="0" class="line5"/>
  <text transform="rotate(105 0,0)" class="text5"><textPath href="#circle5">POODLES</textPath></text>
  <line transform="rotate(142 0,0)" x1="-500" x2="-400" y1="0" y2="0" class="line5"/>
  <text transform="rotate(146 0,0)" class="text5"><textPath href="#circle5">SPACE</textPath></text>
  <line transform="rotate(173 0,0)" x1="-500" x2="-400" y1="0" y2="0" class="line5"/>
  <text transform="rotate(177 0,0)" class="text5"><textPath href="#circle5">POOR</textPath></text>
  <line transform="rotate(201 0,0)" x1="-500" x2="-400" y1="0" y2="0" class="line5"/>
  <text transform="rotate(205 0,0)" class="text5"><textPath href="#circle5">NOODLES</textPath></text>
  <line transform="rotate(243 0,0)" x1="-500" x2="-400" y1="0" y2="0" class="line5"/>
  <text transform="rotate(247 0,0)" class="text5"><textPath href="#circle5">LOCKED</textPath></text>
  <line transform="rotate(279 0,0)" x1="-500" x2="-400" y1="0" y2="0" class="line5"/>
  <text transform="rotate(283 0,0)" class="text5"><textPath href="#circle5">ITEM</textPath></text>
  <line transform="rotate(303 0,0)" x1="-500" x2="-400" y1="0" y2="0" class="line5"/>
  <text transform="rotate(307 0,0)" class="text5"><textPath href="#circle5">POODLE</textPath></text>
  <line transform="rotate(340 0,0)" x1="-500" x2="-400" y1="0" y2="0" class="line5"/>
  <text transform="rotate(344 0,0)" class="text5"><textPath href="#circle5">WEALTHY</textPath></text>

</svg>
