  <svg width="500" height="500" viewBox="-550 -550 1100 1100" xmlns="http://www.w3.org/2000/svg">
  <style>
    .text1 { fill: black; font: 50px sans-serif; }
    .text2 { fill: white; font: 50px sans-serif; }
    .line2 { stroke: white; stroke-width:5; }
    .text3 { fill: black; font: 50px sans-serif; }
    .line3 { stroke: black; stroke-width:5; }
    .text4 { fill: white; font: 50px sans-serif; }
    .line4 { stroke: white; stroke-width:5; }
    .text5 { fill: black; font: 50px sans-serif; }
    .line5 { stroke: black; stroke-width:5; }
  </style>

  <circle cx="0" cy="0" r="505" fill="black" />
  <circle cx="0" cy="0" r="500" fill="white" />
  <circle cx="0" cy="0" r="400" fill="black" />
  <circle cx="0" cy="0" r="300" fill="white" />
  <circle cx="0" cy="0" r="200" fill="black" />
  <circle cx="0" cy="0" r="100" fill="white" />
  <line x1="-415" y1="-415" x2="-390" y2="-390" stroke="black" stroke-width="20"/>
  <polygon points="-375 -415, -415 -375, -360 -360" />

  <path id="circle2" fill="transparent"
      d="
      M 0 0
      m -130, 0
      a 130,130 0 1,1 260,0
      a 130,130 0 1,1 -260,0
      "
  />
  <path id="circle3" fill="transparent"
      d="
      M 0 0
      m -230, 0
      a 230,230 0 1,1 460,0
      a 230,230 0 1,1 -460,0
      "
  />
  <path id="circle4" fill="transparent"
      d="
      M 0 0
      m -330, 0
      a 330,330 0 1,1 660,0
      a 330,330 0 1,1 -660,0
      "
  />
  <path id="circle5" fill="transparent"
      d="
      M 0 0
      m -430, 0
      a 430,430 0 1,1 860,0
      a 430,430 0 1,1 -860,0
      "
  />

  <!-- First circle -->
  <text x="0" y="0" dominant-baseline="middle" text-anchor="middle" class="text1">QUBIT</text>

  <!-- Second circle -->
  <line transform="rotate(-8 0,0)" x1="-200" x2="-100" y1="0" y2="0" class="line2"/>
  <text transform="rotate(4 0,0)" class="text2"><textPath href="#circle2">MARKET</textPath></text>
  <line transform="rotate(111 0,0)" x1="-200" x2="-100" y1="0" y2="0" class="line2"/>
  <text transform="rotate(124 0,0)" class="text2"><textPath href="#circle2">CURRENT</textPath></text>
  <line transform="rotate(247 0,0)" x1="-200" x2="-100" y1="0" y2="0" class="line2"/>
  <text transform="rotate(260 0,0)" class="text2"><textPath href="#circle2">CANDY</textPath></text>

  <!-- Third circle -->
  <line transform="rotate(16 0,0)" x1="-300" x2="-200" y1="0" y2="0" class="line3"/>
  <text transform="rotate(23 0,0)" class="text3"><textPath href="#circle3">MOSS</textPath></text>
  <line transform="rotate(66 0,0)" x1="-300" x2="-200" y1="0" y2="0" class="line3"/>
  <text transform="rotate(73 0,0)" class="text3"><textPath href="#circle3">SAINT</textPath></text>
  <line transform="rotate(117 0,0)" x1="-300" x2="-200" y1="0" y2="0" class="line3"/>
  <text transform="rotate(124 0,0)" class="text3"><textPath href="#circle3">SQUARE</textPath></text>
  <line transform="rotate(183 0,0)" x1="-300" x2="-200" y1="0" y2="0" class="line3"/>
  <text transform="rotate(190 0,0)" class="text3"><textPath href="#circle3">HIND</textPath></text>
  <line transform="rotate(227 0,0)" x1="-300" x2="-200" y1="0" y2="0" class="line3"/>
  <text transform="rotate(235 0,0)" class="text3"><textPath href="#circle3">QUIET</textPath></text>
  <line transform="rotate(279 0,0)" x1="-300" x2="-200" y1="0" y2="0" class="line3"/>
  <text transform="rotate(287 0,0)" class="text3"><textPath href="#circle3">LEGS</textPath></text>
  <line transform="rotate(326 0,0)" x1="-300" x2="-200" y1="0" y2="0" class="line3"/>
  <text transform="rotate(334 0,0)" class="text3"><textPath href="#circle3">HAND</textPath></text>

  <!-- Fourth circle -->
  <line transform="rotate(51 0,0)" x1="-400" x2="-300" y1="0" y2="0" class="line4"/>
  <text transform="rotate(58 0,0)" class="text4"><textPath href="#circle4">QUIT</textPath></text>
  <line transform="rotate(86 0,0)" x1="-400" x2="-300" y1="0" y2="0" class="line4"/>
  <text transform="rotate(93 0,0)" class="text4"><textPath href="#circle4">OCEAN</textPath></text>
  <line transform="rotate(131 0,0)" x1="-400" x2="-300" y1="0" y2="0" class="line4"/>
  <text transform="rotate(138 0,0)" class="text4"><textPath href="#circle4">CANE</textPath></text>
  <line transform="rotate(170 0,0)" x1="-400" x2="-300" y1="0" y2="0" class="line4"/>
  <text transform="rotate(177 0,0)" class="text4"><textPath href="#circle4">STATIC</textPath></text>
  <line transform="rotate(215 0,0)" x1="-400" x2="-300" y1="0" y2="0" class="line4"/>
  <text transform="rotate(222 0,0)" class="text4"><textPath href="#circle4">CANOE</textPath></text>
  <line transform="rotate(260 0,0)" x1="-400" x2="-300" y1="0" y2="0" class="line4"/>
  <text transform="rotate(268 0,0)" class="text4"><textPath href="#circle4">ELECTRICITY</textPath></text>
  <line transform="rotate(331 0,0)" x1="-400" x2="-300" y1="0" y2="0" class="line4"/>
  <text transform="rotate(339 0,0)" class="text4"><textPath href="#circle4">SATIN</textPath></text>
  <line transform="rotate(11 0,0)" x1="-400" x2="-300" y1="0" y2="0" class="line4"/>
  <text transform="rotate(19 0,0)" class="text4"><textPath href="#circle4">MESS</textPath></text>

  <!-- Fifth circle -->
  <line transform="rotate(18 0,0)" x1="-500" x2="-400" y1="0" y2="0" class="line5"/>
  <text transform="rotate(24 0,0)" class="text5"><textPath href="#circle5">AGREEMENT</textPath></text>
  <line transform="rotate(72 0,0)" x1="-500" x2="-400" y1="0" y2="0" class="line5"/>
  <text transform="rotate(78 0,0)" class="text5"><textPath href="#circle5">MOST</textPath></text>
  <line transform="rotate(104 0,0)" x1="-500" x2="-400" y1="0" y2="0" class="line5"/>
  <text transform="rotate(110 0,0)" class="text5"><textPath href="#circle5">SQUARES</textPath></text>
  <line transform="rotate(149 0,0)" x1="-500" x2="-400" y1="0" y2="0" class="line5"/>
  <text transform="rotate(155 0,0)" class="text5"><textPath href="#circle5">IDEAL</textPath></text>
  <line transform="rotate(181 0,0)" x1="-500" x2="-400" y1="0" y2="0" class="line5"/>
  <text transform="rotate(187 0,0)" class="text5"><textPath href="#circle5">LESS</textPath></text>
  <line transform="rotate(210 0,0)" x1="-500" x2="-400" y1="0" y2="0" class="line5"/>
  <text transform="rotate(216 0,0)" class="text5"><textPath href="#circle5">DEAL</textPath></text>
  <line transform="rotate(240 0,0)" x1="-500" x2="-400" y1="0" y2="0" class="line5"/>
  <text transform="rotate(246 0,0)" class="text5"><textPath href="#circle5">FAINT</textPath></text>
  <line transform="rotate(272 0,0)" x1="-500" x2="-400" y1="0" y2="0" class="line5"/>
  <text transform="rotate(278 0,0)" class="text5"><textPath href="#circle5">HANDY</textPath></text>
  <line transform="rotate(308 0,0)" x1="-500" x2="-400" y1="0" y2="0" class="line5"/>
  <text transform="rotate(314 0,0)" class="text5"><textPath href="#circle5">STATIN</textPath></text>
  <line transform="rotate(344 0,0)" x1="-500" x2="-400" y1="0" y2="0" class="line5"/>
  <text transform="rotate(350 0,0)" class="text5"><textPath href="#circle5">LEAST</textPath></text>

</svg>
