  <svg width="500" height="500" viewBox="-550 -550 1100 1100" xmlns="http://www.w3.org/2000/svg">
  <style>
    .text1 { fill: black; font: 50px sans-serif; }
    .text2 { fill: white; font: 50px sans-serif; }
    .line2 { stroke: white; stroke-width:5; }
    .text3 { fill: black; font: 50px sans-serif; }
    .line3 { stroke: black; stroke-width:5; }
    .text4 { fill: white; font: 50px sans-serif; }
    .line4 { stroke: white; stroke-width:5; }
    .text5 { fill: black; font: 50px sans-serif; }
    .line5 { stroke: black; stroke-width:5; }
  </style>

  <circle cx="0" cy="0" r="505" fill="black" />
  <circle cx="0" cy="0" r="500" fill="white" />
  <circle cx="0" cy="0" r="400" fill="black" />
  <circle cx="0" cy="0" r="300" fill="white" />
  <circle cx="0" cy="0" r="200" fill="black" />
  <circle cx="0" cy="0" r="100" fill="white" />
  <line x1="-415" y1="-415" x2="-390" y2="-390" stroke="black" stroke-width="20"/>
  <polygon points="-375 -415, -415 -375, -360 -360" />

  <path id="circle2" fill="transparent"
      d="
      M 0 0
      m -130, 0
      a 130,130 0 1,1 260,0
      a 130,130 0 1,1 -260,0
      "
  />
  <path id="circle3" fill="transparent"
      d="
      M 0 0
      m -230, 0
      a 230,230 0 1,1 460,0
      a 230,230 0 1,1 -460,0
      "
  />
  <path id="circle4" fill="transparent"
      d="
      M 0 0
      m -330, 0
      a 330,330 0 1,1 660,0
      a 330,330 0 1,1 -660,0
      "
  />
  <path id="circle5" fill="transparent"
      d="
      M 0 0
      m -430, 0
      a 430,430 0 1,1 860,0
      a 430,430 0 1,1 -860,0
      "
  />

  <!-- First circle -->
  <text x="0" y="0" dominant-baseline="middle" text-anchor="middle" class="text1">CAR</text>

  <!-- Second circle -->
  <line transform="rotate(-1 0,0)" x1="-200" x2="-100" y1="0" y2="0" class="line2"/>
  <text transform="rotate(14 0,0)" class="text2"><textPath href="#circle2">MORNING</textPath></text>
  <line transform="rotate(139 0,0)" x1="-200" x2="-100" y1="0" y2="0" class="line2"/>
  <text transform="rotate(155 0,0)" class="text2"><textPath href="#circle2">DRIVING</textPath></text>
  <line transform="rotate(264 0,0)" x1="-200" x2="-100" y1="0" y2="0" class="line2"/>
  <text transform="rotate(280 0,0)" class="text2"><textPath href="#circle2">TAME</textPath></text>

  <!-- Third circle -->
  <line transform="rotate(-14 0,0)" x1="-300" x2="-200" y1="0" y2="0" class="line3"/>
  <text transform="rotate(4 0,0)" class="text3"><textPath href="#circle3">DINOSAUR</textPath></text>
  <line transform="rotate(88 0,0)" x1="-300" x2="-200" y1="0" y2="0" class="line3"/>
  <text transform="rotate(107 0,0)" class="text3"><textPath href="#circle3">PRODUCTION</textPath></text>
  <line transform="rotate(207 0,0)" x1="-300" x2="-200" y1="0" y2="0" class="line3"/>
  <text transform="rotate(226 0,0)" class="text3"><textPath href="#circle3">MEAT</textPath></text>
  <line transform="rotate(279 0,0)" x1="-300" x2="-200" y1="0" y2="0" class="line3"/>
  <text transform="rotate(298 0,0)" class="text3"><textPath href="#circle3">UNIT</textPath></text>

  <!-- Fourth circle -->
  <line transform="rotate(44 0,0)" x1="-400" x2="-300" y1="0" y2="0" class="line4"/>
  <text transform="rotate(51 0,0)" class="text4"><textPath href="#circle4">MESOZOIC</textPath></text>
  <line transform="rotate(104 0,0)" x1="-400" x2="-300" y1="0" y2="0" class="line4"/>
  <text transform="rotate(111 0,0)" class="text4"><textPath href="#circle4">STEAK</textPath></text>
  <line transform="rotate(147 0,0)" x1="-400" x2="-300" y1="0" y2="0" class="line4"/>
  <text transform="rotate(154 0,0)" class="text4"><textPath href="#circle4">DIVINE</textPath></text>
  <line transform="rotate(190 0,0)" x1="-400" x2="-300" y1="0" y2="0" class="line4"/>
  <text transform="rotate(197 0,0)" class="text4"><textPath href="#circle4">ERG</textPath></text>
  <line transform="rotate(223 0,0)" x1="-400" x2="-300" y1="0" y2="0" class="line4"/>
  <text transform="rotate(230 0,0)" class="text4"><textPath href="#circle4">MOVE</textPath></text>
  <line transform="rotate(263 0,0)" x1="-400" x2="-300" y1="0" y2="0" class="line4"/>
  <text transform="rotate(270 0,0)" class="text4"><textPath href="#circle4">WILD</textPath></text>
  <line transform="rotate(299 0,0)" x1="-400" x2="-300" y1="0" y2="0" class="line4"/>
  <text transform="rotate(306 0,0)" class="text4"><textPath href="#circle4">WIELD</textPath></text>
  <line transform="rotate(341 0,0)" x1="-400" x2="-300" y1="0" y2="0" class="line4"/>
  <text transform="rotate(348 0,0)" class="text4"><textPath href="#circle4">MOURNING</textPath></text>

  <!-- Fifth circle -->
  <line transform="rotate(25 0,0)" x1="-500" x2="-400" y1="0" y2="0" class="line5"/>
  <text transform="rotate(30 0,0)" class="text5"><textPath href="#circle5">EVENING</textPath></text>
  <line transform="rotate(65 0,0)" x1="-500" x2="-400" y1="0" y2="0" class="line5"/>
  <text transform="rotate(71 0,0)" class="text5"><textPath href="#circle5">SNAKE</textPath></text>
  <line transform="rotate(99 0,0)" x1="-500" x2="-400" y1="0" y2="0" class="line5"/>
  <text transform="rotate(104 0,0)" class="text5"><textPath href="#circle5">DIVING</textPath></text>
  <line transform="rotate(132 0,0)" x1="-500" x2="-400" y1="0" y2="0" class="line5"/>
  <text transform="rotate(138 0,0)" class="text5"><textPath href="#circle5">STAKE</textPath></text>
  <line transform="rotate(165 0,0)" x1="-500" x2="-400" y1="0" y2="0" class="line5"/>
  <text transform="rotate(171 0,0)" class="text5"><textPath href="#circle5">DIVIDE</textPath></text>
  <line transform="rotate(198 0,0)" x1="-500" x2="-400" y1="0" y2="0" class="line5"/>
  <text transform="rotate(204 0,0)" class="text5"><textPath href="#circle5">UNITE</textPath></text>
  <line transform="rotate(229 0,0)" x1="-500" x2="-400" y1="0" y2="0" class="line5"/>
  <text transform="rotate(234 0,0)" class="text5"><textPath href="#circle5">ERA</textPath></text>
  <line transform="rotate(253 0,0)" x1="-500" x2="-400" y1="0" y2="0" class="line5"/>
  <text transform="rotate(259 0,0)" class="text5"><textPath href="#circle5">DOVE</textPath></text>
  <line transform="rotate(283 0,0)" x1="-500" x2="-400" y1="0" y2="0" class="line5"/>
  <text transform="rotate(288 0,0)" class="text5"><textPath href="#circle5">YIELD</textPath></text>
  <line transform="rotate(313 0,0)" x1="-500" x2="-400" y1="0" y2="0" class="line5"/>
  <text transform="rotate(319 0,0)" class="text5"><textPath href="#circle5">MOVIE</textPath></text>
  <line transform="rotate(346 0,0)" x1="-500" x2="-400" y1="0" y2="0" class="line5"/>
  <text transform="rotate(351 0,0)" class="text5"><textPath href="#circle5">REPTILE</textPath></text>

</svg>
