  <svg width="500" height="500" viewBox="-550 -550 1100 1100" xmlns="http://www.w3.org/2000/svg">
  <style>
    .text1 { fill: black; font: 50px sans-serif; }
    .text2 { fill: white; font: 50px sans-serif; }
    .line2 { stroke: white; stroke-width:5; }
    .text3 { fill: black; font: 50px sans-serif; }
    .line3 { stroke: black; stroke-width:5; }
    .text4 { fill: white; font: 50px sans-serif; }
    .line4 { stroke: white; stroke-width:5; }
    .text5 { fill: black; font: 50px sans-serif; }
    .line5 { stroke: black; stroke-width:5; }
  </style>

  <circle cx="0" cy="0" r="505" fill="black" />
  <circle cx="0" cy="0" r="500" fill="white" />
  <circle cx="0" cy="0" r="400" fill="black" />
  <circle cx="0" cy="0" r="300" fill="white" />
  <circle cx="0" cy="0" r="200" fill="black" />
  <circle cx="0" cy="0" r="100" fill="white" />
  <line x1="-415" y1="-415" x2="-390" y2="-390" stroke="black" stroke-width="20"/>
  <polygon points="-375 -415, -415 -375, -360 -360" />

  <path id="circle2" fill="transparent"
      d="
      M 0 0
      m -130, 0
      a 130,130 0 1,1 260,0
      a 130,130 0 1,1 -260,0
      "
  />
  <path id="circle3" fill="transparent"
      d="
      M 0 0
      m -230, 0
      a 230,230 0 1,1 460,0
      a 230,230 0 1,1 -460,0
      "
  />
  <path id="circle4" fill="transparent"
      d="
      M 0 0
      m -330, 0
      a 330,330 0 1,1 660,0
      a 330,330 0 1,1 -660,0
      "
  />
  <path id="circle5" fill="transparent"
      d="
      M 0 0
      m -430, 0
      a 430,430 0 1,1 860,0
      a 430,430 0 1,1 -860,0
      "
  />

  <!-- First circle -->
  <text x="0" y="0" dominant-baseline="middle" text-anchor="middle" class="text1">ZERO</text>

  <!-- Second circle -->
  <line transform="rotate(1 0,0)" x1="-200" x2="-100" y1="0" y2="0" class="line2"/>
  <text transform="rotate(14 0,0)" class="text2"><textPath href="#circle2">VOLCANO</textPath></text>
  <line transform="rotate(138 0,0)" x1="-200" x2="-100" y1="0" y2="0" class="line2"/>
  <text transform="rotate(152 0,0)" class="text2"><textPath href="#circle2">NOISE</textPath></text>
  <line transform="rotate(235 0,0)" x1="-200" x2="-100" y1="0" y2="0" class="line2"/>
  <text transform="rotate(249 0,0)" class="text2"><textPath href="#circle2">GABOON</textPath></text>

  <!-- Third circle -->
  <line transform="rotate(-7 0,0)" x1="-300" x2="-200" y1="0" y2="0" class="line3"/>
  <text transform="rotate(0 0,0)" class="text3"><textPath href="#circle3">PUBLIC</textPath></text>
  <line transform="rotate(51 0,0)" x1="-300" x2="-200" y1="0" y2="0" class="line3"/>
  <text transform="rotate(59 0,0)" class="text3"><textPath href="#circle3">ZEROS</textPath></text>
  <line transform="rotate(108 0,0)" x1="-300" x2="-200" y1="0" y2="0" class="line3"/>
  <text transform="rotate(115 0,0)" class="text3"><textPath href="#circle3">EROS</textPath></text>
  <line transform="rotate(157 0,0)" x1="-300" x2="-200" y1="0" y2="0" class="line3"/>
  <text transform="rotate(164 0,0)" class="text3"><textPath href="#circle3">ARVAL</textPath></text>
  <line transform="rotate(212 0,0)" x1="-300" x2="-200" y1="0" y2="0" class="line3"/>
  <text transform="rotate(219 0,0)" class="text3"><textPath href="#circle3">ANTENNA</textPath></text>
  <line transform="rotate(285 0,0)" x1="-300" x2="-200" y1="0" y2="0" class="line3"/>
  <text transform="rotate(292 0,0)" class="text3"><textPath href="#circle3">MENDED</textPath></text>

  <!-- Fourth circle -->
  <line transform="rotate(3 0,0)" x1="-400" x2="-300" y1="0" y2="0" class="line4"/>
  <text transform="rotate(9 0,0)" class="text4"><textPath href="#circle4">GABON</textPath></text>
  <line transform="rotate(46 0,0)" x1="-400" x2="-300" y1="0" y2="0" class="line4"/>
  <text transform="rotate(52 0,0)" class="text4"><textPath href="#circle4">AERIAL</textPath></text>
  <line transform="rotate(89 0,0)" x1="-400" x2="-300" y1="0" y2="0" class="line4"/>
  <text transform="rotate(95 0,0)" class="text4"><textPath href="#circle4">ENDED</textPath></text>
  <line transform="rotate(132 0,0)" x1="-400" x2="-300" y1="0" y2="0" class="line4"/>
  <text transform="rotate(138 0,0)" class="text4"><textPath href="#circle4">SIGNAL</textPath></text>
  <line transform="rotate(176 0,0)" x1="-400" x2="-300" y1="0" y2="0" class="line4"/>
  <text transform="rotate(182 0,0)" class="text4"><textPath href="#circle4">PRIMATE</textPath></text>
  <line transform="rotate(227 0,0)" x1="-400" x2="-300" y1="0" y2="0" class="line4"/>
  <text transform="rotate(233 0,0)" class="text4"><textPath href="#circle4">PRIVATE</textPath></text>
  <line transform="rotate(276 0,0)" x1="-400" x2="-300" y1="0" y2="0" class="line4"/>
  <text transform="rotate(282 0,0)" class="text4"><textPath href="#circle4">BOGAN</textPath></text>
  <line transform="rotate(320 0,0)" x1="-400" x2="-300" y1="0" y2="0" class="line4"/>
  <text transform="rotate(326 0,0)" class="text4"><textPath href="#circle4">BEGAN</textPath></text>

  <!-- Fifth circle -->
  <line transform="rotate(21 0,0)" x1="-500" x2="-400" y1="0" y2="0" class="line5"/>
  <text transform="rotate(26 0,0)" class="text5"><textPath href="#circle5">SYMMETRY</textPath></text>
  <line transform="rotate(69 0,0)" x1="-500" x2="-400" y1="0" y2="0" class="line5"/>
  <text transform="rotate(74 0,0)" class="text5"><textPath href="#circle5">ROSE</textPath></text>
  <line transform="rotate(98 0,0)" x1="-500" x2="-400" y1="0" y2="0" class="line5"/>
  <text transform="rotate(103 0,0)" class="text5"><textPath href="#circle5">NOSE</textPath></text>
  <line transform="rotate(127 0,0)" x1="-500" x2="-400" y1="0" y2="0" class="line5"/>
  <text transform="rotate(132 0,0)" class="text5"><textPath href="#circle5">ARIAL</textPath></text>
  <line transform="rotate(157 0,0)" x1="-500" x2="-400" y1="0" y2="0" class="line5"/>
  <text transform="rotate(162 0,0)" class="text5"><textPath href="#circle5">LAVA</textPath></text>
  <line transform="rotate(185 0,0)" x1="-500" x2="-400" y1="0" y2="0" class="line5"/>
  <text transform="rotate(190 0,0)" class="text5"><textPath href="#circle5">LARVA</textPath></text>
  <line transform="rotate(217 0,0)" x1="-500" x2="-400" y1="0" y2="0" class="line5"/>
  <text transform="rotate(222 0,0)" class="text5"><textPath href="#circle5">BABOON</textPath></text>
  <line transform="rotate(256 0,0)" x1="-500" x2="-400" y1="0" y2="0" class="line5"/>
  <text transform="rotate(261 0,0)" class="text5"><textPath href="#circle5">BROKEN</textPath></text>
  <line transform="rotate(295 0,0)" x1="-500" x2="-400" y1="0" y2="0" class="line5"/>
  <text transform="rotate(300 0,0)" class="text5"><textPath href="#circle5">TRANSPORT</textPath></text>
  <line transform="rotate(346 0,0)" x1="-500" x2="-400" y1="0" y2="0" class="line5"/>
  <text transform="rotate(351 0,0)" class="text5"><textPath href="#circle5">ACTIVE</textPath></text>

</svg>
