  <svg width="500" height="500" viewBox="-550 -550 1100 1100" xmlns="http://www.w3.org/2000/svg">
  <style>
    .text1 { fill: black; font: 50px sans-serif; }
    .text2 { fill: white; font: 50px sans-serif; }
    .line2 { stroke: white; stroke-width:5; }
    .text3 { fill: black; font: 50px sans-serif; }
    .line3 { stroke: black; stroke-width:5; }
    .text4 { fill: white; font: 50px sans-serif; }
    .line4 { stroke: white; stroke-width:5; }
    .text5 { fill: black; font: 50px sans-serif; }
    .line5 { stroke: black; stroke-width:5; }
  </style>

  <circle cx="0" cy="0" r="505" fill="black" />
  <circle cx="0" cy="0" r="500" fill="white" />
  <circle cx="0" cy="0" r="400" fill="black" />
  <circle cx="0" cy="0" r="300" fill="white" />
  <circle cx="0" cy="0" r="200" fill="black" />
  <circle cx="0" cy="0" r="100" fill="white" />
  <line x1="-415" y1="-415" x2="-390" y2="-390" stroke="black" stroke-width="20"/>
  <polygon points="-375 -415, -415 -375, -360 -360" />

  <path id="circle2" fill="transparent"
      d="
      M 0 0
      m -130, 0
      a 130,130 0 1,1 260,0
      a 130,130 0 1,1 -260,0
      "
  />
  <path id="circle3" fill="transparent"
      d="
      M 0 0
      m -230, 0
      a 230,230 0 1,1 460,0
      a 230,230 0 1,1 -460,0
      "
  />
  <path id="circle4" fill="transparent"
      d="
      M 0 0
      m -330, 0
      a 330,330 0 1,1 660,0
      a 330,330 0 1,1 -660,0
      "
  />
  <path id="circle5" fill="transparent"
      d="
      M 0 0
      m -430, 0
      a 430,430 0 1,1 860,0
      a 430,430 0 1,1 -860,0
      "
  />

  <!-- First circle -->
  <text x="0" y="0" dominant-baseline="middle" text-anchor="middle" class="text1">APPLE</text>

  <!-- Second circle -->
  <line transform="rotate(8 0,0)" x1="-200" x2="-100" y1="0" y2="0" class="line2"/>
  <text transform="rotate(20 0,0)" class="text2"><textPath href="#circle2">WATT</textPath></text>
  <line transform="rotate(96 0,0)" x1="-200" x2="-100" y1="0" y2="0" class="line2"/>
  <text transform="rotate(108 0,0)" class="text2"><textPath href="#circle2">MICROSCOPE</textPath></text>
  <line transform="rotate(274 0,0)" x1="-200" x2="-100" y1="0" y2="0" class="line2"/>
  <text transform="rotate(287 0,0)" class="text2"><textPath href="#circle2">STING</textPath></text>

  <!-- Third circle -->
  <line transform="rotate(-10 0,0)" x1="-300" x2="-200" y1="0" y2="0" class="line3"/>
  <text transform="rotate(-2 0,0)" class="text3"><textPath href="#circle3">RIVER</textPath></text>
  <line transform="rotate(45 0,0)" x1="-300" x2="-200" y1="0" y2="0" class="line3"/>
  <text transform="rotate(54 0,0)" class="text3"><textPath href="#circle3">HOOKE</textPath></text>
  <line transform="rotate(107 0,0)" x1="-300" x2="-200" y1="0" y2="0" class="line3"/>
  <text transform="rotate(116 0,0)" class="text3"><textPath href="#circle3">EYE</textPath></text>
  <line transform="rotate(149 0,0)" x1="-300" x2="-200" y1="0" y2="0" class="line3"/>
  <text transform="rotate(158 0,0)" class="text3"><textPath href="#circle3">SOCKET</textPath></text>
  <line transform="rotate(217 0,0)" x1="-300" x2="-200" y1="0" y2="0" class="line3"/>
  <text transform="rotate(226 0,0)" class="text3"><textPath href="#circle3">SELECTION</textPath></text>
  <line transform="rotate(304 0,0)" x1="-300" x2="-200" y1="0" y2="0" class="line3"/>
  <text transform="rotate(313 0,0)" class="text3"><textPath href="#circle3">BAIT</textPath></text>

  <!-- Fourth circle -->
  <line transform="rotate(-3 0,0)" x1="-400" x2="-300" y1="0" y2="0" class="line4"/>
  <text transform="rotate(4 0,0)" class="text4"><textPath href="#circle4">BYE</textPath></text>
  <line transform="rotate(28 0,0)" x1="-400" x2="-300" y1="0" y2="0" class="line4"/>
  <text transform="rotate(35 0,0)" class="text4"><textPath href="#circle4">GAS</textPath></text>
  <line transform="rotate(60 0,0)" x1="-400" x2="-300" y1="0" y2="0" class="line4"/>
  <text transform="rotate(67 0,0)" class="text4"><textPath href="#circle4">CIDER</textPath></text>
  <line transform="rotate(102 0,0)" x1="-400" x2="-300" y1="0" y2="0" class="line4"/>
  <text transform="rotate(109 0,0)" class="text4"><textPath href="#circle4">WAIT</textPath></text>
  <line transform="rotate(137 0,0)" x1="-400" x2="-300" y1="0" y2="0" class="line4"/>
  <text transform="rotate(144 0,0)" class="text4"><textPath href="#circle4">ELECTRON</textPath></text>
  <line transform="rotate(199 0,0)" x1="-400" x2="-300" y1="0" y2="0" class="line4"/>
  <text transform="rotate(206 0,0)" class="text4"><textPath href="#circle4">RAY</textPath></text>
  <line transform="rotate(231 0,0)" x1="-400" x2="-300" y1="0" y2="0" class="line4"/>
  <text transform="rotate(238 0,0)" class="text4"><textPath href="#circle4">NATURAL</textPath></text>
  <line transform="rotate(285 0,0)" x1="-400" x2="-300" y1="0" y2="0" class="line4"/>
  <text transform="rotate(292 0,0)" class="text4"><textPath href="#circle4">GAY</textPath></text>
  <line transform="rotate(318 0,0)" x1="-400" x2="-300" y1="0" y2="0" class="line4"/>
  <text transform="rotate(325 0,0)" class="text4"><textPath href="#circle4">WAFT</textPath></text>

  <!-- Fifth circle -->
  <line transform="rotate(21 0,0)" x1="-500" x2="-400" y1="0" y2="0" class="line5"/>
  <text transform="rotate(24 0,0)" class="text5"><textPath href="#circle5">HYPOTHESIS</textPath></text>
  <line transform="rotate(70 0,0)" x1="-500" x2="-400" y1="0" y2="0" class="line5"/>
  <text transform="rotate(74 0,0)" class="text5"><textPath href="#circle5">RAFT</textPath></text>
  <line transform="rotate(95 0,0)" x1="-500" x2="-400" y1="0" y2="0" class="line5"/>
  <text transform="rotate(98 0,0)" class="text5"><textPath href="#circle5">BYTE</textPath></text>
  <line transform="rotate(119 0,0)" x1="-500" x2="-400" y1="0" y2="0" class="line5"/>
  <text transform="rotate(122 0,0)" class="text5"><textPath href="#circle5">STRING</textPath></text>
  <line transform="rotate(151 0,0)" x1="-500" x2="-400" y1="0" y2="0" class="line5"/>
  <text transform="rotate(154 0,0)" class="text5"><textPath href="#circle5">ROBERT</textPath></text>
  <line transform="rotate(185 0,0)" x1="-500" x2="-400" y1="0" y2="0" class="line5"/>
  <text transform="rotate(189 0,0)" class="text5"><textPath href="#circle5">ELECTION</textPath></text>
  <line transform="rotate(226 0,0)" x1="-500" x2="-400" y1="0" y2="0" class="line5"/>
  <text transform="rotate(229 0,0)" class="text5"><textPath href="#circle5">GODDARD</textPath></text>
  <line transform="rotate(267 0,0)" x1="-500" x2="-400" y1="0" y2="0" class="line5"/>
  <text transform="rotate(270 0,0)" class="text5"><textPath href="#circle5">THEORY</textPath></text>
  <line transform="rotate(301 0,0)" x1="-500" x2="-400" y1="0" y2="0" class="line5"/>
  <text transform="rotate(305 0,0)" class="text5"><textPath href="#circle5">ROCKET</textPath></text>
  <line transform="rotate(336 0,0)" x1="-500" x2="-400" y1="0" y2="0" class="line5"/>
  <text transform="rotate(339 0,0)" class="text5"><textPath href="#circle5">RIDER</textPath></text>
  <line transform="rotate(3 0,0)" x1="-500" x2="-400" y1="0" y2="0" class="line5"/>
  <text transform="rotate(7 0,0)" class="text5"><textPath href="#circle5">BIT</textPath></text>

</svg>
