  <svg width="500" height="500" viewBox="-550 -550 1100 1100" xmlns="http://www.w3.org/2000/svg">
  <style>
    .text1 { fill: black; font: 50px sans-serif; }
    .text2 { fill: white; font: 50px sans-serif; }
    .line2 { stroke: white; stroke-width:5; }
    .text3 { fill: black; font: 50px sans-serif; }
    .line3 { stroke: black; stroke-width:5; }
    .text4 { fill: white; font: 50px sans-serif; }
    .line4 { stroke: white; stroke-width:5; }
    .text5 { fill: black; font: 50px sans-serif; }
    .line5 { stroke: black; stroke-width:5; }
  </style>

  <circle cx="0" cy="0" r="505" fill="black" />
  <circle cx="0" cy="0" r="500" fill="white" />
  <circle cx="0" cy="0" r="400" fill="black" />
  <circle cx="0" cy="0" r="300" fill="white" />
  <circle cx="0" cy="0" r="200" fill="black" />
  <circle cx="0" cy="0" r="100" fill="white" />
  <line x1="-415" y1="-415" x2="-390" y2="-390" stroke="black" stroke-width="20"/>
  <polygon points="-375 -415, -415 -375, -360 -360" />

  <path id="circle2" fill="transparent"
      d="
      M 0 0
      m -130, 0
      a 130,130 0 1,1 260,0
      a 130,130 0 1,1 -260,0
      "
  />
  <path id="circle3" fill="transparent"
      d="
      M 0 0
      m -230, 0
      a 230,230 0 1,1 460,0
      a 230,230 0 1,1 -460,0
      "
  />
  <path id="circle4" fill="transparent"
      d="
      M 0 0
      m -330, 0
      a 330,330 0 1,1 660,0
      a 330,330 0 1,1 -660,0
      "
  />
  <path id="circle5" fill="transparent"
      d="
      M 0 0
      m -430, 0
      a 430,430 0 1,1 860,0
      a 430,430 0 1,1 -860,0
      "
  />

  <!-- First circle -->
  <text x="0" y="0" dominant-baseline="middle" text-anchor="middle" class="text1">BRAID</text>

  <!-- Second circle -->
  <line transform="rotate(-13 0,0)" x1="-200" x2="-100" y1="0" y2="0" class="line2"/>
  <text transform="rotate(-3 0,0)" class="text2"><textPath href="#circle2">LAND</textPath></text>
  <line transform="rotate(67 0,0)" x1="-200" x2="-100" y1="0" y2="0" class="line2"/>
  <text transform="rotate(77 0,0)" class="text2"><textPath href="#circle2">REPRODUCE</textPath></text>
  <line transform="rotate(231 0,0)" x1="-200" x2="-100" y1="0" y2="0" class="line2"/>
  <text transform="rotate(241 0,0)" class="text2"><textPath href="#circle2">GREEDY</textPath></text>

  <!-- Third circle -->
  <line transform="rotate(11 0,0)" x1="-300" x2="-200" y1="0" y2="0" class="line3"/>
  <text transform="rotate(17 0,0)" class="text3"><textPath href="#circle3">GIBBS</textPath></text>
  <line transform="rotate(62 0,0)" x1="-300" x2="-200" y1="0" y2="0" class="line3"/>
  <text transform="rotate(68 0,0)" class="text3"><textPath href="#circle3">GIBS</textPath></text>
  <line transform="rotate(105 0,0)" x1="-300" x2="-200" y1="0" y2="0" class="line3"/>
  <text transform="rotate(111 0,0)" class="text3"><textPath href="#circle3">BRAD</textPath></text>
  <line transform="rotate(152 0,0)" x1="-300" x2="-200" y1="0" y2="0" class="line3"/>
  <text transform="rotate(159 0,0)" class="text3"><textPath href="#circle3">FAILURE</textPath></text>
  <line transform="rotate(218 0,0)" x1="-300" x2="-200" y1="0" y2="0" class="line3"/>
  <text transform="rotate(224 0,0)" class="text3"><textPath href="#circle3">MARKER</textPath></text>
  <line transform="rotate(284 0,0)" x1="-300" x2="-200" y1="0" y2="0" class="line3"/>
  <text transform="rotate(290 0,0)" class="text3"><textPath href="#circle3">ENDOCRINE</textPath></text>

  <!-- Fourth circle -->
  <line transform="rotate(31 0,0)" x1="-400" x2="-300" y1="0" y2="0" class="line4"/>
  <text transform="rotate(37 0,0)" class="text4"><textPath href="#circle4">MARKET</textPath></text>
  <line transform="rotate(79 0,0)" x1="-400" x2="-300" y1="0" y2="0" class="line4"/>
  <text transform="rotate(85 0,0)" class="text4"><textPath href="#circle4">BARKER</textPath></text>
  <line transform="rotate(127 0,0)" x1="-400" x2="-300" y1="0" y2="0" class="line4"/>
  <text transform="rotate(133 0,0)" class="text4"><textPath href="#circle4">GREENY</textPath></text>
  <line transform="rotate(176 0,0)" x1="-400" x2="-300" y1="0" y2="0" class="line4"/>
  <text transform="rotate(182 0,0)" class="text4"><textPath href="#circle4">ENERGY</textPath></text>
  <line transform="rotate(225 0,0)" x1="-400" x2="-300" y1="0" y2="0" class="line4"/>
  <text transform="rotate(231 0,0)" class="text4"><textPath href="#circle4">BARBER</textPath></text>
  <line transform="rotate(273 0,0)" x1="-400" x2="-300" y1="0" y2="0" class="line4"/>
  <text transform="rotate(279 0,0)" class="text4"><textPath href="#circle4">BREED</textPath></text>
  <line transform="rotate(316 0,0)" x1="-400" x2="-300" y1="0" y2="0" class="line4"/>
  <text transform="rotate(322 0,0)" class="text4"><textPath href="#circle4">RIBS</textPath></text>
  <line transform="rotate(348 0,0)" x1="-400" x2="-300" y1="0" y2="0" class="line4"/>
  <text transform="rotate(354 0,0)" class="text4"><textPath href="#circle4">BREAD</textPath></text>

  <!-- Fifth circle -->
  <line transform="rotate(17 0,0)" x1="-500" x2="-400" y1="0" y2="0" class="line5"/>
  <text transform="rotate(21 0,0)" class="text5"><textPath href="#circle5">HAIRDRESSER</textPath></text>
  <line transform="rotate(74 0,0)" x1="-500" x2="-400" y1="0" y2="0" class="line5"/>
  <text transform="rotate(79 0,0)" class="text5"><textPath href="#circle5">GLAND</textPath></text>
  <line transform="rotate(107 0,0)" x1="-500" x2="-400" y1="0" y2="0" class="line5"/>
  <text transform="rotate(111 0,0)" class="text5"><textPath href="#circle5">FARADAY</textPath></text>
  <line transform="rotate(147 0,0)" x1="-500" x2="-400" y1="0" y2="0" class="line5"/>
  <text transform="rotate(152 0,0)" class="text5"><textPath href="#circle5">RIB</textPath></text>
  <line transform="rotate(168 0,0)" x1="-500" x2="-400" y1="0" y2="0" class="line5"/>
  <text transform="rotate(173 0,0)" class="text5"><textPath href="#circle5">FARAWAY</textPath></text>
  <line transform="rotate(210 0,0)" x1="-500" x2="-400" y1="0" y2="0" class="line5"/>
  <text transform="rotate(215 0,0)" class="text5"><textPath href="#circle5">CAGE</textPath></text>
  <line transform="rotate(239 0,0)" x1="-500" x2="-400" y1="0" y2="0" class="line5"/>
  <text transform="rotate(243 0,0)" class="text5"><textPath href="#circle5">ALGORITHM</textPath></text>
  <line transform="rotate(288 0,0)" x1="-500" x2="-400" y1="0" y2="0" class="line5"/>
  <text transform="rotate(293 0,0)" class="text5"><textPath href="#circle5">SYSTEM</textPath></text>
  <line transform="rotate(325 0,0)" x1="-500" x2="-400" y1="0" y2="0" class="line5"/>
  <text transform="rotate(329 0,0)" class="text5"><textPath href="#circle5">PROCEDURE</textPath></text>

</svg>
