  <svg width="500" height="500" viewBox="-550 -550 1100 1100" xmlns="http://www.w3.org/2000/svg">
  <style>
    .text1 { fill: black; font: 50px sans-serif; }
    .text2 { fill: white; font: 50px sans-serif; }
    .line2 { stroke: white; stroke-width:5; }
    .text3 { fill: black; font: 50px sans-serif; }
    .line3 { stroke: black; stroke-width:5; }
    .text4 { fill: white; font: 50px sans-serif; }
    .line4 { stroke: white; stroke-width:5; }
    .text5 { fill: black; font: 50px sans-serif; }
    .line5 { stroke: black; stroke-width:5; }
  </style>

  <circle cx="0" cy="0" r="505" fill="black" />
  <circle cx="0" cy="0" r="500" fill="white" />
  <circle cx="0" cy="0" r="400" fill="black" />
  <circle cx="0" cy="0" r="300" fill="white" />
  <circle cx="0" cy="0" r="200" fill="black" />
  <circle cx="0" cy="0" r="100" fill="white" />
  <line x1="-415" y1="-415" x2="-390" y2="-390" stroke="black" stroke-width="20"/>
  <polygon points="-375 -415, -415 -375, -360 -360" />

  <path id="circle2" fill="transparent"
      d="
      M 0 0
      m -130, 0
      a 130,130 0 1,1 260,0
      a 130,130 0 1,1 -260,0
      "
  />
  <path id="circle3" fill="transparent"
      d="
      M 0 0
      m -230, 0
      a 230,230 0 1,1 460,0
      a 230,230 0 1,1 -460,0
      "
  />
  <path id="circle4" fill="transparent"
      d="
      M 0 0
      m -330, 0
      a 330,330 0 1,1 660,0
      a 330,330 0 1,1 -660,0
      "
  />
  <path id="circle5" fill="transparent"
      d="
      M 0 0
      m -430, 0
      a 430,430 0 1,1 860,0
      a 430,430 0 1,1 -860,0
      "
  />

  <!-- First circle -->
  <text x="0" y="0" dominant-baseline="middle" text-anchor="middle" class="text1">OWL</text>

  <!-- Second circle -->
  <line transform="rotate(0 0,0)" x1="-200" x2="-100" y1="0" y2="0" class="line2"/>
  <text transform="rotate(20 0,0)" class="text2"><textPath href="#circle2">GOLDER</textPath></text>
  <line transform="rotate(135 0,0)" x1="-200" x2="-100" y1="0" y2="0" class="line2"/>
  <text transform="rotate(156 0,0)" class="text2"><textPath href="#circle2">BEAST</textPath></text>
  <line transform="rotate(250 0,0)" x1="-200" x2="-100" y1="0" y2="0" class="line2"/>
  <text transform="rotate(271 0,0)" class="text2"><textPath href="#circle2">NITER</textPath></text>

  <!-- Third circle -->
  <line transform="rotate(6 0,0)" x1="-300" x2="-200" y1="0" y2="0" class="line3"/>
  <text transform="rotate(14 0,0)" class="text3"><textPath href="#circle3">BLOCK</textPath></text>
  <line transform="rotate(64 0,0)" x1="-300" x2="-200" y1="0" y2="0" class="line3"/>
  <text transform="rotate(72 0,0)" class="text3"><textPath href="#circle3">GOLFER</textPath></text>
  <line transform="rotate(130 0,0)" x1="-300" x2="-200" y1="0" y2="0" class="line3"/>
  <text transform="rotate(139 0,0)" class="text3"><textPath href="#circle3">GEORGE</textPath></text>
  <line transform="rotate(201 0,0)" x1="-300" x2="-200" y1="0" y2="0" class="line3"/>
  <text transform="rotate(209 0,0)" class="text3"><textPath href="#circle3">BLACK</textPath></text>
  <line transform="rotate(257 0,0)" x1="-300" x2="-200" y1="0" y2="0" class="line3"/>
  <text transform="rotate(266 0,0)" class="text3"><textPath href="#circle3">FEAT</textPath></text>
  <line transform="rotate(305 0,0)" x1="-300" x2="-200" y1="0" y2="0" class="line3"/>
  <text transform="rotate(314 0,0)" class="text3"><textPath href="#circle3">FORGE</textPath></text>

  <!-- Fourth circle -->
  <line transform="rotate(-5 0,0)" x1="-400" x2="-300" y1="0" y2="0" class="line4"/>
  <text transform="rotate(2 0,0)" class="text4"><textPath href="#circle4">BOOLEAN</textPath></text>
  <line transform="rotate(51 0,0)" x1="-400" x2="-300" y1="0" y2="0" class="line4"/>
  <text transform="rotate(59 0,0)" class="text4"><textPath href="#circle4">FEAST</textPath></text>
  <line transform="rotate(94 0,0)" x1="-400" x2="-300" y1="0" y2="0" class="line4"/>
  <text transform="rotate(101 0,0)" class="text4"><textPath href="#circle4">MANILA</textPath></text>
  <line transform="rotate(141 0,0)" x1="-400" x2="-300" y1="0" y2="0" class="line4"/>
  <text transform="rotate(148 0,0)" class="text4"><textPath href="#circle4">GORGE</textPath></text>
  <line transform="rotate(188 0,0)" x1="-400" x2="-300" y1="0" y2="0" class="line4"/>
  <text transform="rotate(195 0,0)" class="text4"><textPath href="#circle4">DIFFERENTIAL</textPath></text>
  <line transform="rotate(265 0,0)" x1="-400" x2="-300" y1="0" y2="0" class="line4"/>
  <text transform="rotate(272 0,0)" class="text4"><textPath href="#circle4">ANIMAL</textPath></text>
  <line transform="rotate(312 0,0)" x1="-400" x2="-300" y1="0" y2="0" class="line4"/>
  <text transform="rotate(319 0,0)" class="text4"><textPath href="#circle4">WHITE</textPath></text>

  <!-- Fifth circle -->
  <line transform="rotate(19 0,0)" x1="-500" x2="-400" y1="0" y2="0" class="line5"/>
  <text transform="rotate(23 0,0)" class="text5"><textPath href="#circle5">GUNPOWDER</textPath></text>
  <line transform="rotate(71 0,0)" x1="-500" x2="-400" y1="0" y2="0" class="line5"/>
  <text transform="rotate(76 0,0)" class="text5"><textPath href="#circle5">BOOLE</textPath></text>
  <line transform="rotate(103 0,0)" x1="-500" x2="-400" y1="0" y2="0" class="line5"/>
  <text transform="rotate(107 0,0)" class="text5"><textPath href="#circle5">FAT</textPath></text>
  <line transform="rotate(124 0,0)" x1="-500" x2="-400" y1="0" y2="0" class="line5"/>
  <text transform="rotate(128 0,0)" class="text5"><textPath href="#circle5">GOFER</textPath></text>
  <line transform="rotate(156 0,0)" x1="-500" x2="-400" y1="0" y2="0" class="line5"/>
  <text transform="rotate(160 0,0)" class="text5"><textPath href="#circle5">OIL</textPath></text>
  <line transform="rotate(175 0,0)" x1="-500" x2="-400" y1="0" y2="0" class="line5"/>
  <text transform="rotate(179 0,0)" class="text5"><textPath href="#circle5">WRITE</textPath></text>
  <line transform="rotate(205 0,0)" x1="-500" x2="-400" y1="0" y2="0" class="line5"/>
  <text transform="rotate(209 0,0)" class="text5"><textPath href="#circle5">TRITE</textPath></text>
  <line transform="rotate(232 0,0)" x1="-500" x2="-400" y1="0" y2="0" class="line5"/>
  <text transform="rotate(236 0,0)" class="text5"><textPath href="#circle5">ALGEBRA</textPath></text>
  <line transform="rotate(272 0,0)" x1="-500" x2="-400" y1="0" y2="0" class="line5"/>
  <text transform="rotate(276 0,0)" class="text5"><textPath href="#circle5">FOLDER</textPath></text>
  <line transform="rotate(307 0,0)" x1="-500" x2="-400" y1="0" y2="0" class="line5"/>
  <text transform="rotate(311 0,0)" class="text5"><textPath href="#circle5">TRINE</textPath></text>
  <line transform="rotate(336 0,0)" x1="-500" x2="-400" y1="0" y2="0" class="line5"/>
  <text transform="rotate(340 0,0)" class="text5"><textPath href="#circle5">EQUATION</textPath></text>

</svg>
