  <svg width="500" height="500" viewBox="-550 -550 1100 1100" xmlns="http://www.w3.org/2000/svg">
  <style>
    .text1 { fill: black; font: 50px sans-serif; }
    .text2 { fill: white; font: 50px sans-serif; }
    .line2 { stroke: white; stroke-width:5; }
    .text3 { fill: black; font: 50px sans-serif; }
    .line3 { stroke: black; stroke-width:5; }
    .text4 { fill: white; font: 50px sans-serif; }
    .line4 { stroke: white; stroke-width:5; }
    .text5 { fill: black; font: 50px sans-serif; }
    .line5 { stroke: black; stroke-width:5; }
  </style>

  <circle cx="0" cy="0" r="505" fill="black" />
  <circle cx="0" cy="0" r="500" fill="white" />
  <circle cx="0" cy="0" r="400" fill="black" />
  <circle cx="0" cy="0" r="300" fill="white" />
  <circle cx="0" cy="0" r="200" fill="black" />
  <circle cx="0" cy="0" r="100" fill="white" />
  <line x1="-415" y1="-415" x2="-390" y2="-390" stroke="black" stroke-width="20"/>
  <polygon points="-375 -415, -415 -375, -360 -360" />

  <path id="circle2" fill="transparent"
      d="
      M 0 0
      m -130, 0
      a 130,130 0 1,1 260,0
      a 130,130 0 1,1 -260,0
      "
  />
  <path id="circle3" fill="transparent"
      d="
      M 0 0
      m -230, 0
      a 230,230 0 1,1 460,0
      a 230,230 0 1,1 -460,0
      "
  />
  <path id="circle4" fill="transparent"
      d="
      M 0 0
      m -330, 0
      a 330,330 0 1,1 660,0
      a 330,330 0 1,1 -660,0
      "
  />
  <path id="circle5" fill="transparent"
      d="
      M 0 0
      m -430, 0
      a 430,430 0 1,1 860,0
      a 430,430 0 1,1 -860,0
      "
  />

  <!-- First circle -->
  <text x="0" y="0" dominant-baseline="middle" text-anchor="middle" class="text1">MEDIC</text>

  <!-- Second circle -->
  <line transform="rotate(40 0,0)" x1="-200" x2="-100" y1="0" y2="0" class="line2"/>
  <text transform="rotate(60 0,0)" class="text2"><textPath href="#circle2">ARIAL</textPath></text>
  <line transform="rotate(146 0,0)" x1="-200" x2="-100" y1="0" y2="0" class="line2"/>
  <text transform="rotate(167 0,0)" class="text2"><textPath href="#circle2">FORCE</textPath></text>
  <line transform="rotate(266 0,0)" x1="-200" x2="-100" y1="0" y2="0" class="line2"/>
  <text transform="rotate(287 0,0)" class="text2"><textPath href="#circle2">ACCEPT</textPath></text>

  <!-- Third circle -->
  <line transform="rotate(24 0,0)" x1="-300" x2="-200" y1="0" y2="0" class="line3"/>
  <text transform="rotate(31 0,0)" class="text3"><textPath href="#circle3">OUTLAY</textPath></text>
  <line transform="rotate(87 0,0)" x1="-300" x2="-200" y1="0" y2="0" class="line3"/>
  <text transform="rotate(95 0,0)" class="text3"><textPath href="#circle3">FONT</textPath></text>
  <line transform="rotate(135 0,0)" x1="-300" x2="-200" y1="0" y2="0" class="line3"/>
  <text transform="rotate(143 0,0)" class="text3"><textPath href="#circle3">AERIAL</textPath></text>
  <line transform="rotate(194 0,0)" x1="-300" x2="-200" y1="0" y2="0" class="line3"/>
  <text transform="rotate(201 0,0)" class="text3"><textPath href="#circle3">DECLINE</textPath></text>
  <line transform="rotate(261 0,0)" x1="-300" x2="-200" y1="0" y2="0" class="line3"/>
  <text transform="rotate(269 0,0)" class="text3"><textPath href="#circle3">LAYOUT</textPath></text>
  <line transform="rotate(325 0,0)" x1="-300" x2="-200" y1="0" y2="0" class="line3"/>
  <text transform="rotate(333 0,0)" class="text3"><textPath href="#circle3">SERIAL</textPath></text>

  <!-- Fourth circle -->
  <line transform="rotate(-3 0,0)" x1="-400" x2="-300" y1="0" y2="0" class="line4"/>
  <text transform="rotate(6 0,0)" class="text4"><textPath href="#circle4">FORT</textPath></text>
  <line transform="rotate(38 0,0)" x1="-400" x2="-300" y1="0" y2="0" class="line4"/>
  <text transform="rotate(47 0,0)" class="text4"><textPath href="#circle4">FOREIGN</textPath></text>
  <line transform="rotate(96 0,0)" x1="-400" x2="-300" y1="0" y2="0" class="line4"/>
  <text transform="rotate(105 0,0)" class="text4"><textPath href="#circle4">PUNDIT</textPath></text>
  <line transform="rotate(147 0,0)" x1="-400" x2="-300" y1="0" y2="0" class="line4"/>
  <text transform="rotate(156 0,0)" class="text4"><textPath href="#circle4">FORMAL</textPath></text>
  <line transform="rotate(201 0,0)" x1="-400" x2="-300" y1="0" y2="0" class="line4"/>
  <text transform="rotate(210 0,0)" class="text4"><textPath href="#circle4">NORMAL</textPath></text>
  <line transform="rotate(256 0,0)" x1="-400" x2="-300" y1="0" y2="0" class="line4"/>
  <text transform="rotate(266 0,0)" class="text4"><textPath href="#circle4">PANDIT</textPath></text>
  <line transform="rotate(306 0,0)" x1="-400" x2="-300" y1="0" y2="0" class="line4"/>
  <text transform="rotate(316 0,0)" class="text4"><textPath href="#circle4">BANDIT</textPath></text>

  <!-- Fifth circle -->
  <line transform="rotate(20 0,0)" x1="-500" x2="-400" y1="0" y2="0" class="line5"/>
  <text transform="rotate(24 0,0)" class="text5"><textPath href="#circle5">INDIGENOUS</textPath></text>
  <line transform="rotate(70 0,0)" x1="-500" x2="-400" y1="0" y2="0" class="line5"/>
  <text transform="rotate(75 0,0)" class="text5"><textPath href="#circle5">FELINE</textPath></text>
  <line transform="rotate(102 0,0)" x1="-500" x2="-400" y1="0" y2="0" class="line5"/>
  <text transform="rotate(107 0,0)" class="text5"><textPath href="#circle5">MEDIA</textPath></text>
  <line transform="rotate(132 0,0)" x1="-500" x2="-400" y1="0" y2="0" class="line5"/>
  <text transform="rotate(137 0,0)" class="text5"><textPath href="#circle5">FORMAT</textPath></text>
  <line transform="rotate(169 0,0)" x1="-500" x2="-400" y1="0" y2="0" class="line5"/>
  <text transform="rotate(173 0,0)" class="text5"><textPath href="#circle5">OUTLAW</textPath></text>
  <line transform="rotate(206 0,0)" x1="-500" x2="-400" y1="0" y2="0" class="line5"/>
  <text transform="rotate(211 0,0)" class="text5"><textPath href="#circle5">RELINE</textPath></text>
  <line transform="rotate(239 0,0)" x1="-500" x2="-400" y1="0" y2="0" class="line5"/>
  <text transform="rotate(244 0,0)" class="text5"><textPath href="#circle5">SERVAL</textPath></text>
  <line transform="rotate(274 0,0)" x1="-500" x2="-400" y1="0" y2="0" class="line5"/>
  <text transform="rotate(279 0,0)" class="text5"><textPath href="#circle5">RECLINE</textPath></text>
  <line transform="rotate(312 0,0)" x1="-500" x2="-400" y1="0" y2="0" class="line5"/>
  <text transform="rotate(317 0,0)" class="text5"><textPath href="#circle5">ACCENT</textPath></text>
  <line transform="rotate(348 0,0)" x1="-500" x2="-400" y1="0" y2="0" class="line5"/>
  <text transform="rotate(353 0,0)" class="text5"><textPath href="#circle5">FORTE</textPath></text>

</svg>
