  <svg width="500" height="500" viewBox="-550 -550 1100 1100" xmlns="http://www.w3.org/2000/svg">
  <style>
    .text1 { fill: black; font: 50px sans-serif; }
    .text2 { fill: white; font: 50px sans-serif; }
    .line2 { stroke: white; stroke-width:5; }
    .text3 { fill: black; font: 50px sans-serif; }
    .line3 { stroke: black; stroke-width:5; }
    .text4 { fill: white; font: 50px sans-serif; }
    .line4 { stroke: white; stroke-width:5; }
    .text5 { fill: black; font: 50px sans-serif; }
    .line5 { stroke: black; stroke-width:5; }
  </style>

  <circle cx="0" cy="0" r="505" fill="black" />
  <circle cx="0" cy="0" r="500" fill="white" />
  <circle cx="0" cy="0" r="400" fill="black" />
  <circle cx="0" cy="0" r="300" fill="white" />
  <circle cx="0" cy="0" r="200" fill="black" />
  <circle cx="0" cy="0" r="100" fill="white" />
  <line x1="-415" y1="-415" x2="-390" y2="-390" stroke="black" stroke-width="20"/>
  <polygon points="-375 -415, -415 -375, -360 -360" />

  <path id="circle2" fill="transparent"
      d="
      M 0 0
      m -130, 0
      a 130,130 0 1,1 260,0
      a 130,130 0 1,1 -260,0
      "
  />
  <path id="circle3" fill="transparent"
      d="
      M 0 0
      m -230, 0
      a 230,230 0 1,1 460,0
      a 230,230 0 1,1 -460,0
      "
  />
  <path id="circle4" fill="transparent"
      d="
      M 0 0
      m -330, 0
      a 330,330 0 1,1 660,0
      a 330,330 0 1,1 -660,0
      "
  />
  <path id="circle5" fill="transparent"
      d="
      M 0 0
      m -430, 0
      a 430,430 0 1,1 860,0
      a 430,430 0 1,1 -860,0
      "
  />

  <!-- First circle -->
  <text x="0" y="0" dominant-baseline="middle" text-anchor="middle" class="text1">GOLGI</text>

  <!-- Second circle -->
  <line transform="rotate(-4 0,0)" x1="-200" x2="-100" y1="0" y2="0" class="line2"/>
  <text transform="rotate(12 0,0)" class="text2"><textPath href="#circle2">PLANE</textPath></text>
  <line transform="rotate(103 0,0)" x1="-200" x2="-100" y1="0" y2="0" class="line2"/>
  <text transform="rotate(120 0,0)" class="text2"><textPath href="#circle2">BOTHER</textPath></text>
  <line transform="rotate(231 0,0)" x1="-200" x2="-100" y1="0" y2="0" class="line2"/>
  <text transform="rotate(248 0,0)" class="text2"><textPath href="#circle2">WRIGHT</textPath></text>

  <!-- Third circle -->
  <line transform="rotate(33 0,0)" x1="-300" x2="-200" y1="0" y2="0" class="line3"/>
  <text transform="rotate(39 0,0)" class="text3"><textPath href="#circle3">OVER</textPath></text>
  <line transform="rotate(80 0,0)" x1="-300" x2="-200" y1="0" y2="0" class="line3"/>
  <text transform="rotate(86 0,0)" class="text3"><textPath href="#circle3">PLANET</textPath></text>
  <line transform="rotate(140 0,0)" x1="-300" x2="-200" y1="0" y2="0" class="line3"/>
  <text transform="rotate(146 0,0)" class="text3"><textPath href="#circle3">COW</textPath></text>
  <line transform="rotate(183 0,0)" x1="-300" x2="-200" y1="0" y2="0" class="line3"/>
  <text transform="rotate(189 0,0)" class="text3"><textPath href="#circle3">CELL</textPath></text>
  <line transform="rotate(226 0,0)" x1="-300" x2="-200" y1="0" y2="0" class="line3"/>
  <text transform="rotate(232 0,0)" class="text3"><textPath href="#circle3">EARTH</textPath></text>
  <line transform="rotate(280 0,0)" x1="-300" x2="-200" y1="0" y2="0" class="line3"/>
  <text transform="rotate(286 0,0)" class="text3"><textPath href="#circle3">TAIL</textPath></text>
  <line transform="rotate(319 0,0)" x1="-300" x2="-200" y1="0" y2="0" class="line3"/>
  <text transform="rotate(325 0,0)" class="text3"><textPath href="#circle3">WEATHER</textPath></text>

  <!-- Fourth circle -->
  <line transform="rotate(-1 0,0)" x1="-400" x2="-300" y1="0" y2="0" class="line4"/>
  <text transform="rotate(6 0,0)" class="text4"><textPath href="#circle4">FOREMAST</textPath></text>
  <line transform="rotate(61 0,0)" x1="-400" x2="-300" y1="0" y2="0" class="line4"/>
  <text transform="rotate(68 0,0)" class="text4"><textPath href="#circle4">ROVER</textPath></text>
  <line transform="rotate(107 0,0)" x1="-400" x2="-300" y1="0" y2="0" class="line4"/>
  <text transform="rotate(114 0,0)" class="text4"><textPath href="#circle4">UNDER</textPath></text>
  <line transform="rotate(152 0,0)" x1="-400" x2="-300" y1="0" y2="0" class="line4"/>
  <text transform="rotate(159 0,0)" class="text4"><textPath href="#circle4">UDDER</textPath></text>
  <line transform="rotate(197 0,0)" x1="-400" x2="-300" y1="0" y2="0" class="line4"/>
  <text transform="rotate(204 0,0)" class="text4"><textPath href="#circle4">RIVER</textPath></text>
  <line transform="rotate(238 0,0)" x1="-400" x2="-300" y1="0" y2="0" class="line4"/>
  <text transform="rotate(245 0,0)" class="text4"><textPath href="#circle4">JAIL</textPath></text>
  <line transform="rotate(270 0,0)" x1="-400" x2="-300" y1="0" y2="0" class="line4"/>
  <text transform="rotate(277 0,0)" class="text4"><textPath href="#circle4">HEART</textPath></text>
  <line transform="rotate(314 0,0)" x1="-400" x2="-300" y1="0" y2="0" class="line4"/>
  <text transform="rotate(321 0,0)" class="text4"><textPath href="#circle4">OTHER</textPath></text>

  <!-- Fifth circle -->
  <line transform="rotate(22 0,0)" x1="-500" x2="-400" y1="0" y2="0" class="line5"/>
  <text transform="rotate(26 0,0)" class="text5"><textPath href="#circle5">FOREMOST</textPath></text>
  <line transform="rotate(68 0,0)" x1="-500" x2="-400" y1="0" y2="0" class="line5"/>
  <text transform="rotate(73 0,0)" class="text5"><textPath href="#circle5">HEAD</textPath></text>
  <line transform="rotate(96 0,0)" x1="-500" x2="-400" y1="0" y2="0" class="line5"/>
  <text transform="rotate(100 0,0)" class="text5"><textPath href="#circle5">LEATHER</textPath></text>
  <line transform="rotate(135 0,0)" x1="-500" x2="-400" y1="0" y2="0" class="line5"/>
  <text transform="rotate(140 0,0)" class="text5"><textPath href="#circle5">ORGANELLE</textPath></text>
  <line transform="rotate(185 0,0)" x1="-500" x2="-400" y1="0" y2="0" class="line5"/>
  <text transform="rotate(190 0,0)" class="text5"><textPath href="#circle5">HEARD</textPath></text>
  <line transform="rotate(218 0,0)" x1="-500" x2="-400" y1="0" y2="0" class="line5"/>
  <text transform="rotate(222 0,0)" class="text5"><textPath href="#circle5">FORECAST</textPath></text>
  <line transform="rotate(263 0,0)" x1="-500" x2="-400" y1="0" y2="0" class="line5"/>
  <text transform="rotate(267 0,0)" class="text5"><textPath href="#circle5">BROTHER</textPath></text>
  <line transform="rotate(304 0,0)" x1="-500" x2="-400" y1="0" y2="0" class="line5"/>
  <text transform="rotate(309 0,0)" class="text5"><textPath href="#circle5">BROTHERS</textPath></text>
  <line transform="rotate(350 0,0)" x1="-500" x2="-400" y1="0" y2="0" class="line5"/>
  <text transform="rotate(354 0,0)" class="text5"><textPath href="#circle5">OTTER</textPath></text>

</svg>
