  <svg width="500" height="500" viewBox="-550 -550 1100 1100" xmlns="http://www.w3.org/2000/svg">
  <style>
    .text1 { fill: black; font: 50px sans-serif; }
    .text2 { fill: white; font: 50px sans-serif; }
    .line2 { stroke: white; stroke-width:5; }
    .text3 { fill: black; font: 50px sans-serif; }
    .line3 { stroke: black; stroke-width:5; }
    .text4 { fill: white; font: 50px sans-serif; }
    .line4 { stroke: white; stroke-width:5; }
    .text5 { fill: black; font: 50px sans-serif; }
    .line5 { stroke: black; stroke-width:5; }
  </style>

  <circle cx="0" cy="0" r="505" fill="black" />
  <circle cx="0" cy="0" r="500" fill="white" />
  <circle cx="0" cy="0" r="400" fill="black" />
  <circle cx="0" cy="0" r="300" fill="white" />
  <circle cx="0" cy="0" r="200" fill="black" />
  <circle cx="0" cy="0" r="100" fill="white" />
  <line x1="-415" y1="-415" x2="-390" y2="-390" stroke="black" stroke-width="20"/>
  <polygon points="-375 -415, -415 -375, -360 -360" />

  <path id="circle2" fill="transparent"
      d="
      M 0 0
      m -130, 0
      a 130,130 0 1,1 260,0
      a 130,130 0 1,1 -260,0
      "
  />
  <path id="circle3" fill="transparent"
      d="
      M 0 0
      m -230, 0
      a 230,230 0 1,1 460,0
      a 230,230 0 1,1 -460,0
      "
  />
  <path id="circle4" fill="transparent"
      d="
      M 0 0
      m -330, 0
      a 330,330 0 1,1 660,0
      a 330,330 0 1,1 -660,0
      "
  />
  <path id="circle5" fill="transparent"
      d="
      M 0 0
      m -430, 0
      a 430,430 0 1,1 860,0
      a 430,430 0 1,1 -860,0
      "
  />

  <!-- First circle -->
  <text x="0" y="0" dominant-baseline="middle" text-anchor="middle" class="text1">CHEF</text>

  <!-- Second circle -->
  <line transform="rotate(-18 0,0)" x1="-200" x2="-100" y1="0" y2="0" class="line2"/>
  <text transform="rotate(-3 0,0)" class="text2"><textPath href="#circle2">MARID</textPath></text>
  <line transform="rotate(85 0,0)" x1="-200" x2="-100" y1="0" y2="0" class="line2"/>
  <text transform="rotate(100 0,0)" class="text2"><textPath href="#circle2">MARIO</textPath></text>
  <line transform="rotate(189 0,0)" x1="-200" x2="-100" y1="0" y2="0" class="line2"/>
  <text transform="rotate(204 0,0)" class="text2"><textPath href="#circle2">ELECTRON</textPath></text>

  <!-- Third circle -->
  <line transform="rotate(17 0,0)" x1="-300" x2="-200" y1="0" y2="0" class="line3"/>
  <text transform="rotate(24 0,0)" class="text3"><textPath href="#circle3">MADRID</textPath></text>
  <line transform="rotate(80 0,0)" x1="-300" x2="-200" y1="0" y2="0" class="line3"/>
  <text transform="rotate(87 0,0)" class="text3"><textPath href="#circle3">THIEF</textPath></text>
  <line transform="rotate(130 0,0)" x1="-300" x2="-200" y1="0" y2="0" class="line3"/>
  <text transform="rotate(138 0,0)" class="text3"><textPath href="#circle3">GALVANI</textPath></text>
  <line transform="rotate(199 0,0)" x1="-300" x2="-200" y1="0" y2="0" class="line3"/>
  <text transform="rotate(206 0,0)" class="text3"><textPath href="#circle3">CHIEF</textPath></text>
  <line transform="rotate(250 0,0)" x1="-300" x2="-200" y1="0" y2="0" class="line3"/>
  <text transform="rotate(258 0,0)" class="text3"><textPath href="#circle3">LUIGI</textPath></text>
  <line transform="rotate(298 0,0)" x1="-300" x2="-200" y1="0" y2="0" class="line3"/>
  <text transform="rotate(305 0,0)" class="text3"><textPath href="#circle3">POSITRON</textPath></text>

  <!-- Fourth circle -->
  <line transform="rotate(32 0,0)" x1="-400" x2="-300" y1="0" y2="0" class="line4"/>
  <text transform="rotate(38 0,0)" class="text4"><textPath href="#circle4">OPTIONS</textPath></text>
  <line transform="rotate(85 0,0)" x1="-400" x2="-300" y1="0" y2="0" class="line4"/>
  <text transform="rotate(92 0,0)" class="text4"><textPath href="#circle4">DEFENSE</textPath></text>
  <line transform="rotate(140 0,0)" x1="-400" x2="-300" y1="0" y2="0" class="line4"/>
  <text transform="rotate(147 0,0)" class="text4"><textPath href="#circle4">DERIVATIVES</textPath></text>
  <line transform="rotate(211 0,0)" x1="-400" x2="-300" y1="0" y2="0" class="line4"/>
  <text transform="rotate(218 0,0)" class="text4"><textPath href="#circle4">ZINE</textPath></text>
  <line transform="rotate(245 0,0)" x1="-400" x2="-300" y1="0" y2="0" class="line4"/>
  <text transform="rotate(252 0,0)" class="text4"><textPath href="#circle4">ZONE</textPath></text>
  <line transform="rotate(283 0,0)" x1="-400" x2="-300" y1="0" y2="0" class="line4"/>
  <text transform="rotate(290 0,0)" class="text4"><textPath href="#circle4">POTIONS</textPath></text>
  <line transform="rotate(336 0,0)" x1="-400" x2="-300" y1="0" y2="0" class="line4"/>
  <text transform="rotate(343 0,0)" class="text4"><textPath href="#circle4">OFFENSE</textPath></text>

  <!-- Fifth circle -->
  <line transform="rotate(24 0,0)" x1="-500" x2="-400" y1="0" y2="0" class="line5"/>
  <text transform="rotate(28 0,0)" class="text5"><textPath href="#circle5">TRIANGLE</textPath></text>
  <line transform="rotate(66 0,0)" x1="-500" x2="-400" y1="0" y2="0" class="line5"/>
  <text transform="rotate(71 0,0)" class="text5"><textPath href="#circle5">SPAIN</textPath></text>
  <line transform="rotate(95 0,0)" x1="-500" x2="-400" y1="0" y2="0" class="line5"/>
  <text transform="rotate(100 0,0)" class="text5"><textPath href="#circle5">ZINC</textPath></text>
  <line transform="rotate(120 0,0)" x1="-500" x2="-400" y1="0" y2="0" class="line5"/>
  <text transform="rotate(124 0,0)" class="text5"><textPath href="#circle5">PORTIONS</textPath></text>
  <line transform="rotate(164 0,0)" x1="-500" x2="-400" y1="0" y2="0" class="line5"/>
  <text transform="rotate(168 0,0)" class="text5"><textPath href="#circle5">INTEGRAL</textPath></text>
  <line transform="rotate(206 0,0)" x1="-500" x2="-400" y1="0" y2="0" class="line5"/>
  <text transform="rotate(211 0,0)" class="text5"><textPath href="#circle5">DERIVATIVE</textPath></text>
  <line transform="rotate(255 0,0)" x1="-500" x2="-400" y1="0" y2="0" class="line5"/>
  <text transform="rotate(260 0,0)" class="text5"><textPath href="#circle5">GALVANIZATION</textPath></text>
  <line transform="rotate(318 0,0)" x1="-500" x2="-400" y1="0" y2="0" class="line5"/>
  <text transform="rotate(322 0,0)" class="text5"><textPath href="#circle5">CRIMINAL</textPath></text>
  <line transform="rotate(359 0,0)" x1="-500" x2="-400" y1="0" y2="0" class="line5"/>
  <text transform="rotate(3 0,0)" class="text5"><textPath href="#circle5">SPIN</textPath></text>

</svg>
