  <svg width="500" height="500" viewBox="-550 -550 1100 1100" xmlns="http://www.w3.org/2000/svg">
  <style>
    .text1 { fill: black; font: 50px sans-serif; }
    .text2 { fill: white; font: 50px sans-serif; }
    .line2 { stroke: white; stroke-width:5; }
    .text3 { fill: black; font: 50px sans-serif; }
    .line3 { stroke: black; stroke-width:5; }
    .text4 { fill: white; font: 50px sans-serif; }
    .line4 { stroke: white; stroke-width:5; }
    .text5 { fill: black; font: 50px sans-serif; }
    .line5 { stroke: black; stroke-width:5; }
  </style>

  <circle cx="0" cy="0" r="505" fill="black" />
  <circle cx="0" cy="0" r="500" fill="white" />
  <circle cx="0" cy="0" r="400" fill="black" />
  <circle cx="0" cy="0" r="300" fill="white" />
  <circle cx="0" cy="0" r="200" fill="black" />
  <circle cx="0" cy="0" r="100" fill="white" />
  <line x1="-415" y1="-415" x2="-390" y2="-390" stroke="black" stroke-width="20"/>
  <polygon points="-375 -415, -415 -375, -360 -360" />

  <path id="circle2" fill="transparent"
      d="
      M 0 0
      m -130, 0
      a 130,130 0 1,1 260,0
      a 130,130 0 1,1 -260,0
      "
  />
  <path id="circle3" fill="transparent"
      d="
      M 0 0
      m -230, 0
      a 230,230 0 1,1 460,0
      a 230,230 0 1,1 -460,0
      "
  />
  <path id="circle4" fill="transparent"
      d="
      M 0 0
      m -330, 0
      a 330,330 0 1,1 660,0
      a 330,330 0 1,1 -660,0
      "
  />
  <path id="circle5" fill="transparent"
      d="
      M 0 0
      m -430, 0
      a 430,430 0 1,1 860,0
      a 430,430 0 1,1 -860,0
      "
  />

  <!-- First circle -->
  <text x="0" y="0" dominant-baseline="middle" text-anchor="middle" class="text1">BEE</text>

  <!-- Second circle -->
  <line transform="rotate(24 0,0)" x1="-200" x2="-100" y1="0" y2="0" class="line2"/>
  <text transform="rotate(35 0,0)" class="text2"><textPath href="#circle2">VALVE</textPath></text>
  <line transform="rotate(119 0,0)" x1="-200" x2="-100" y1="0" y2="0" class="line2"/>
  <text transform="rotate(130 0,0)" class="text2"><textPath href="#circle2">VALOR</textPath></text>
  <line transform="rotate(218 0,0)" x1="-200" x2="-100" y1="0" y2="0" class="line2"/>
  <text transform="rotate(229 0,0)" class="text2"><textPath href="#circle2">SOLVE</textPath></text>
  <line transform="rotate(315 0,0)" x1="-200" x2="-100" y1="0" y2="0" class="line2"/>
  <text transform="rotate(327 0,0)" class="text2"><textPath href="#circle2">SAX</textPath></text>

  <!-- Third circle -->
  <line transform="rotate(-15 0,0)" x1="-300" x2="-200" y1="0" y2="0" class="line3"/>
  <text transform="rotate(-7 0,0)" class="text3"><textPath href="#circle3">MASTERY</textPath></text>
  <line transform="rotate(61 0,0)" x1="-300" x2="-200" y1="0" y2="0" class="line3"/>
  <text transform="rotate(70 0,0)" class="text3"><textPath href="#circle3">CONSTANT</textPath></text>
  <line transform="rotate(146 0,0)" x1="-300" x2="-200" y1="0" y2="0" class="line3"/>
  <text transform="rotate(155 0,0)" class="text3"><textPath href="#circle3">SOLVER</textPath></text>
  <line transform="rotate(213 0,0)" x1="-300" x2="-200" y1="0" y2="0" class="line3"/>
  <text transform="rotate(222 0,0)" class="text3"><textPath href="#circle3">STREAM</textPath></text>
  <line transform="rotate(282 0,0)" x1="-300" x2="-200" y1="0" y2="0" class="line3"/>
  <text transform="rotate(291 0,0)" class="text3"><textPath href="#circle3">ARGON</textPath></text>

  <!-- Fourth circle -->
  <line transform="rotate(4 0,0)" x1="-400" x2="-300" y1="0" y2="0" class="line4"/>
  <text transform="rotate(9 0,0)" class="text4"><textPath href="#circle4">CITADEL</textPath></text>
  <line transform="rotate(50 0,0)" x1="-400" x2="-300" y1="0" y2="0" class="line4"/>
  <text transform="rotate(55 0,0)" class="text4"><textPath href="#circle4">HONOR</textPath></text>
  <line transform="rotate(93 0,0)" x1="-400" x2="-300" y1="0" y2="0" class="line4"/>
  <text transform="rotate(98 0,0)" class="text4"><textPath href="#circle4">ORGAN</textPath></text>
  <line transform="rotate(135 0,0)" x1="-400" x2="-300" y1="0" y2="0" class="line4"/>
  <text transform="rotate(140 0,0)" class="text4"><textPath href="#circle4">DONOR</textPath></text>
  <line transform="rotate(178 0,0)" x1="-400" x2="-300" y1="0" y2="0" class="line4"/>
  <text transform="rotate(183 0,0)" class="text4"><textPath href="#circle4">DIALECT</textPath></text>
  <line transform="rotate(224 0,0)" x1="-400" x2="-300" y1="0" y2="0" class="line4"/>
  <text transform="rotate(229 0,0)" class="text4"><textPath href="#circle4">VARIABLE</textPath></text>
  <line transform="rotate(277 0,0)" x1="-400" x2="-300" y1="0" y2="0" class="line4"/>
  <text transform="rotate(282 0,0)" class="text4"><textPath href="#circle4">STEAM</textPath></text>
  <line transform="rotate(317 0,0)" x1="-400" x2="-300" y1="0" y2="0" class="line4"/>
  <text transform="rotate(322 0,0)" class="text4"><textPath href="#circle4">JARGON</textPath></text>

  <!-- Fifth circle -->
  <line transform="rotate(17 0,0)" x1="-500" x2="-400" y1="0" y2="0" class="line5"/>
  <text transform="rotate(21 0,0)" class="text5"><textPath href="#circle5">STRONGHOLD</textPath></text>
  <line transform="rotate(73 0,0)" x1="-500" x2="-400" y1="0" y2="0" class="line5"/>
  <text transform="rotate(78 0,0)" class="text5"><textPath href="#circle5">WAX</textPath></text>
  <line transform="rotate(98 0,0)" x1="-500" x2="-400" y1="0" y2="0" class="line5"/>
  <text transform="rotate(103 0,0)" class="text5"><textPath href="#circle5">MYSTERY</textPath></text>
  <line transform="rotate(140 0,0)" x1="-500" x2="-400" y1="0" y2="0" class="line5"/>
  <text transform="rotate(145 0,0)" class="text5"><textPath href="#circle5">VAPOR</textPath></text>
  <line transform="rotate(173 0,0)" x1="-500" x2="-400" y1="0" y2="0" class="line5"/>
  <text transform="rotate(178 0,0)" class="text5"><textPath href="#circle5">MASTER</textPath></text>
  <line transform="rotate(210 0,0)" x1="-500" x2="-400" y1="0" y2="0" class="line5"/>
  <text transform="rotate(215 0,0)" class="text5"><textPath href="#circle5">SALVE</textPath></text>
  <line transform="rotate(242 0,0)" x1="-500" x2="-400" y1="0" y2="0" class="line5"/>
  <text transform="rotate(247 0,0)" class="text5"><textPath href="#circle5">MAX</textPath></text>
  <line transform="rotate(266 0,0)" x1="-500" x2="-400" y1="0" y2="0" class="line5"/>
  <text transform="rotate(271 0,0)" class="text5"><textPath href="#circle5">VALUE</textPath></text>
  <line transform="rotate(298 0,0)" x1="-500" x2="-400" y1="0" y2="0" class="line5"/>
  <text transform="rotate(302 0,0)" class="text5"><textPath href="#circle5">PROBLEM</textPath></text>
  <line transform="rotate(340 0,0)" x1="-500" x2="-400" y1="0" y2="0" class="line5"/>
  <text transform="rotate(345 0,0)" class="text5"><textPath href="#circle5">PLANCK</textPath></text>

</svg>
