  <svg width="500" height="500" viewBox="-550 -550 1100 1100" xmlns="http://www.w3.org/2000/svg">
  <style>
    .text1 { fill: black; font: 50px sans-serif; }
    .text2 { fill: white; font: 50px sans-serif; }
    .line2 { stroke: white; stroke-width:5; }
    .text3 { fill: black; font: 50px sans-serif; }
    .line3 { stroke: black; stroke-width:5; }
    .text4 { fill: white; font: 50px sans-serif; }
    .line4 { stroke: white; stroke-width:5; }
    .text5 { fill: black; font: 50px sans-serif; }
    .line5 { stroke: black; stroke-width:5; }
  </style>

  <circle cx="0" cy="0" r="505" fill="black" />
  <circle cx="0" cy="0" r="500" fill="white" />
  <circle cx="0" cy="0" r="400" fill="black" />
  <circle cx="0" cy="0" r="300" fill="white" />
  <circle cx="0" cy="0" r="200" fill="black" />
  <circle cx="0" cy="0" r="100" fill="white" />
  <line x1="-415" y1="-415" x2="-390" y2="-390" stroke="black" stroke-width="20"/>
  <polygon points="-375 -415, -415 -375, -360 -360" />

  <path id="circle2" fill="transparent"
      d="
      M 0 0
      m -130, 0
      a 130,130 0 1,1 260,0
      a 130,130 0 1,1 -260,0
      "
  />
  <path id="circle3" fill="transparent"
      d="
      M 0 0
      m -230, 0
      a 230,230 0 1,1 460,0
      a 230,230 0 1,1 -460,0
      "
  />
  <path id="circle4" fill="transparent"
      d="
      M 0 0
      m -330, 0
      a 330,330 0 1,1 660,0
      a 330,330 0 1,1 -660,0
      "
  />
  <path id="circle5" fill="transparent"
      d="
      M 0 0
      m -430, 0
      a 430,430 0 1,1 860,0
      a 430,430 0 1,1 -860,0
      "
  />

  <!-- First circle -->
  <text x="0" y="0" dominant-baseline="middle" text-anchor="middle" class="text1">REAL</text>

  <!-- Second circle -->
  <line transform="rotate(21 0,0)" x1="-200" x2="-100" y1="0" y2="0" class="line2"/>
  <text transform="rotate(31 0,0)" class="text2"><textPath href="#circle2">FASTER</textPath></text>
  <line transform="rotate(131 0,0)" x1="-200" x2="-100" y1="0" y2="0" class="line2"/>
  <text transform="rotate(141 0,0)" class="text2"><textPath href="#circle2">ION</textPath></text>
  <line transform="rotate(192 0,0)" x1="-200" x2="-100" y1="0" y2="0" class="line2"/>
  <text transform="rotate(202 0,0)" class="text2"><textPath href="#circle2">BUNNY</textPath></text>
  <line transform="rotate(292 0,0)" x1="-200" x2="-100" y1="0" y2="0" class="line2"/>
  <text transform="rotate(302 0,0)" class="text2"><textPath href="#circle2">MODE</textPath></text>

  <!-- Third circle -->
  <line transform="rotate(-26 0,0)" x1="-300" x2="-200" y1="0" y2="0" class="line3"/>
  <text transform="rotate(-19 0,0)" class="text3"><textPath href="#circle3">SLOWER</textPath></text>
  <line transform="rotate(41 0,0)" x1="-300" x2="-200" y1="0" y2="0" class="line3"/>
  <text transform="rotate(48 0,0)" class="text3"><textPath href="#circle3">POINTER</textPath></text>
  <line transform="rotate(109 0,0)" x1="-300" x2="-200" y1="0" y2="0" class="line3"/>
  <text transform="rotate(116 0,0)" class="text3"><textPath href="#circle3">LASER</textPath></text>
  <line transform="rotate(164 0,0)" x1="-300" x2="-200" y1="0" y2="0" class="line3"/>
  <text transform="rotate(171 0,0)" class="text3"><textPath href="#circle3">IRON</textPath></text>
  <line transform="rotate(208 0,0)" x1="-300" x2="-200" y1="0" y2="0" class="line3"/>
  <text transform="rotate(215 0,0)" class="text3"><textPath href="#circle3">EASTER</textPath></text>
  <line transform="rotate(272 0,0)" x1="-300" x2="-200" y1="0" y2="0" class="line3"/>
  <text transform="rotate(279 0,0)" class="text3"><textPath href="#circle3">MEDIAN</textPath></text>

  <!-- Fourth circle -->
  <line transform="rotate(-13 0,0)" x1="-400" x2="-300" y1="0" y2="0" class="line4"/>
  <text transform="rotate(-8 0,0)" class="text4"><textPath href="#circle4">MAIDEN</textPath></text>
  <line transform="rotate(32 0,0)" x1="-400" x2="-300" y1="0" y2="0" class="line4"/>
  <text transform="rotate(38 0,0)" class="text4"><textPath href="#circle4">COMICAL</textPath></text>
  <line transform="rotate(84 0,0)" x1="-400" x2="-300" y1="0" y2="0" class="line4"/>
  <text transform="rotate(90 0,0)" class="text4"><textPath href="#circle4">HOME</textPath></text>
  <line transform="rotate(122 0,0)" x1="-400" x2="-300" y1="0" y2="0" class="line4"/>
  <text transform="rotate(128 0,0)" class="text4"><textPath href="#circle4">CONICAL</textPath></text>
  <line transform="rotate(172 0,0)" x1="-400" x2="-300" y1="0" y2="0" class="line4"/>
  <text transform="rotate(178 0,0)" class="text4"><textPath href="#circle4">CYNICAL</textPath></text>
  <line transform="rotate(222 0,0)" x1="-400" x2="-300" y1="0" y2="0" class="line4"/>
  <text transform="rotate(228 0,0)" class="text4"><textPath href="#circle4">FUNNY</textPath></text>
  <line transform="rotate(264 0,0)" x1="-400" x2="-300" y1="0" y2="0" class="line4"/>
  <text transform="rotate(270 0,0)" class="text4"><textPath href="#circle4">PION</textPath></text>
  <line transform="rotate(297 0,0)" x1="-400" x2="-300" y1="0" y2="0" class="line4"/>
  <text transform="rotate(303 0,0)" class="text4"><textPath href="#circle4">PANSIES</textPath></text>

  <!-- Fifth circle -->
  <line transform="rotate(20 0,0)" x1="-500" x2="-400" y1="0" y2="0" class="line5"/>
  <text transform="rotate(24 0,0)" class="text5"><textPath href="#circle5">PESSIMISTIC</textPath></text>
  <line transform="rotate(70 0,0)" x1="-500" x2="-400" y1="0" y2="0" class="line5"/>
  <text transform="rotate(74 0,0)" class="text5"><textPath href="#circle5">FLOWERS</textPath></text>
  <line transform="rotate(112 0,0)" x1="-500" x2="-400" y1="0" y2="0" class="line5"/>
  <text transform="rotate(116 0,0)" class="text5"><textPath href="#circle5">SAPIENS</textPath></text>
  <line transform="rotate(149 0,0)" x1="-500" x2="-400" y1="0" y2="0" class="line5"/>
  <text transform="rotate(153 0,0)" class="text5"><textPath href="#circle5">REALS</textPath></text>
  <line transform="rotate(180 0,0)" x1="-500" x2="-400" y1="0" y2="0" class="line5"/>
  <text transform="rotate(184 0,0)" class="text5"><textPath href="#circle5">PRION</textPath></text>
  <line transform="rotate(209 0,0)" x1="-500" x2="-400" y1="0" y2="0" class="line5"/>
  <text transform="rotate(213 0,0)" class="text5"><textPath href="#circle5">HOMO</textPath></text>
  <line transform="rotate(238 0,0)" x1="-500" x2="-400" y1="0" y2="0" class="line5"/>
  <text transform="rotate(242 0,0)" class="text5"><textPath href="#circle5">PROTEIN</textPath></text>
  <line transform="rotate(276 0,0)" x1="-500" x2="-400" y1="0" y2="0" class="line5"/>
  <text transform="rotate(280 0,0)" class="text5"><textPath href="#circle5">PRINTER</textPath></text>
  <line transform="rotate(314 0,0)" x1="-500" x2="-400" y1="0" y2="0" class="line5"/>
  <text transform="rotate(318 0,0)" class="text5"><textPath href="#circle5">DOME</textPath></text>
  <line transform="rotate(342 0,0)" x1="-500" x2="-400" y1="0" y2="0" class="line5"/>
  <text transform="rotate(346 0,0)" class="text5"><textPath href="#circle5">FLOWER</textPath></text>

</svg>
