  <svg width="500" height="500" viewBox="-550 -550 1100 1100" xmlns="http://www.w3.org/2000/svg">
  <style>
    .text1 { fill: black; font: 50px sans-serif; }
    .text2 { fill: white; font: 50px sans-serif; }
    .line2 { stroke: white; stroke-width:5; }
    .text3 { fill: black; font: 50px sans-serif; }
    .line3 { stroke: black; stroke-width:5; }
    .text4 { fill: white; font: 50px sans-serif; }
    .line4 { stroke: white; stroke-width:5; }
    .text5 { fill: black; font: 50px sans-serif; }
    .line5 { stroke: black; stroke-width:5; }
  </style>

  <circle cx="0" cy="0" r="505" fill="black" />
  <circle cx="0" cy="0" r="500" fill="white" />
  <circle cx="0" cy="0" r="400" fill="black" />
  <circle cx="0" cy="0" r="300" fill="white" />
  <circle cx="0" cy="0" r="200" fill="black" />
  <circle cx="0" cy="0" r="100" fill="white" />
  <line x1="-415" y1="-415" x2="-390" y2="-390" stroke="black" stroke-width="20"/>
  <polygon points="-375 -415, -415 -375, -360 -360" />

  <path id="circle2" fill="transparent"
      d="
      M 0 0
      m -130, 0
      a 130,130 0 1,1 260,0
      a 130,130 0 1,1 -260,0
      "
  />
  <path id="circle3" fill="transparent"
      d="
      M 0 0
      m -230, 0
      a 230,230 0 1,1 460,0
      a 230,230 0 1,1 -460,0
      "
  />
  <path id="circle4" fill="transparent"
      d="
      M 0 0
      m -330, 0
      a 330,330 0 1,1 660,0
      a 330,330 0 1,1 -660,0
      "
  />
  <path id="circle5" fill="transparent"
      d="
      M 0 0
      m -430, 0
      a 430,430 0 1,1 860,0
      a 430,430 0 1,1 -860,0
      "
  />

  <!-- First circle -->
  <text x="0" y="0" dominant-baseline="middle" text-anchor="middle" class="text1">OVER</text>

  <!-- Second circle -->
  <line transform="rotate(22 0,0)" x1="-200" x2="-100" y1="0" y2="0" class="line2"/>
  <text transform="rotate(32 0,0)" class="text2"><textPath href="#circle2">SILVER</textPath></text>
  <line transform="rotate(122 0,0)" x1="-200" x2="-100" y1="0" y2="0" class="line2"/>
  <text transform="rotate(132 0,0)" class="text2"><textPath href="#circle2">GRAIL</textPath></text>
  <line transform="rotate(209 0,0)" x1="-200" x2="-100" y1="0" y2="0" class="line2"/>
  <text transform="rotate(220 0,0)" class="text2"><textPath href="#circle2">OVERT</textPath></text>
  <line transform="rotate(307 0,0)" x1="-200" x2="-100" y1="0" y2="0" class="line2"/>
  <text transform="rotate(317 0,0)" class="text2"><textPath href="#circle2">RICE</textPath></text>

  <!-- Third circle -->
  <line transform="rotate(-9 0,0)" x1="-300" x2="-200" y1="0" y2="0" class="line3"/>
  <text transform="rotate(-2 0,0)" class="text3"><textPath href="#circle3">NASCAR</textPath></text>
  <line transform="rotate(57 0,0)" x1="-300" x2="-200" y1="0" y2="0" class="line3"/>
  <text transform="rotate(65 0,0)" class="text3"><textPath href="#circle3">CLOVERS</textPath></text>
  <line transform="rotate(132 0,0)" x1="-300" x2="-200" y1="0" y2="0" class="line3"/>
  <text transform="rotate(140 0,0)" class="text3"><textPath href="#circle3">HOLY</textPath></text>
  <line transform="rotate(181 0,0)" x1="-300" x2="-200" y1="0" y2="0" class="line3"/>
  <text transform="rotate(189 0,0)" class="text3"><textPath href="#circle3">CLEVER</textPath></text>
  <line transform="rotate(246 0,0)" x1="-300" x2="-200" y1="0" y2="0" class="line3"/>
  <text transform="rotate(253 0,0)" class="text3"><textPath href="#circle3">GOLD</textPath></text>
  <line transform="rotate(296 0,0)" x1="-300" x2="-200" y1="0" y2="0" class="line3"/>
  <text transform="rotate(304 0,0)" class="text3"><textPath href="#circle3">GRAIN</textPath></text>

  <!-- Fourth circle -->
  <line transform="rotate(-1 0,0)" x1="-400" x2="-300" y1="0" y2="0" class="line4"/>
  <text transform="rotate(4 0,0)" class="text4"><textPath href="#circle4">BUTCHER</textPath></text>
  <line transform="rotate(52 0,0)" x1="-400" x2="-300" y1="0" y2="0" class="line4"/>
  <text transform="rotate(58 0,0)" class="text4"><textPath href="#circle4">CLEAVER</textPath></text>
  <line transform="rotate(104 0,0)" x1="-400" x2="-300" y1="0" y2="0" class="line4"/>
  <text transform="rotate(110 0,0)" class="text4"><textPath href="#circle4">COVERT</textPath></text>
  <line transform="rotate(152 0,0)" x1="-400" x2="-300" y1="0" y2="0" class="line4"/>
  <text transform="rotate(158 0,0)" class="text4"><textPath href="#circle4">LIVERS</textPath></text>
  <line transform="rotate(194 0,0)" x1="-400" x2="-300" y1="0" y2="0" class="line4"/>
  <text transform="rotate(200 0,0)" class="text4"><textPath href="#circle4">RASCAL</textPath></text>
  <line transform="rotate(240 0,0)" x1="-400" x2="-300" y1="0" y2="0" class="line4"/>
  <text transform="rotate(246 0,0)" class="text4"><textPath href="#circle4">RACE</textPath></text>
  <line transform="rotate(276 0,0)" x1="-400" x2="-300" y1="0" y2="0" class="line4"/>
  <text transform="rotate(282 0,0)" class="text4"><textPath href="#circle4">LOVERS</textPath></text>
  <line transform="rotate(323 0,0)" x1="-400" x2="-300" y1="0" y2="0" class="line4"/>
  <text transform="rotate(329 0,0)" class="text4"><textPath href="#circle4">HOLD</textPath></text>

  <!-- Fifth circle -->
  <line transform="rotate(24 0,0)" x1="-500" x2="-400" y1="0" y2="0" class="line5"/>
  <text transform="rotate(29 0,0)" class="text5"><textPath href="#circle5">WATCHES</textPath></text>
  <line transform="rotate(67 0,0)" x1="-500" x2="-400" y1="0" y2="0" class="line5"/>
  <text transform="rotate(72 0,0)" class="text5"><textPath href="#circle5">WATCHER</textPath></text>
  <line transform="rotate(111 0,0)" x1="-500" x2="-400" y1="0" y2="0" class="line5"/>
  <text transform="rotate(116 0,0)" class="text5"><textPath href="#circle5">LASCAR</textPath></text>
  <line transform="rotate(147 0,0)" x1="-500" x2="-400" y1="0" y2="0" class="line5"/>
  <text transform="rotate(153 0,0)" class="text5"><textPath href="#circle5">PITCHER</textPath></text>
  <line transform="rotate(187 0,0)" x1="-500" x2="-400" y1="0" y2="0" class="line5"/>
  <text transform="rotate(192 0,0)" class="text5"><textPath href="#circle5">CATCHER</textPath></text>
  <line transform="rotate(229 0,0)" x1="-500" x2="-400" y1="0" y2="0" class="line5"/>
  <text transform="rotate(234 0,0)" class="text5"><textPath href="#circle5">PUTCHER</textPath></text>
  <line transform="rotate(271 0,0)" x1="-500" x2="-400" y1="0" y2="0" class="line5"/>
  <text transform="rotate(276 0,0)" class="text5"><textPath href="#circle5">VECTOR</textPath></text>
  <line transform="rotate(309 0,0)" x1="-500" x2="-400" y1="0" y2="0" class="line5"/>
  <text transform="rotate(314 0,0)" class="text5"><textPath href="#circle5">CLOVER</textPath></text>
  <line transform="rotate(347 0,0)" x1="-500" x2="-400" y1="0" y2="0" class="line5"/>
  <text transform="rotate(352 0,0)" class="text5"><textPath href="#circle5">SCALAR</textPath></text>

</svg>
