  <svg width="500" height="500" viewBox="-550 -550 1100 1100" xmlns="http://www.w3.org/2000/svg">
  <style>
    .text1 { fill: black; font: 50px sans-serif; }
    .text2 { fill: white; font: 50px sans-serif; }
    .line2 { stroke: white; stroke-width:5; }
    .text3 { fill: black; font: 50px sans-serif; }
    .line3 { stroke: black; stroke-width:5; }
    .text4 { fill: white; font: 50px sans-serif; }
    .line4 { stroke: white; stroke-width:5; }
    .text5 { fill: black; font: 50px sans-serif; }
    .line5 { stroke: black; stroke-width:5; }
  </style>

  <circle cx="0" cy="0" r="505" fill="black" />
  <circle cx="0" cy="0" r="500" fill="white" />
  <circle cx="0" cy="0" r="400" fill="black" />
  <circle cx="0" cy="0" r="300" fill="white" />
  <circle cx="0" cy="0" r="200" fill="black" />
  <circle cx="0" cy="0" r="100" fill="white" />
  <line x1="-415" y1="-415" x2="-390" y2="-390" stroke="black" stroke-width="20"/>
  <polygon points="-375 -415, -415 -375, -360 -360" />

  <path id="circle2" fill="transparent"
      d="
      M 0 0
      m -130, 0
      a 130,130 0 1,1 260,0
      a 130,130 0 1,1 -260,0
      "
  />
  <path id="circle3" fill="transparent"
      d="
      M 0 0
      m -230, 0
      a 230,230 0 1,1 460,0
      a 230,230 0 1,1 -460,0
      "
  />
  <path id="circle4" fill="transparent"
      d="
      M 0 0
      m -330, 0
      a 330,330 0 1,1 660,0
      a 330,330 0 1,1 -660,0
      "
  />
  <path id="circle5" fill="transparent"
      d="
      M 0 0
      m -430, 0
      a 430,430 0 1,1 860,0
      a 430,430 0 1,1 -860,0
      "
  />

  <!-- First circle -->
  <text x="0" y="0" dominant-baseline="middle" text-anchor="middle" class="text1">LOVE</text>

  <!-- Second circle -->
  <line transform="rotate(32 0,0)" x1="-200" x2="-100" y1="0" y2="0" class="line2"/>
  <text transform="rotate(43 0,0)" class="text2"><textPath href="#circle2">CARTON</textPath></text>
  <line transform="rotate(150 0,0)" x1="-200" x2="-100" y1="0" y2="0" class="line2"/>
  <text transform="rotate(162 0,0)" class="text2"><textPath href="#circle2">CARDOON</textPath></text>
  <line transform="rotate(289 0,0)" x1="-200" x2="-100" y1="0" y2="0" class="line2"/>
  <text transform="rotate(301 0,0)" class="text2"><textPath href="#circle2">PROBE</textPath></text>

  <!-- Third circle -->
  <line transform="rotate(-1 0,0)" x1="-300" x2="-200" y1="0" y2="0" class="line3"/>
  <text transform="rotate(11 0,0)" class="text3"><textPath href="#circle3">INJECT</textPath></text>
  <line transform="rotate(65 0,0)" x1="-300" x2="-200" y1="0" y2="0" class="line3"/>
  <text transform="rotate(78 0,0)" class="text3"><textPath href="#circle3">NEEDLE</textPath></text>
  <line transform="rotate(139 0,0)" x1="-300" x2="-200" y1="0" y2="0" class="line3"/>
  <text transform="rotate(151 0,0)" class="text3"><textPath href="#circle3">CARBON</textPath></text>
  <line transform="rotate(215 0,0)" x1="-300" x2="-200" y1="0" y2="0" class="line3"/>
  <text transform="rotate(227 0,0)" class="text3"><textPath href="#circle3">INSECT</textPath></text>
  <line transform="rotate(284 0,0)" x1="-300" x2="-200" y1="0" y2="0" class="line3"/>
  <text transform="rotate(296 0,0)" class="text3"><textPath href="#circle3">THREAD</textPath></text>

  <!-- Fourth circle -->
  <line transform="rotate(-6 0,0)" x1="-400" x2="-300" y1="0" y2="0" class="line4"/>
  <text transform="rotate(1 0,0)" class="text4"><textPath href="#circle4">DEDUCE</textPath></text>
  <line transform="rotate(45 0,0)" x1="-400" x2="-300" y1="0" y2="0" class="line4"/>
  <text transform="rotate(52 0,0)" class="text4"><textPath href="#circle4">DIOXIDES</textPath></text>
  <line transform="rotate(101 0,0)" x1="-400" x2="-300" y1="0" y2="0" class="line4"/>
  <text transform="rotate(108 0,0)" class="text4"><textPath href="#circle4">REDUCE</textPath></text>
  <line transform="rotate(152 0,0)" x1="-400" x2="-300" y1="0" y2="0" class="line4"/>
  <text transform="rotate(159 0,0)" class="text4"><textPath href="#circle4">HATRED</textPath></text>
  <line transform="rotate(203 0,0)" x1="-400" x2="-300" y1="0" y2="0" class="line4"/>
  <text transform="rotate(210 0,0)" class="text4"><textPath href="#circle4">CARTOON</textPath></text>
  <line transform="rotate(261 0,0)" x1="-400" x2="-300" y1="0" y2="0" class="line4"/>
  <text transform="rotate(268 0,0)" class="text4"><textPath href="#circle4">PROVE</textPath></text>
  <line transform="rotate(306 0,0)" x1="-400" x2="-300" y1="0" y2="0" class="line4"/>
  <text transform="rotate(313 0,0)" class="text4"><textPath href="#circle4">WARMS</textPath></text>

  <!-- Fifth circle -->
  <line transform="rotate(25 0,0)" x1="-500" x2="-400" y1="0" y2="0" class="line5"/>
  <text transform="rotate(28 0,0)" class="text5"><textPath href="#circle5">RONALDO</textPath></text>
  <line transform="rotate(66 0,0)" x1="-500" x2="-400" y1="0" y2="0" class="line5"/>
  <text transform="rotate(70 0,0)" class="text5"><textPath href="#circle5">MARS</textPath></text>
  <line transform="rotate(93 0,0)" x1="-500" x2="-400" y1="0" y2="0" class="line5"/>
  <text transform="rotate(97 0,0)" class="text5"><textPath href="#circle5">INSECTS</textPath></text>
  <line transform="rotate(130 0,0)" x1="-500" x2="-400" y1="0" y2="0" class="line5"/>
  <text transform="rotate(134 0,0)" class="text5"><textPath href="#circle5">LARDOON</textPath></text>
  <line transform="rotate(171 0,0)" x1="-500" x2="-400" y1="0" y2="0" class="line5"/>
  <text transform="rotate(175 0,0)" class="text5"><textPath href="#circle5">SYRINGE</textPath></text>
  <line transform="rotate(209 0,0)" x1="-500" x2="-400" y1="0" y2="0" class="line5"/>
  <text transform="rotate(213 0,0)" class="text5"><textPath href="#circle5">SWARMS</textPath></text>
  <line transform="rotate(247 0,0)" x1="-500" x2="-400" y1="0" y2="0" class="line5"/>
  <text transform="rotate(251 0,0)" class="text5"><textPath href="#circle5">OXIDISED</textPath></text>
  <line transform="rotate(287 0,0)" x1="-500" x2="-400" y1="0" y2="0" class="line5"/>
  <text transform="rotate(291 0,0)" class="text5"><textPath href="#circle5">DIOXIDE</textPath></text>
  <line transform="rotate(322 0,0)" x1="-500" x2="-400" y1="0" y2="0" class="line5"/>
  <text transform="rotate(326 0,0)" class="text5"><textPath href="#circle5">ARMS</textPath></text>
  <line transform="rotate(349 0,0)" x1="-500" x2="-400" y1="0" y2="0" class="line5"/>
  <text transform="rotate(353 0,0)" class="text5"><textPath href="#circle5">OXIDISE</textPath></text>

</svg>
