  <svg width="500" height="500" viewBox="-550 -550 1100 1100" xmlns="http://www.w3.org/2000/svg">
  <style>
    .text1 { fill: black; font: 50px sans-serif; }
    .text2 { fill: white; font: 50px sans-serif; }
    .line2 { stroke: white; stroke-width:5; }
    .text3 { fill: black; font: 50px sans-serif; }
    .line3 { stroke: black; stroke-width:5; }
    .text4 { fill: white; font: 50px sans-serif; }
    .line4 { stroke: white; stroke-width:5; }
    .text5 { fill: black; font: 50px sans-serif; }
    .line5 { stroke: black; stroke-width:5; }
  </style>

  <circle cx="0" cy="0" r="505" fill="black" />
  <circle cx="0" cy="0" r="500" fill="white" />
  <circle cx="0" cy="0" r="400" fill="black" />
  <circle cx="0" cy="0" r="300" fill="white" />
  <circle cx="0" cy="0" r="200" fill="black" />
  <circle cx="0" cy="0" r="100" fill="white" />
  <line x1="-415" y1="-415" x2="-390" y2="-390" stroke="black" stroke-width="20"/>
  <polygon points="-375 -415, -415 -375, -360 -360" />

  <path id="circle2" fill="transparent"
      d="
      M 0 0
      m -130, 0
      a 130,130 0 1,1 260,0
      a 130,130 0 1,1 -260,0
      "
  />
  <path id="circle3" fill="transparent"
      d="
      M 0 0
      m -230, 0
      a 230,230 0 1,1 460,0
      a 230,230 0 1,1 -460,0
      "
  />
  <path id="circle4" fill="transparent"
      d="
      M 0 0
      m -330, 0
      a 330,330 0 1,1 660,0
      a 330,330 0 1,1 -660,0
      "
  />
  <path id="circle5" fill="transparent"
      d="
      M 0 0
      m -430, 0
      a 430,430 0 1,1 860,0
      a 430,430 0 1,1 -860,0
      "
  />

  <!-- First circle -->
  <text x="0" y="0" dominant-baseline="middle" text-anchor="middle" class="text1">HOAX</text>

  <!-- Second circle -->
  <line transform="rotate(1 0,0)" x1="-200" x2="-100" y1="0" y2="0" class="line2"/>
  <text transform="rotate(14 0,0)" class="text2"><textPath href="#circle2">JAM</textPath></text>
  <line transform="rotate(73 0,0)" x1="-200" x2="-100" y1="0" y2="0" class="line2"/>
  <text transform="rotate(87 0,0)" class="text2"><textPath href="#circle2">PUZZLE</textPath></text>
  <line transform="rotate(188 0,0)" x1="-200" x2="-100" y1="0" y2="0" class="line2"/>
  <text transform="rotate(202 0,0)" class="text2"><textPath href="#circle2">TITANOSAUR</textPath></text>

  <!-- Third circle -->
  <line transform="rotate(-24 0,0)" x1="-300" x2="-200" y1="0" y2="0" class="line3"/>
  <text transform="rotate(-18 0,0)" class="text3"><textPath href="#circle3">SATURATION</textPath></text>
  <line transform="rotate(68 0,0)" x1="-300" x2="-200" y1="0" y2="0" class="line3"/>
  <text transform="rotate(74 0,0)" class="text3"><textPath href="#circle3">SOLUTION</textPath></text>
  <line transform="rotate(143 0,0)" x1="-300" x2="-200" y1="0" y2="0" class="line3"/>
  <text transform="rotate(150 0,0)" class="text3"><textPath href="#circle3">JUNCTION</textPath></text>
  <line transform="rotate(218 0,0)" x1="-300" x2="-200" y1="0" y2="0" class="line3"/>
  <text transform="rotate(225 0,0)" class="text3"><textPath href="#circle3">FUNCTION</textPath></text>
  <line transform="rotate(295 0,0)" x1="-300" x2="-200" y1="0" y2="0" class="line3"/>
  <text transform="rotate(302 0,0)" class="text3"><textPath href="#circle3">HAM</textPath></text>

  <!-- Fourth circle -->
  <line transform="rotate(89 0,0)" x1="-400" x2="-300" y1="0" y2="0" class="line4"/>
  <text transform="rotate(94 0,0)" class="text4"><textPath href="#circle4">TOAST</textPath></text>
  <line transform="rotate(129 0,0)" x1="-400" x2="-300" y1="0" y2="0" class="line4"/>
  <text transform="rotate(135 0,0)" class="text4"><textPath href="#circle4">PROBLEM</textPath></text>
  <line transform="rotate(184 0,0)" x1="-400" x2="-300" y1="0" y2="0" class="line4"/>
  <text transform="rotate(190 0,0)" class="text4"><textPath href="#circle4">SNOUT</textPath></text>
  <line transform="rotate(226 0,0)" x1="-400" x2="-300" y1="0" y2="0" class="line4"/>
  <text transform="rotate(232 0,0)" class="text4"><textPath href="#circle4">GRAVE</textPath></text>
  <line transform="rotate(269 0,0)" x1="-400" x2="-300" y1="0" y2="0" class="line4"/>
  <text transform="rotate(275 0,0)" class="text4"><textPath href="#circle4">DINOSAUR</textPath></text>
  <line transform="rotate(327 0,0)" x1="-400" x2="-300" y1="0" y2="0" class="line4"/>
  <text transform="rotate(332 0,0)" class="text4"><textPath href="#circle4">TOMB</textPath></text>
  <line transform="rotate(4 0,0)" x1="-400" x2="-300" y1="0" y2="0" class="line4"/>
  <text transform="rotate(10 0,0)" class="text4"><textPath href="#circle4">MUZZLE</textPath></text>
  <line transform="rotate(50 0,0)" x1="-400" x2="-300" y1="0" y2="0" class="line4"/>
  <text transform="rotate(56 0,0)" class="text4"><textPath href="#circle4">COMA</textPath></text>

  <!-- Fifth circle -->
  <line transform="rotate(19 0,0)" x1="-500" x2="-400" y1="0" y2="0" class="line5"/>
  <text transform="rotate(22 0,0)" class="text5"><textPath href="#circle5">LOCOMOTIVE</textPath></text>
  <line transform="rotate(71 0,0)" x1="-500" x2="-400" y1="0" y2="0" class="line5"/>
  <text transform="rotate(74 0,0)" class="text5"><textPath href="#circle5">COMMA</textPath></text>
  <line transform="rotate(103 0,0)" x1="-500" x2="-400" y1="0" y2="0" class="line5"/>
  <text transform="rotate(107 0,0)" class="text5"><textPath href="#circle5">GRAPE</textPath></text>
  <line transform="rotate(134 0,0)" x1="-500" x2="-400" y1="0" y2="0" class="line5"/>
  <text transform="rotate(138 0,0)" class="text5"><textPath href="#circle5">TRAIN</textPath></text>
  <line transform="rotate(161 0,0)" x1="-500" x2="-400" y1="0" y2="0" class="line5"/>
  <text transform="rotate(165 0,0)" class="text5"><textPath href="#circle5">JURASSIC</textPath></text>
  <line transform="rotate(201 0,0)" x1="-500" x2="-400" y1="0" y2="0" class="line5"/>
  <text transform="rotate(205 0,0)" class="text5"><textPath href="#circle5">STOUT</textPath></text>
  <line transform="rotate(231 0,0)" x1="-500" x2="-400" y1="0" y2="0" class="line5"/>
  <text transform="rotate(235 0,0)" class="text5"><textPath href="#circle5">PERIOD</textPath></text>
  <line transform="rotate(264 0,0)" x1="-500" x2="-400" y1="0" y2="0" class="line5"/>
  <text transform="rotate(268 0,0)" class="text5"><textPath href="#circle5">COMB</textPath></text>
  <line transform="rotate(291 0,0)" x1="-500" x2="-400" y1="0" y2="0" class="line5"/>
  <text transform="rotate(295 0,0)" class="text5"><textPath href="#circle5">STOAT</textPath></text>
  <line transform="rotate(321 0,0)" x1="-500" x2="-400" y1="0" y2="0" class="line5"/>
  <text transform="rotate(325 0,0)" class="text5"><textPath href="#circle5">GRAPH</textPath></text>
  <line transform="rotate(352 0,0)" x1="-500" x2="-400" y1="0" y2="0" class="line5"/>
  <text transform="rotate(356 0,0)" class="text5"><textPath href="#circle5">SHAM</textPath></text>

</svg>
