  <svg width="500" height="500" viewBox="-550 -550 1100 1100" xmlns="http://www.w3.org/2000/svg">
  <style>
    .text1 { fill: black; font: 50px sans-serif; }
    .text2 { fill: white; font: 50px sans-serif; }
    .line2 { stroke: white; stroke-width:5; }
    .text3 { fill: black; font: 50px sans-serif; }
    .line3 { stroke: black; stroke-width:5; }
    .text4 { fill: white; font: 50px sans-serif; }
    .line4 { stroke: white; stroke-width:5; }
    .text5 { fill: black; font: 50px sans-serif; }
    .line5 { stroke: black; stroke-width:5; }
  </style>

  <circle cx="0" cy="0" r="505" fill="black" />
  <circle cx="0" cy="0" r="500" fill="white" />
  <circle cx="0" cy="0" r="400" fill="black" />
  <circle cx="0" cy="0" r="300" fill="white" />
  <circle cx="0" cy="0" r="200" fill="black" />
  <circle cx="0" cy="0" r="100" fill="white" />
  <line x1="-415" y1="-415" x2="-390" y2="-390" stroke="black" stroke-width="20"/>
  <polygon points="-375 -415, -415 -375, -360 -360" />

  <path id="circle2" fill="transparent"
      d="
      M 0 0
      m -130, 0
      a 130,130 0 1,1 260,0
      a 130,130 0 1,1 -260,0
      "
  />
  <path id="circle3" fill="transparent"
      d="
      M 0 0
      m -230, 0
      a 230,230 0 1,1 460,0
      a 230,230 0 1,1 -460,0
      "
  />
  <path id="circle4" fill="transparent"
      d="
      M 0 0
      m -330, 0
      a 330,330 0 1,1 660,0
      a 330,330 0 1,1 -660,0
      "
  />
  <path id="circle5" fill="transparent"
      d="
      M 0 0
      m -430, 0
      a 430,430 0 1,1 860,0
      a 430,430 0 1,1 -860,0
      "
  />

  <!-- First circle -->
  <text x="0" y="0" dominant-baseline="middle" text-anchor="middle" class="text1">FLOW</text>

  <!-- Second circle -->
  <line transform="rotate(-2 0,0)" x1="-200" x2="-100" y1="0" y2="0" class="line2"/>
  <text transform="rotate(8 0,0)" class="text2"><textPath href="#circle2">WHITE</textPath></text>
  <line transform="rotate(90 0,0)" x1="-200" x2="-100" y1="0" y2="0" class="line2"/>
  <text transform="rotate(100 0,0)" class="text2"><textPath href="#circle2">WHILE</textPath></text>
  <line transform="rotate(181 0,0)" x1="-200" x2="-100" y1="0" y2="0" class="line2"/>
  <text transform="rotate(191 0,0)" class="text2"><textPath href="#circle2">SALT</textPath></text>
  <line transform="rotate(258 0,0)" x1="-200" x2="-100" y1="0" y2="0" class="line2"/>
  <text transform="rotate(268 0,0)" class="text2"><textPath href="#circle2">CORPS</textPath></text>

  <!-- Third circle -->
  <line transform="rotate(42 0,0)" x1="-300" x2="-200" y1="0" y2="0" class="line3"/>
  <text transform="rotate(50 0,0)" class="text3"><textPath href="#circle3">DWARF</textPath></text>
  <line transform="rotate(103 0,0)" x1="-300" x2="-200" y1="0" y2="0" class="line3"/>
  <text transform="rotate(112 0,0)" class="text3"><textPath href="#circle3">SNOW</textPath></text>
  <line transform="rotate(158 0,0)" x1="-300" x2="-200" y1="0" y2="0" class="line3"/>
  <text transform="rotate(167 0,0)" class="text3"><textPath href="#circle3">SPLINT</textPath></text>
  <line transform="rotate(218 0,0)" x1="-300" x2="-200" y1="0" y2="0" class="line3"/>
  <text transform="rotate(227 0,0)" class="text3"><textPath href="#circle3">HORDE</textPath></text>
  <line transform="rotate(279 0,0)" x1="-300" x2="-200" y1="0" y2="0" class="line3"/>
  <text transform="rotate(288 0,0)" class="text3"><textPath href="#circle3">HORSE</textPath></text>
  <line transform="rotate(340 0,0)" x1="-300" x2="-200" y1="0" y2="0" class="line3"/>
  <text transform="rotate(348 0,0)" class="text3"><textPath href="#circle3">SPRINT</textPath></text>

  <!-- Fourth circle -->
  <line transform="rotate(-7 0,0)" x1="-400" x2="-300" y1="0" y2="0" class="line4"/>
  <text transform="rotate(0 0,0)" class="text4"><textPath href="#circle4">SPILT</textPath></text>
  <line transform="rotate(31 0,0)" x1="-400" x2="-300" y1="0" y2="0" class="line4"/>
  <text transform="rotate(38 0,0)" class="text4"><textPath href="#circle4">SHORT</textPath></text>
  <line transform="rotate(75 0,0)" x1="-400" x2="-300" y1="0" y2="0" class="line4"/>
  <text transform="rotate(83 0,0)" class="text4"><textPath href="#circle4">SILT</textPath></text>
  <line transform="rotate(108 0,0)" x1="-400" x2="-300" y1="0" y2="0" class="line4"/>
  <text transform="rotate(115 0,0)" class="text4"><textPath href="#circle4">SHORE</textPath></text>
  <line transform="rotate(153 0,0)" x1="-400" x2="-300" y1="0" y2="0" class="line4"/>
  <text transform="rotate(160 0,0)" class="text4"><textPath href="#circle4">WINTER</textPath></text>
  <line transform="rotate(202 0,0)" x1="-400" x2="-300" y1="0" y2="0" class="line4"/>
  <text transform="rotate(209 0,0)" class="text4"><textPath href="#circle4">CHILI</textPath></text>
  <line transform="rotate(238 0,0)" x1="-400" x2="-300" y1="0" y2="0" class="line4"/>
  <text transform="rotate(245 0,0)" class="text4"><textPath href="#circle4">CORPSE</textPath></text>
  <line transform="rotate(289 0,0)" x1="-400" x2="-300" y1="0" y2="0" class="line4"/>
  <text transform="rotate(296 0,0)" class="text4"><textPath href="#circle4">EXPENSIVE</textPath></text>

  <!-- Fifth circle -->
  <line transform="rotate(21 0,0)" x1="-500" x2="-400" y1="0" y2="0" class="line5"/>
  <text transform="rotate(26 0,0)" class="text5"><textPath href="#circle5">EXPANSIVE</textPath></text>
  <line transform="rotate(70 0,0)" x1="-500" x2="-400" y1="0" y2="0" class="line5"/>
  <text transform="rotate(76 0,0)" class="text5"><textPath href="#circle5">SLOW</textPath></text>
  <line transform="rotate(102 0,0)" x1="-500" x2="-400" y1="0" y2="0" class="line5"/>
  <text transform="rotate(107 0,0)" class="text5"><textPath href="#circle5">PEPPER</textPath></text>
  <line transform="rotate(140 0,0)" x1="-500" x2="-400" y1="0" y2="0" class="line5"/>
  <text transform="rotate(146 0,0)" class="text5"><textPath href="#circle5">SPLIT</textPath></text>
  <line transform="rotate(171 0,0)" x1="-500" x2="-400" y1="0" y2="0" class="line5"/>
  <text transform="rotate(177 0,0)" class="text5"><textPath href="#circle5">SPRING</textPath></text>
  <line transform="rotate(208 0,0)" x1="-500" x2="-400" y1="0" y2="0" class="line5"/>
  <text transform="rotate(214 0,0)" class="text5"><textPath href="#circle5">ZOMBIE</textPath></text>
  <line transform="rotate(245 0,0)" x1="-500" x2="-400" y1="0" y2="0" class="line5"/>
  <text transform="rotate(251 0,0)" class="text5"><textPath href="#circle5">PEACH</textPath></text>
  <line transform="rotate(280 0,0)" x1="-500" x2="-400" y1="0" y2="0" class="line5"/>
  <text transform="rotate(286 0,0)" class="text5"><textPath href="#circle5">CHILE</textPath></text>
  <line transform="rotate(312 0,0)" x1="-500" x2="-400" y1="0" y2="0" class="line5"/>
  <text transform="rotate(317 0,0)" class="text5"><textPath href="#circle5">CHEAP</textPath></text>
  <line transform="rotate(346 0,0)" x1="-500" x2="-400" y1="0" y2="0" class="line5"/>
  <text transform="rotate(352 0,0)" class="text5"><textPath href="#circle5">PEACE</textPath></text>

</svg>
