  <svg width="500" height="500" viewBox="-550 -550 1100 1100" xmlns="http://www.w3.org/2000/svg">
  <style>
    .text1 { fill: black; font: 50px sans-serif; }
    .text2 { fill: white; font: 50px sans-serif; }
    .line2 { stroke: white; stroke-width:5; }
    .text3 { fill: black; font: 50px sans-serif; }
    .line3 { stroke: black; stroke-width:5; }
    .text4 { fill: white; font: 50px sans-serif; }
    .line4 { stroke: white; stroke-width:5; }
    .text5 { fill: black; font: 50px sans-serif; }
    .line5 { stroke: black; stroke-width:5; }
  </style>

  <circle cx="0" cy="0" r="505" fill="black" />
  <circle cx="0" cy="0" r="500" fill="white" />
  <circle cx="0" cy="0" r="400" fill="black" />
  <circle cx="0" cy="0" r="300" fill="white" />
  <circle cx="0" cy="0" r="200" fill="black" />
  <circle cx="0" cy="0" r="100" fill="white" />
  <line x1="-415" y1="-415" x2="-390" y2="-390" stroke="black" stroke-width="20"/>
  <polygon points="-375 -415, -415 -375, -360 -360" />

  <path id="circle2" fill="transparent"
      d="
      M 0 0
      m -130, 0
      a 130,130 0 1,1 260,0
      a 130,130 0 1,1 -260,0
      "
  />
  <path id="circle3" fill="transparent"
      d="
      M 0 0
      m -230, 0
      a 230,230 0 1,1 460,0
      a 230,230 0 1,1 -460,0
      "
  />
  <path id="circle4" fill="transparent"
      d="
      M 0 0
      m -330, 0
      a 330,330 0 1,1 660,0
      a 330,330 0 1,1 -660,0
      "
  />
  <path id="circle5" fill="transparent"
      d="
      M 0 0
      m -430, 0
      a 430,430 0 1,1 860,0
      a 430,430 0 1,1 -860,0
      "
  />

  <!-- First circle -->
  <text x="0" y="0" dominant-baseline="middle" text-anchor="middle" class="text1">SKUNK</text>

  <!-- Second circle -->
  <line transform="rotate(2 0,0)" x1="-200" x2="-100" y1="0" y2="0" class="line2"/>
  <text transform="rotate(13 0,0)" class="text2"><textPath href="#circle2">SUN</textPath></text>
  <line transform="rotate(73 0,0)" x1="-200" x2="-100" y1="0" y2="0" class="line2"/>
  <text transform="rotate(85 0,0)" class="text2"><textPath href="#circle2">POLE</textPath></text>
  <line transform="rotate(156 0,0)" x1="-200" x2="-100" y1="0" y2="0" class="line2"/>
  <text transform="rotate(168 0,0)" class="text2"><textPath href="#circle2">CHIRP</textPath></text>
  <line transform="rotate(250 0,0)" x1="-200" x2="-100" y1="0" y2="0" class="line2"/>
  <text transform="rotate(262 0,0)" class="text2"><textPath href="#circle2">IMAGES</textPath></text>

  <!-- Third circle -->
  <line transform="rotate(18 0,0)" x1="-300" x2="-200" y1="0" y2="0" class="line3"/>
  <text transform="rotate(26 0,0)" class="text3"><textPath href="#circle3">CRICKET</textPath></text>
  <line transform="rotate(89 0,0)" x1="-300" x2="-200" y1="0" y2="0" class="line3"/>
  <text transform="rotate(98 0,0)" class="text3"><textPath href="#circle3">SHORT</textPath></text>
  <line transform="rotate(149 0,0)" x1="-300" x2="-200" y1="0" y2="0" class="line3"/>
  <text transform="rotate(158 0,0)" class="text3"><textPath href="#circle3">POLAND</textPath></text>
  <line transform="rotate(217 0,0)" x1="-300" x2="-200" y1="0" y2="0" class="line3"/>
  <text transform="rotate(226 0,0)" class="text3"><textPath href="#circle3">COPERNICUS</textPath></text>
  <line transform="rotate(316 0,0)" x1="-300" x2="-200" y1="0" y2="0" class="line3"/>
  <text transform="rotate(325 0,0)" class="text3"><textPath href="#circle3">LIZARD</textPath></text>

  <!-- Fourth circle -->
  <line transform="rotate(37 0,0)" x1="-400" x2="-300" y1="0" y2="0" class="line4"/>
  <text transform="rotate(43 0,0)" class="text4"><textPath href="#circle4">AGEISM</textPath></text>
  <line transform="rotate(84 0,0)" x1="-400" x2="-300" y1="0" y2="0" class="line4"/>
  <text transform="rotate(91 0,0)" class="text4"><textPath href="#circle4">MICRO</textPath></text>
  <line transform="rotate(127 0,0)" x1="-400" x2="-300" y1="0" y2="0" class="line4"/>
  <text transform="rotate(134 0,0)" class="text4"><textPath href="#circle4">CHIP</textPath></text>
  <line transform="rotate(162 0,0)" x1="-400" x2="-300" y1="0" y2="0" class="line4"/>
  <text transform="rotate(169 0,0)" class="text4"><textPath href="#circle4">STUNK</textPath></text>
  <line transform="rotate(205 0,0)" x1="-400" x2="-300" y1="0" y2="0" class="line4"/>
  <text transform="rotate(212 0,0)" class="text4"><textPath href="#circle4">AGISM</textPath></text>
  <line transform="rotate(247 0,0)" x1="-400" x2="-300" y1="0" y2="0" class="line4"/>
  <text transform="rotate(254 0,0)" class="text4"><textPath href="#circle4">SHOUT</textPath></text>
  <line transform="rotate(291 0,0)" x1="-400" x2="-300" y1="0" y2="0" class="line4"/>
  <text transform="rotate(298 0,0)" class="text4"><textPath href="#circle4">MICRON</textPath></text>
  <line transform="rotate(340 0,0)" x1="-400" x2="-300" y1="0" y2="0" class="line4"/>
  <text transform="rotate(347 0,0)" class="text4"><textPath href="#circle4">OMICRON</textPath></text>

  <!-- Fifth circle -->
  <line transform="rotate(25 0,0)" x1="-500" x2="-400" y1="0" y2="0" class="line5"/>
  <text transform="rotate(31 0,0)" class="text5"><textPath href="#circle5">REPTILE</textPath></text>
  <line transform="rotate(66 0,0)" x1="-500" x2="-400" y1="0" y2="0" class="line5"/>
  <text transform="rotate(73 0,0)" class="text5"><textPath href="#circle5">MAGE</textPath></text>
  <line transform="rotate(99 0,0)" x1="-500" x2="-400" y1="0" y2="0" class="line5"/>
  <text transform="rotate(106 0,0)" class="text5"><textPath href="#circle5">MAGES</textPath></text>
  <line transform="rotate(137 0,0)" x1="-500" x2="-400" y1="0" y2="0" class="line5"/>
  <text transform="rotate(143 0,0)" class="text5"><textPath href="#circle5">SOUTH</textPath></text>
  <line transform="rotate(173 0,0)" x1="-500" x2="-400" y1="0" y2="0" class="line5"/>
  <text transform="rotate(180 0,0)" class="text5"><textPath href="#circle5">HELIOCENTRISM</textPath></text>
  <line transform="rotate(242 0,0)" x1="-500" x2="-400" y1="0" y2="0" class="line5"/>
  <text transform="rotate(249 0,0)" class="text5"><textPath href="#circle5">WIZARD</textPath></text>
  <line transform="rotate(282 0,0)" x1="-500" x2="-400" y1="0" y2="0" class="line5"/>
  <text transform="rotate(288 0,0)" class="text5"><textPath href="#circle5">SPORT</textPath></text>
  <line transform="rotate(318 0,0)" x1="-500" x2="-400" y1="0" y2="0" class="line5"/>
  <text transform="rotate(325 0,0)" class="text5"><textPath href="#circle5">STUN</textPath></text>
  <line transform="rotate(350 0,0)" x1="-500" x2="-400" y1="0" y2="0" class="line5"/>
  <text transform="rotate(356 0,0)" class="text5"><textPath href="#circle5">SIGMA</textPath></text>

</svg>
