  <svg width="500" height="500" viewBox="-550 -550 1100 1100" xmlns="http://www.w3.org/2000/svg">
  <style>
    .text1 { fill: black; font: 50px sans-serif; }
    .text2 { fill: white; font: 50px sans-serif; }
    .line2 { stroke: white; stroke-width:5; }
    .text3 { fill: black; font: 50px sans-serif; }
    .line3 { stroke: black; stroke-width:5; }
    .text4 { fill: white; font: 50px sans-serif; }
    .line4 { stroke: white; stroke-width:5; }
    .text5 { fill: black; font: 50px sans-serif; }
    .line5 { stroke: black; stroke-width:5; }
  </style>

  <circle cx="0" cy="0" r="505" fill="black" />
  <circle cx="0" cy="0" r="500" fill="white" />
  <circle cx="0" cy="0" r="400" fill="black" />
  <circle cx="0" cy="0" r="300" fill="white" />
  <circle cx="0" cy="0" r="200" fill="black" />
  <circle cx="0" cy="0" r="100" fill="white" />
  <line x1="-415" y1="-415" x2="-390" y2="-390" stroke="black" stroke-width="20"/>
  <polygon points="-375 -415, -415 -375, -360 -360" />

  <path id="circle2" fill="transparent"
      d="
      M 0 0
      m -130, 0
      a 130,130 0 1,1 260,0
      a 130,130 0 1,1 -260,0
      "
  />
  <path id="circle3" fill="transparent"
      d="
      M 0 0
      m -230, 0
      a 230,230 0 1,1 460,0
      a 230,230 0 1,1 -460,0
      "
  />
  <path id="circle4" fill="transparent"
      d="
      M 0 0
      m -330, 0
      a 330,330 0 1,1 660,0
      a 330,330 0 1,1 -660,0
      "
  />
  <path id="circle5" fill="transparent"
      d="
      M 0 0
      m -430, 0
      a 430,430 0 1,1 860,0
      a 430,430 0 1,1 -860,0
      "
  />

  <!-- First circle -->
  <text x="0" y="0" dominant-baseline="middle" text-anchor="middle" class="text1">BOND</text>

  <!-- Second circle -->
  <line transform="rotate(1 0,0)" x1="-200" x2="-100" y1="0" y2="0" class="line2"/>
  <text transform="rotate(19 0,0)" class="text2"><textPath href="#circle2">LENITE</textPath></text>
  <line transform="rotate(116 0,0)" x1="-200" x2="-100" y1="0" y2="0" class="line2"/>
  <text transform="rotate(134 0,0)" class="text2"><textPath href="#circle2">NOBILITY</textPath></text>
  <line transform="rotate(254 0,0)" x1="-200" x2="-100" y1="0" y2="0" class="line2"/>
  <text transform="rotate(272 0,0)" class="text2"><textPath href="#circle2">DINER</textPath></text>

  <!-- Third circle -->
  <line transform="rotate(39 0,0)" x1="-300" x2="-200" y1="0" y2="0" class="line3"/>
  <text transform="rotate(46 0,0)" class="text3"><textPath href="#circle3">ARISTOCRACY</textPath></text>
  <line transform="rotate(141 0,0)" x1="-300" x2="-200" y1="0" y2="0" class="line3"/>
  <text transform="rotate(148 0,0)" class="text3"><textPath href="#circle3">DONER</textPath></text>
  <line transform="rotate(199 0,0)" x1="-300" x2="-200" y1="0" y2="0" class="line3"/>
  <text transform="rotate(206 0,0)" class="text3"><textPath href="#circle3">EVITE</textPath></text>
  <line transform="rotate(249 0,0)" x1="-300" x2="-200" y1="0" y2="0" class="line3"/>
  <text transform="rotate(256 0,0)" class="text3"><textPath href="#circle3">CONDUCTOR</textPath></text>
  <line transform="rotate(342 0,0)" x1="-300" x2="-200" y1="0" y2="0" class="line3"/>
  <text transform="rotate(349 0,0)" class="text3"><textPath href="#circle3">LEVITE</textPath></text>

  <!-- Fourth circle -->
  <line transform="rotate(21 0,0)" x1="-400" x2="-300" y1="0" y2="0" class="line4"/>
  <text transform="rotate(26 0,0)" class="text4"><textPath href="#circle4">SUPPER</textPath></text>
  <line transform="rotate(68 0,0)" x1="-400" x2="-300" y1="0" y2="0" class="line4"/>
  <text transform="rotate(74 0,0)" class="text4"><textPath href="#circle4">PROTON</textPath></text>
  <line transform="rotate(118 0,0)" x1="-400" x2="-300" y1="0" y2="0" class="line4"/>
  <text transform="rotate(124 0,0)" class="text4"><textPath href="#circle4">DINNER</textPath></text>
  <line transform="rotate(163 0,0)" x1="-400" x2="-300" y1="0" y2="0" class="line4"/>
  <text transform="rotate(169 0,0)" class="text4"><textPath href="#circle4">LINE</textPath></text>
  <line transform="rotate(194 0,0)" x1="-400" x2="-300" y1="0" y2="0" class="line4"/>
  <text transform="rotate(200 0,0)" class="text4"><textPath href="#circle4">SUPER</textPath></text>
  <line transform="rotate(236 0,0)" x1="-400" x2="-300" y1="0" y2="0" class="line4"/>
  <text transform="rotate(242 0,0)" class="text4"><textPath href="#circle4">CROUTON</textPath></text>
  <line transform="rotate(293 0,0)" x1="-400" x2="-300" y1="0" y2="0" class="line4"/>
  <text transform="rotate(299 0,0)" class="text4"><textPath href="#circle4">FINE</textPath></text>
  <line transform="rotate(324 0,0)" x1="-400" x2="-300" y1="0" y2="0" class="line4"/>
  <text transform="rotate(330 0,0)" class="text4"><textPath href="#circle4">CONTOUR</textPath></text>

  <!-- Fifth circle -->
  <line transform="rotate(27 0,0)" x1="-500" x2="-400" y1="0" y2="0" class="line5"/>
  <text transform="rotate(30 0,0)" class="text5"><textPath href="#circle5">PENALTY</textPath></text>
  <line transform="rotate(63 0,0)" x1="-500" x2="-400" y1="0" y2="0" class="line5"/>
  <text transform="rotate(66 0,0)" class="text5"><textPath href="#circle5">TENSILE</textPath></text>
  <line transform="rotate(97 0,0)" x1="-500" x2="-400" y1="0" y2="0" class="line5"/>
  <text transform="rotate(100 0,0)" class="text5"><textPath href="#circle5">STRAIN</textPath></text>
  <line transform="rotate(128 0,0)" x1="-500" x2="-400" y1="0" y2="0" class="line5"/>
  <text transform="rotate(131 0,0)" class="text5"><textPath href="#circle5">ELITE</textPath></text>
  <line transform="rotate(153 0,0)" x1="-500" x2="-400" y1="0" y2="0" class="line5"/>
  <text transform="rotate(156 0,0)" class="text5"><textPath href="#circle5">CROTON</textPath></text>
  <line transform="rotate(187 0,0)" x1="-500" x2="-400" y1="0" y2="0" class="line5"/>
  <text transform="rotate(190 0,0)" class="text5"><textPath href="#circle5">LENITES</textPath></text>
  <line transform="rotate(222 0,0)" x1="-500" x2="-400" y1="0" y2="0" class="line5"/>
  <text transform="rotate(225 0,0)" class="text5"><textPath href="#circle5">BLOND</textPath></text>
  <line transform="rotate(251 0,0)" x1="-500" x2="-400" y1="0" y2="0" class="line5"/>
  <text transform="rotate(254 0,0)" class="text5"><textPath href="#circle5">TRAIN</textPath></text>
  <line transform="rotate(277 0,0)" x1="-500" x2="-400" y1="0" y2="0" class="line5"/>
  <text transform="rotate(280 0,0)" class="text5"><textPath href="#circle5">ELECTRON</textPath></text>
  <line transform="rotate(319 0,0)" x1="-500" x2="-400" y1="0" y2="0" class="line5"/>
  <text transform="rotate(322 0,0)" class="text5"><textPath href="#circle5">MOBILITY</textPath></text>
  <line transform="rotate(357 0,0)" x1="-500" x2="-400" y1="0" y2="0" class="line5"/>
  <text transform="rotate(0 0,0)" class="text5"><textPath href="#circle5">BLOOD</textPath></text>

</svg>
