  <svg width="500" height="500" viewBox="-550 -550 1100 1100" xmlns="http://www.w3.org/2000/svg">
  <style>
    .text1 { fill: black; font: 50px sans-serif; }
    .text2 { fill: white; font: 50px sans-serif; }
    .line2 { stroke: white; stroke-width:5; }
    .text3 { fill: black; font: 50px sans-serif; }
    .line3 { stroke: black; stroke-width:5; }
    .text4 { fill: white; font: 50px sans-serif; }
    .line4 { stroke: white; stroke-width:5; }
    .text5 { fill: black; font: 50px sans-serif; }
    .line5 { stroke: black; stroke-width:5; }
  </style>

  <circle cx="0" cy="0" r="505" fill="black" />
  <circle cx="0" cy="0" r="500" fill="white" />
  <circle cx="0" cy="0" r="400" fill="black" />
  <circle cx="0" cy="0" r="300" fill="white" />
  <circle cx="0" cy="0" r="200" fill="black" />
  <circle cx="0" cy="0" r="100" fill="white" />
  <line x1="-415" y1="-415" x2="-390" y2="-390" stroke="black" stroke-width="20"/>
  <polygon points="-375 -415, -415 -375, -360 -360" />

  <path id="circle2" fill="transparent"
      d="
      M 0 0
      m -130, 0
      a 130,130 0 1,1 260,0
      a 130,130 0 1,1 -260,0
      "
  />
  <path id="circle3" fill="transparent"
      d="
      M 0 0
      m -230, 0
      a 230,230 0 1,1 460,0
      a 230,230 0 1,1 -460,0
      "
  />
  <path id="circle4" fill="transparent"
      d="
      M 0 0
      m -330, 0
      a 330,330 0 1,1 660,0
      a 330,330 0 1,1 -660,0
      "
  />
  <path id="circle5" fill="transparent"
      d="
      M 0 0
      m -430, 0
      a 430,430 0 1,1 860,0
      a 430,430 0 1,1 -860,0
      "
  />

  <!-- First circle -->
  <text x="0" y="0" dominant-baseline="middle" text-anchor="middle" class="text1">FUN</text>

  <!-- Second circle -->
  <line transform="rotate(-11 0,0)" x1="-200" x2="-100" y1="0" y2="0" class="line2"/>
  <text transform="rotate(1 0,0)" class="text2"><textPath href="#circle2">GAMES</textPath></text>
  <line transform="rotate(94 0,0)" x1="-200" x2="-100" y1="0" y2="0" class="line2"/>
  <text transform="rotate(106 0,0)" class="text2"><textPath href="#circle2">RAY</textPath></text>
  <line transform="rotate(165 0,0)" x1="-200" x2="-100" y1="0" y2="0" class="line2"/>
  <text transform="rotate(177 0,0)" class="text2"><textPath href="#circle2">JAZZ</textPath></text>
  <line transform="rotate(243 0,0)" x1="-200" x2="-100" y1="0" y2="0" class="line2"/>
  <text transform="rotate(255 0,0)" class="text2"><textPath href="#circle2">WARTS</textPath></text>

  <!-- Third circle -->
  <line transform="rotate(11 0,0)" x1="-300" x2="-200" y1="0" y2="0" class="line3"/>
  <text transform="rotate(24 0,0)" class="text3"><textPath href="#circle3">WATTS</textPath></text>
  <line transform="rotate(80 0,0)" x1="-300" x2="-200" y1="0" y2="0" class="line3"/>
  <text transform="rotate(94 0,0)" class="text3"><textPath href="#circle3">MONARCH</textPath></text>
  <line transform="rotate(170 0,0)" x1="-300" x2="-200" y1="0" y2="0" class="line3"/>
  <text transform="rotate(183 0,0)" class="text3"><textPath href="#circle3">SWING</textPath></text>
  <line transform="rotate(238 0,0)" x1="-300" x2="-200" y1="0" y2="0" class="line3"/>
  <text transform="rotate(251 0,0)" class="text3"><textPath href="#circle3">GAMMA</textPath></text>
  <line transform="rotate(311 0,0)" x1="-300" x2="-200" y1="0" y2="0" class="line3"/>
  <text transform="rotate(325 0,0)" class="text3"><textPath href="#circle3">TRAY</textPath></text>

  <!-- Fourth circle -->
  <line transform="rotate(-11 0,0)" x1="-400" x2="-300" y1="0" y2="0" class="line4"/>
  <text transform="rotate(-2 0,0)" class="text4"><textPath href="#circle4">LAVA</textPath></text>
  <line transform="rotate(29 0,0)" x1="-400" x2="-300" y1="0" y2="0" class="line4"/>
  <text transform="rotate(38 0,0)" class="text4"><textPath href="#circle4">BUTTERFLY</textPath></text>
  <line transform="rotate(98 0,0)" x1="-400" x2="-300" y1="0" y2="0" class="line4"/>
  <text transform="rotate(108 0,0)" class="text4"><textPath href="#circle4">KING</textPath></text>
  <line transform="rotate(138 0,0)" x1="-400" x2="-300" y1="0" y2="0" class="line4"/>
  <text transform="rotate(147 0,0)" class="text4"><textPath href="#circle4">LARVA</textPath></text>
  <line transform="rotate(185 0,0)" x1="-400" x2="-300" y1="0" y2="0" class="line4"/>
  <text transform="rotate(194 0,0)" class="text4"><textPath href="#circle4">RAZE</textPath></text>
  <line transform="rotate(227 0,0)" x1="-400" x2="-300" y1="0" y2="0" class="line4"/>
  <text transform="rotate(236 0,0)" class="text4"><textPath href="#circle4">COMPETITION</textPath></text>
  <line transform="rotate(306 0,0)" x1="-400" x2="-300" y1="0" y2="0" class="line4"/>
  <text transform="rotate(315 0,0)" class="text4"><textPath href="#circle4">WATT</textPath></text>

  <!-- Fifth circle -->
  <line transform="rotate(15 0,0)" x1="-500" x2="-400" y1="0" y2="0" class="line5"/>
  <text transform="rotate(20 0,0)" class="text5"><textPath href="#circle5">COOPERATION</textPath></text>
  <line transform="rotate(75 0,0)" x1="-500" x2="-400" y1="0" y2="0" class="line5"/>
  <text transform="rotate(81 0,0)" class="text5"><textPath href="#circle5">WING</textPath></text>
  <line transform="rotate(105 0,0)" x1="-500" x2="-400" y1="0" y2="0" class="line5"/>
  <text transform="rotate(111 0,0)" class="text5"><textPath href="#circle5">METAMORPHOSIS</textPath></text>
  <line transform="rotate(176 0,0)" x1="-500" x2="-400" y1="0" y2="0" class="line5"/>
  <text transform="rotate(182 0,0)" class="text5"><textPath href="#circle5">STRAY</textPath></text>
  <line transform="rotate(210 0,0)" x1="-500" x2="-400" y1="0" y2="0" class="line5"/>
  <text transform="rotate(215 0,0)" class="text5"><textPath href="#circle5">STRAW</textPath></text>
  <line transform="rotate(245 0,0)" x1="-500" x2="-400" y1="0" y2="0" class="line5"/>
  <text transform="rotate(251 0,0)" class="text5"><textPath href="#circle5">MAGMA</textPath></text>
  <line transform="rotate(282 0,0)" x1="-500" x2="-400" y1="0" y2="0" class="line5"/>
  <text transform="rotate(288 0,0)" class="text5"><textPath href="#circle5">JAMES</textPath></text>
  <line transform="rotate(316 0,0)" x1="-500" x2="-400" y1="0" y2="0" class="line5"/>
  <text transform="rotate(321 0,0)" class="text5"><textPath href="#circle5">RAZZ</textPath></text>
  <line transform="rotate(344 0,0)" x1="-500" x2="-400" y1="0" y2="0" class="line5"/>
  <text transform="rotate(350 0,0)" class="text5"><textPath href="#circle5">RACE</textPath></text>

</svg>
