  <svg width="500" height="500" viewBox="-550 -550 1100 1100" xmlns="http://www.w3.org/2000/svg">
  <style>
    .text1 { fill: black; font: 50px sans-serif; }
    .text2 { fill: white; font: 50px sans-serif; }
    .line2 { stroke: white; stroke-width:5; }
    .text3 { fill: black; font: 50px sans-serif; }
    .line3 { stroke: black; stroke-width:5; }
    .text4 { fill: white; font: 50px sans-serif; }
    .line4 { stroke: white; stroke-width:5; }
    .text5 { fill: black; font: 50px sans-serif; }
    .line5 { stroke: black; stroke-width:5; }
  </style>

  <circle cx="0" cy="0" r="505" fill="black" />
  <circle cx="0" cy="0" r="500" fill="white" />
  <circle cx="0" cy="0" r="400" fill="black" />
  <circle cx="0" cy="0" r="300" fill="white" />
  <circle cx="0" cy="0" r="200" fill="black" />
  <circle cx="0" cy="0" r="100" fill="white" />
  <line x1="-415" y1="-415" x2="-390" y2="-390" stroke="black" stroke-width="20"/>
  <polygon points="-375 -415, -415 -375, -360 -360" />

  <path id="circle2" fill="transparent"
      d="
      M 0 0
      m -130, 0
      a 130,130 0 1,1 260,0
      a 130,130 0 1,1 -260,0
      "
  />
  <path id="circle3" fill="transparent"
      d="
      M 0 0
      m -230, 0
      a 230,230 0 1,1 460,0
      a 230,230 0 1,1 -460,0
      "
  />
  <path id="circle4" fill="transparent"
      d="
      M 0 0
      m -330, 0
      a 330,330 0 1,1 660,0
      a 330,330 0 1,1 -660,0
      "
  />
  <path id="circle5" fill="transparent"
      d="
      M 0 0
      m -430, 0
      a 430,430 0 1,1 860,0
      a 430,430 0 1,1 -860,0
      "
  />

  <!-- First circle -->
  <text x="0" y="0" dominant-baseline="middle" text-anchor="middle" class="text1">CAN</text>

  <!-- Second circle -->
  <line transform="rotate(30 0,0)" x1="-200" x2="-100" y1="0" y2="0" class="line2"/>
  <text transform="rotate(49 0,0)" class="text2"><textPath href="#circle2">DECREASING</textPath></text>
  <line transform="rotate(218 0,0)" x1="-200" x2="-100" y1="0" y2="0" class="line2"/>
  <text transform="rotate(237 0,0)" class="text2"><textPath href="#circle2">DECEASING</textPath></text>

  <!-- Third circle -->
  <line transform="rotate(-19 0,0)" x1="-300" x2="-200" y1="0" y2="0" class="line3"/>
  <text transform="rotate(-11 0,0)" class="text3"><textPath href="#circle3">THIN</textPath></text>
  <line transform="rotate(25 0,0)" x1="-300" x2="-200" y1="0" y2="0" class="line3"/>
  <text transform="rotate(34 0,0)" class="text3"><textPath href="#circle3">BACTERIA</textPath></text>
  <line transform="rotate(103 0,0)" x1="-300" x2="-200" y1="0" y2="0" class="line3"/>
  <text transform="rotate(111 0,0)" class="text3"><textPath href="#circle3">DOING</textPath></text>
  <line transform="rotate(160 0,0)" x1="-300" x2="-200" y1="0" y2="0" class="line3"/>
  <text transform="rotate(168 0,0)" class="text3"><textPath href="#circle3">CANING</textPath></text>
  <line transform="rotate(223 0,0)" x1="-300" x2="-200" y1="0" y2="0" class="line3"/>
  <text transform="rotate(232 0,0)" class="text3"><textPath href="#circle3">CANINE</textPath></text>
  <line transform="rotate(286 0,0)" x1="-300" x2="-200" y1="0" y2="0" class="line3"/>
  <text transform="rotate(294 0,0)" class="text3"><textPath href="#circle3">THING</textPath></text>

  <!-- Fourth circle -->
  <line transform="rotate(40 0,0)" x1="-400" x2="-300" y1="0" y2="0" class="line4"/>
  <text transform="rotate(49 0,0)" class="text4"><textPath href="#circle4">NIGHT</textPath></text>
  <line transform="rotate(85 0,0)" x1="-400" x2="-300" y1="0" y2="0" class="line4"/>
  <text transform="rotate(95 0,0)" class="text4"><textPath href="#circle4">TIN</textPath></text>
  <line transform="rotate(118 0,0)" x1="-400" x2="-300" y1="0" y2="0" class="line4"/>
  <text transform="rotate(127 0,0)" class="text4"><textPath href="#circle4">VIBRIOS</textPath></text>
  <line transform="rotate(172 0,0)" x1="-400" x2="-300" y1="0" y2="0" class="line4"/>
  <text transform="rotate(181 0,0)" class="text4"><textPath href="#circle4">DYING</textPath></text>
  <line transform="rotate(218 0,0)" x1="-400" x2="-300" y1="0" y2="0" class="line4"/>
  <text transform="rotate(227 0,0)" class="text4"><textPath href="#circle4">VIBRION</textPath></text>
  <line transform="rotate(273 0,0)" x1="-400" x2="-300" y1="0" y2="0" class="line4"/>
  <text transform="rotate(282 0,0)" class="text4"><textPath href="#circle4">ANCESTRIES</textPath></text>
  <line transform="rotate(347 0,0)" x1="-400" x2="-300" y1="0" y2="0" class="line4"/>
  <text transform="rotate(356 0,0)" class="text4"><textPath href="#circle4">CARING</textPath></text>

  <!-- Fifth circle -->
  <line transform="rotate(27 0,0)" x1="-500" x2="-400" y1="0" y2="0" class="line5"/>
  <text transform="rotate(30 0,0)" class="text5"><textPath href="#circle5">SHARING</textPath></text>
  <line transform="rotate(64 0,0)" x1="-500" x2="-400" y1="0" y2="0" class="line5"/>
  <text transform="rotate(67 0,0)" class="text5"><textPath href="#circle5">CASING</textPath></text>
  <line transform="rotate(96 0,0)" x1="-500" x2="-400" y1="0" y2="0" class="line5"/>
  <text transform="rotate(99 0,0)" class="text5"><textPath href="#circle5">VISION</textPath></text>
  <line transform="rotate(125 0,0)" x1="-500" x2="-400" y1="0" y2="0" class="line5"/>
  <text transform="rotate(129 0,0)" class="text5"><textPath href="#circle5">VIRION</textPath></text>
  <line transform="rotate(155 0,0)" x1="-500" x2="-400" y1="0" y2="0" class="line5"/>
  <text transform="rotate(158 0,0)" class="text5"><textPath href="#circle5">RESISTANCE</textPath></text>
  <line transform="rotate(204 0,0)" x1="-500" x2="-400" y1="0" y2="0" class="line5"/>
  <text transform="rotate(207 0,0)" class="text5"><textPath href="#circle5">DESCENDANT</textPath></text>
  <line transform="rotate(257 0,0)" x1="-500" x2="-400" y1="0" y2="0" class="line5"/>
  <text transform="rotate(260 0,0)" class="text5"><textPath href="#circle5">DESCENDANTS</textPath></text>
  <line transform="rotate(314 0,0)" x1="-500" x2="-400" y1="0" y2="0" class="line5"/>
  <text transform="rotate(317 0,0)" class="text5"><textPath href="#circle5">DINGO</textPath></text>
  <line transform="rotate(342 0,0)" x1="-500" x2="-400" y1="0" y2="0" class="line5"/>
  <text transform="rotate(346 0,0)" class="text5"><textPath href="#circle5">ANTIBIOTIC</textPath></text>

</svg>
