  <svg width="500" height="500" viewBox="-550 -550 1100 1100" xmlns="http://www.w3.org/2000/svg">
  <style>
    .text1 { fill: black; font: 50px sans-serif; }
    .text2 { fill: white; font: 50px sans-serif; }
    .line2 { stroke: white; stroke-width:5; }
    .text3 { fill: black; font: 50px sans-serif; }
    .line3 { stroke: black; stroke-width:5; }
    .text4 { fill: white; font: 50px sans-serif; }
    .line4 { stroke: white; stroke-width:5; }
    .text5 { fill: black; font: 50px sans-serif; }
    .line5 { stroke: black; stroke-width:5; }
  </style>

  <circle cx="0" cy="0" r="505" fill="black" />
  <circle cx="0" cy="0" r="500" fill="white" />
  <circle cx="0" cy="0" r="400" fill="black" />
  <circle cx="0" cy="0" r="300" fill="white" />
  <circle cx="0" cy="0" r="200" fill="black" />
  <circle cx="0" cy="0" r="100" fill="white" />
  <line x1="-415" y1="-415" x2="-390" y2="-390" stroke="black" stroke-width="20"/>
  <polygon points="-375 -415, -415 -375, -360 -360" />

  <path id="circle2" fill="transparent"
      d="
      M 0 0
      m -130, 0
      a 130,130 0 1,1 260,0
      a 130,130 0 1,1 -260,0
      "
  />
  <path id="circle3" fill="transparent"
      d="
      M 0 0
      m -230, 0
      a 230,230 0 1,1 460,0
      a 230,230 0 1,1 -460,0
      "
  />
  <path id="circle4" fill="transparent"
      d="
      M 0 0
      m -330, 0
      a 330,330 0 1,1 660,0
      a 330,330 0 1,1 -660,0
      "
  />
  <path id="circle5" fill="transparent"
      d="
      M 0 0
      m -430, 0
      a 430,430 0 1,1 860,0
      a 430,430 0 1,1 -860,0
      "
  />

  <!-- First circle -->
  <text x="0" y="0" dominant-baseline="middle" text-anchor="middle" class="text1">GAS</text>

  <!-- Second circle -->
  <line transform="rotate(38 0,0)" x1="-200" x2="-100" y1="0" y2="0" class="line2"/>
  <text transform="rotate(48 0,0)" class="text2"><textPath href="#circle2">WITCH</textPath></text>
  <line transform="rotate(132 0,0)" x1="-200" x2="-100" y1="0" y2="0" class="line2"/>
  <text transform="rotate(142 0,0)" class="text2"><textPath href="#circle2">IDEAL</textPath></text>
  <line transform="rotate(217 0,0)" x1="-200" x2="-100" y1="0" y2="0" class="line2"/>
  <text transform="rotate(227 0,0)" class="text2"><textPath href="#circle2">LEAD</textPath></text>
  <line transform="rotate(296 0,0)" x1="-200" x2="-100" y1="0" y2="0" class="line2"/>
  <text transform="rotate(307 0,0)" class="text2"><textPath href="#circle2">BOSON</textPath></text>

  <!-- Third circle -->
  <line transform="rotate(-21 0,0)" x1="-300" x2="-200" y1="0" y2="0" class="line3"/>
  <text transform="rotate(-11 0,0)" class="text3"><textPath href="#circle3">ENSIFORM</textPath></text>
  <line transform="rotate(63 0,0)" x1="-300" x2="-200" y1="0" y2="0" class="line3"/>
  <text transform="rotate(73 0,0)" class="text3"><textPath href="#circle3">ORDER</textPath></text>
  <line transform="rotate(127 0,0)" x1="-300" x2="-200" y1="0" y2="0" class="line3"/>
  <text transform="rotate(138 0,0)" class="text3"><textPath href="#circle3">FERMION</textPath></text>
  <line transform="rotate(204 0,0)" x1="-300" x2="-200" y1="0" y2="0" class="line3"/>
  <text transform="rotate(214 0,0)" class="text3"><textPath href="#circle3">BASEBALL</textPath></text>
  <line transform="rotate(287 0,0)" x1="-300" x2="-200" y1="0" y2="0" class="line3"/>
  <text transform="rotate(297 0,0)" class="text3"><textPath href="#circle3">WITH</textPath></text>

  <!-- Fourth circle -->
  <line transform="rotate(89 0,0)" x1="-400" x2="-300" y1="0" y2="0" class="line4"/>
  <text transform="rotate(98 0,0)" class="text4"><textPath href="#circle4">WIDTH</textPath></text>
  <line transform="rotate(135 0,0)" x1="-400" x2="-300" y1="0" y2="0" class="line4"/>
  <text transform="rotate(144 0,0)" class="text4"><textPath href="#circle4">OLDER</textPath></text>
  <line transform="rotate(183 0,0)" x1="-400" x2="-300" y1="0" y2="0" class="line4"/>
  <text transform="rotate(192 0,0)" class="text4"><textPath href="#circle4">BISON</textPath></text>
  <line transform="rotate(229 0,0)" x1="-400" x2="-300" y1="0" y2="0" class="line4"/>
  <text transform="rotate(238 0,0)" class="text4"><textPath href="#circle4">ELDER</textPath></text>
  <line transform="rotate(276 0,0)" x1="-400" x2="-300" y1="0" y2="0" class="line4"/>
  <text transform="rotate(285 0,0)" class="text4"><textPath href="#circle4">VISON</textPath></text>
  <line transform="rotate(321 0,0)" x1="-400" x2="-300" y1="0" y2="0" class="line4"/>
  <text transform="rotate(330 0,0)" class="text4"><textPath href="#circle4">DEAL</textPath></text>
  <line transform="rotate(2 0,0)" x1="-400" x2="-300" y1="0" y2="0" class="line4"/>
  <text transform="rotate(11 0,0)" class="text4"><textPath href="#circle4">SORT</textPath></text>
  <line transform="rotate(44 0,0)" x1="-400" x2="-300" y1="0" y2="0" class="line4"/>
  <text transform="rotate(53 0,0)" class="text4"><textPath href="#circle4">PITCH</textPath></text>

  <!-- Fifth circle -->
  <line transform="rotate(18 0,0)" x1="-500" x2="-400" y1="0" y2="0" class="line5"/>
  <text transform="rotate(23 0,0)" class="text5"><textPath href="#circle5">CORRUPTION</textPath></text>
  <line transform="rotate(73 0,0)" x1="-500" x2="-400" y1="0" y2="0" class="line5"/>
  <text transform="rotate(79 0,0)" class="text5"><textPath href="#circle5">HEIGHT</textPath></text>
  <line transform="rotate(110 0,0)" x1="-500" x2="-400" y1="0" y2="0" class="line5"/>
  <text transform="rotate(115 0,0)" class="text5"><textPath href="#circle5">EIGHT</textPath></text>
  <line transform="rotate(141 0,0)" x1="-500" x2="-400" y1="0" y2="0" class="line5"/>
  <text transform="rotate(147 0,0)" class="text5"><textPath href="#circle5">SPORT</textPath></text>
  <line transform="rotate(176 0,0)" x1="-500" x2="-400" y1="0" y2="0" class="line5"/>
  <text transform="rotate(181 0,0)" class="text5"><textPath href="#circle5">TRIBE</textPath></text>
  <line transform="rotate(206 0,0)" x1="-500" x2="-400" y1="0" y2="0" class="line5"/>
  <text transform="rotate(212 0,0)" class="text5"><textPath href="#circle5">VISION</textPath></text>
  <line transform="rotate(240 0,0)" x1="-500" x2="-400" y1="0" y2="0" class="line5"/>
  <text transform="rotate(246 0,0)" class="text5"><textPath href="#circle5">BRIBE</textPath></text>
  <line transform="rotate(271 0,0)" x1="-500" x2="-400" y1="0" y2="0" class="line5"/>
  <text transform="rotate(277 0,0)" class="text5"><textPath href="#circle5">SIGHT</textPath></text>
  <line transform="rotate(303 0,0)" x1="-500" x2="-400" y1="0" y2="0" class="line5"/>
  <text transform="rotate(309 0,0)" class="text5"><textPath href="#circle5">LEAF</textPath></text>
  <line transform="rotate(331 0,0)" x1="-500" x2="-400" y1="0" y2="0" class="line5"/>
  <text transform="rotate(337 0,0)" class="text5"><textPath href="#circle5">FERMIONS</textPath></text>

</svg>
