  <svg width="500" height="500" viewBox="-550 -550 1100 1100" xmlns="http://www.w3.org/2000/svg">
  <style>
    .text1 { fill: black; font: 50px sans-serif; }
    .text2 { fill: white; font: 50px sans-serif; }
    .line2 { stroke: white; stroke-width:5; }
    .text3 { fill: black; font: 50px sans-serif; }
    .line3 { stroke: black; stroke-width:5; }
    .text4 { fill: white; font: 50px sans-serif; }
    .line4 { stroke: white; stroke-width:5; }
    .text5 { fill: black; font: 50px sans-serif; }
    .line5 { stroke: black; stroke-width:5; }
  </style>

  <circle cx="0" cy="0" r="505" fill="black" />
  <circle cx="0" cy="0" r="500" fill="white" />
  <circle cx="0" cy="0" r="400" fill="black" />
  <circle cx="0" cy="0" r="300" fill="white" />
  <circle cx="0" cy="0" r="200" fill="black" />
  <circle cx="0" cy="0" r="100" fill="white" />
  <line x1="-415" y1="-415" x2="-390" y2="-390" stroke="black" stroke-width="20"/>
  <polygon points="-375 -415, -415 -375, -360 -360" />

  <path id="circle2" fill="transparent"
      d="
      M 0 0
      m -130, 0
      a 130,130 0 1,1 260,0
      a 130,130 0 1,1 -260,0
      "
  />
  <path id="circle3" fill="transparent"
      d="
      M 0 0
      m -230, 0
      a 230,230 0 1,1 460,0
      a 230,230 0 1,1 -460,0
      "
  />
  <path id="circle4" fill="transparent"
      d="
      M 0 0
      m -330, 0
      a 330,330 0 1,1 660,0
      a 330,330 0 1,1 -660,0
      "
  />
  <path id="circle5" fill="transparent"
      d="
      M 0 0
      m -430, 0
      a 430,430 0 1,1 860,0
      a 430,430 0 1,1 -860,0
      "
  />

  <!-- First circle -->
  <text x="0" y="0" dominant-baseline="middle" text-anchor="middle" class="text1">SONG</text>

  <!-- Second circle -->
  <line transform="rotate(-15 0,0)" x1="-200" x2="-100" y1="0" y2="0" class="line2"/>
  <text transform="rotate(-4 0,0)" class="text2"><textPath href="#circle2">CLIMATE</textPath></text>
  <line transform="rotate(106 0,0)" x1="-200" x2="-100" y1="0" y2="0" class="line2"/>
  <text transform="rotate(118 0,0)" class="text2"><textPath href="#circle2">BORROW</textPath></text>
  <line transform="rotate(233 0,0)" x1="-200" x2="-100" y1="0" y2="0" class="line2"/>
  <text transform="rotate(245 0,0)" class="text2"><textPath href="#circle2">SHRIMP</textPath></text>

  <!-- Third circle -->
  <line transform="rotate(16 0,0)" x1="-300" x2="-200" y1="0" y2="0" class="line3"/>
  <text transform="rotate(23 0,0)" class="text3"><textPath href="#circle3">SCRIMP</textPath></text>
  <line transform="rotate(78 0,0)" x1="-300" x2="-200" y1="0" y2="0" class="line3"/>
  <text transform="rotate(85 0,0)" class="text3"><textPath href="#circle3">BURROW</textPath></text>
  <line transform="rotate(148 0,0)" x1="-300" x2="-200" y1="0" y2="0" class="line3"/>
  <text transform="rotate(155 0,0)" class="text3"><textPath href="#circle3">DEN</textPath></text>
  <line transform="rotate(188 0,0)" x1="-300" x2="-200" y1="0" y2="0" class="line3"/>
  <text transform="rotate(195 0,0)" class="text3"><textPath href="#circle3">ATTICS</textPath></text>
  <line transform="rotate(246 0,0)" x1="-300" x2="-200" y1="0" y2="0" class="line3"/>
  <text transform="rotate(253 0,0)" class="text3"><textPath href="#circle3">MEDICAL</textPath></text>
  <line transform="rotate(315 0,0)" x1="-300" x2="-200" y1="0" y2="0" class="line3"/>
  <text transform="rotate(322 0,0)" class="text3"><textPath href="#circle3">MANTIS</textPath></text>

  <!-- Fourth circle -->
  <line transform="rotate(4 0,0)" x1="-400" x2="-300" y1="0" y2="0" class="line4"/>
  <text transform="rotate(12 0,0)" class="text4"><textPath href="#circle4">TREATMENT</textPath></text>
  <line transform="rotate(73 0,0)" x1="-400" x2="-300" y1="0" y2="0" class="line4"/>
  <text transform="rotate(81 0,0)" class="text4"><textPath href="#circle4">GRIEF</textPath></text>
  <line transform="rotate(116 0,0)" x1="-400" x2="-300" y1="0" y2="0" class="line4"/>
  <text transform="rotate(124 0,0)" class="text4"><textPath href="#circle4">STATIC</textPath></text>
  <line transform="rotate(162 0,0)" x1="-400" x2="-300" y1="0" y2="0" class="line4"/>
  <text transform="rotate(171 0,0)" class="text4"><textPath href="#circle4">CHARGE</textPath></text>
  <line transform="rotate(216 0,0)" x1="-400" x2="-300" y1="0" y2="0" class="line4"/>
  <text transform="rotate(224 0,0)" class="text4"><textPath href="#circle4">CHANGE</textPath></text>
  <line transform="rotate(269 0,0)" x1="-400" x2="-300" y1="0" y2="0" class="line4"/>
  <text transform="rotate(277 0,0)" class="text4"><textPath href="#circle4">DEAN</textPath></text>
  <line transform="rotate(310 0,0)" x1="-400" x2="-300" y1="0" y2="0" class="line4"/>
  <text transform="rotate(318 0,0)" class="text4"><textPath href="#circle4">METICAL</textPath></text>

  <!-- Fifth circle -->
  <line transform="rotate(33 0,0)" x1="-500" x2="-400" y1="0" y2="0" class="line5"/>
  <text transform="rotate(36 0,0)" class="text5"><textPath href="#circle5">DEAF</textPath></text>
  <line transform="rotate(58 0,0)" x1="-500" x2="-400" y1="0" y2="0" class="line5"/>
  <text transform="rotate(62 0,0)" class="text5"><textPath href="#circle5">CRIMP</textPath></text>
  <line transform="rotate(87 0,0)" x1="-500" x2="-400" y1="0" y2="0" class="line5"/>
  <text transform="rotate(91 0,0)" class="text5"><textPath href="#circle5">MUSCLE</textPath></text>
  <line transform="rotate(123 0,0)" x1="-500" x2="-400" y1="0" y2="0" class="line5"/>
  <text transform="rotate(127 0,0)" class="text5"><textPath href="#circle5">FIBER</textPath></text>
  <line transform="rotate(150 0,0)" x1="-500" x2="-400" y1="0" y2="0" class="line5"/>
  <text transform="rotate(154 0,0)" class="text5"><textPath href="#circle5">ANTIS</textPath></text>
  <line transform="rotate(178 0,0)" x1="-500" x2="-400" y1="0" y2="0" class="line5"/>
  <text transform="rotate(182 0,0)" class="text5"><textPath href="#circle5">SOG</textPath></text>
  <line transform="rotate(200 0,0)" x1="-500" x2="-400" y1="0" y2="0" class="line5"/>
  <text transform="rotate(204 0,0)" class="text5"><textPath href="#circle5">CRAMP</textPath></text>
  <line transform="rotate(232 0,0)" x1="-500" x2="-400" y1="0" y2="0" class="line5"/>
  <text transform="rotate(236 0,0)" class="text5"><textPath href="#circle5">DOG</textPath></text>
  <line transform="rotate(255 0,0)" x1="-500" x2="-400" y1="0" y2="0" class="line5"/>
  <text transform="rotate(259 0,0)" class="text5"><textPath href="#circle5">ANTICS</textPath></text>
  <line transform="rotate(287 0,0)" x1="-500" x2="-400" y1="0" y2="0" class="line5"/>
  <text transform="rotate(291 0,0)" class="text5"><textPath href="#circle5">BRIEF</textPath></text>
  <line transform="rotate(315 0,0)" x1="-500" x2="-400" y1="0" y2="0" class="line5"/>
  <text transform="rotate(319 0,0)" class="text5"><textPath href="#circle5">SORROW</textPath></text>
  <line transform="rotate(353 0,0)" x1="-500" x2="-400" y1="0" y2="0" class="line5"/>
  <text transform="rotate(357 0,0)" class="text5"><textPath href="#circle5">THERAPY</textPath></text>

</svg>
