  <svg width="500" height="500" viewBox="-550 -550 1100 1100" xmlns="http://www.w3.org/2000/svg">
  <style>
    .text1 { fill: black; font: 50px sans-serif; }
    .text2 { fill: white; font: 50px sans-serif; }
    .line2 { stroke: white; stroke-width:5; }
    .text3 { fill: black; font: 50px sans-serif; }
    .line3 { stroke: black; stroke-width:5; }
    .text4 { fill: white; font: 50px sans-serif; }
    .line4 { stroke: white; stroke-width:5; }
    .text5 { fill: black; font: 50px sans-serif; }
    .line5 { stroke: black; stroke-width:5; }
  </style>

  <circle cx="0" cy="0" r="505" fill="black" />
  <circle cx="0" cy="0" r="500" fill="white" />
  <circle cx="0" cy="0" r="400" fill="black" />
  <circle cx="0" cy="0" r="300" fill="white" />
  <circle cx="0" cy="0" r="200" fill="black" />
  <circle cx="0" cy="0" r="100" fill="white" />
  <line x1="-415" y1="-415" x2="-390" y2="-390" stroke="black" stroke-width="20"/>
  <polygon points="-375 -415, -415 -375, -360 -360" />

  <path id="circle2" fill="transparent"
      d="
      M 0 0
      m -130, 0
      a 130,130 0 1,1 260,0
      a 130,130 0 1,1 -260,0
      "
  />
  <path id="circle3" fill="transparent"
      d="
      M 0 0
      m -230, 0
      a 230,230 0 1,1 460,0
      a 230,230 0 1,1 -460,0
      "
  />
  <path id="circle4" fill="transparent"
      d="
      M 0 0
      m -330, 0
      a 330,330 0 1,1 660,0
      a 330,330 0 1,1 -660,0
      "
  />
  <path id="circle5" fill="transparent"
      d="
      M 0 0
      m -430, 0
      a 430,430 0 1,1 860,0
      a 430,430 0 1,1 -860,0
      "
  />

  <!-- First circle -->
  <text x="0" y="0" dominant-baseline="middle" text-anchor="middle" class="text1">COLD</text>

  <!-- Second circle -->
  <line transform="rotate(19 0,0)" x1="-200" x2="-100" y1="0" y2="0" class="line2"/>
  <text transform="rotate(33 0,0)" class="text2"><textPath href="#circle2">PRESSED</textPath></text>
  <line transform="rotate(156 0,0)" x1="-200" x2="-100" y1="0" y2="0" class="line2"/>
  <text transform="rotate(170 0,0)" class="text2"><textPath href="#circle2">TSAR</textPath></text>
  <line transform="rotate(245 0,0)" x1="-200" x2="-100" y1="0" y2="0" class="line2"/>
  <text transform="rotate(260 0,0)" class="text2"><textPath href="#circle2">HERRING</textPath></text>

  <!-- Third circle -->
  <line transform="rotate(0 0,0)" x1="-300" x2="-200" y1="0" y2="0" class="line3"/>
  <text transform="rotate(6 0,0)" class="text3"><textPath href="#circle3">AXON</textPath></text>
  <line transform="rotate(46 0,0)" x1="-300" x2="-200" y1="0" y2="0" class="line3"/>
  <text transform="rotate(52 0,0)" class="text3"><textPath href="#circle3">TRESSED</textPath></text>
  <line transform="rotate(116 0,0)" x1="-300" x2="-200" y1="0" y2="0" class="line3"/>
  <text transform="rotate(122 0,0)" class="text3"><textPath href="#circle3">PARKING</textPath></text>
  <line transform="rotate(183 0,0)" x1="-300" x2="-200" y1="0" y2="0" class="line3"/>
  <text transform="rotate(189 0,0)" class="text3"><textPath href="#circle3">RUSSIA</textPath></text>
  <line transform="rotate(240 0,0)" x1="-300" x2="-200" y1="0" y2="0" class="line3"/>
  <text transform="rotate(246 0,0)" class="text3"><textPath href="#circle3">HEARING</textPath></text>
  <line transform="rotate(308 0,0)" x1="-300" x2="-200" y1="0" y2="0" class="line3"/>
  <text transform="rotate(314 0,0)" class="text3"><textPath href="#circle3">LATER</textPath></text>

  <!-- Fourth circle -->
  <line transform="rotate(11 0,0)" x1="-400" x2="-300" y1="0" y2="0" class="line4"/>
  <text transform="rotate(17 0,0)" class="text4"><textPath href="#circle4">ALERT</textPath></text>
  <line transform="rotate(52 0,0)" x1="-400" x2="-300" y1="0" y2="0" class="line4"/>
  <text transform="rotate(59 0,0)" class="text4"><textPath href="#circle4">DESSERT</textPath></text>
  <line transform="rotate(107 0,0)" x1="-400" x2="-300" y1="0" y2="0" class="line4"/>
  <text transform="rotate(114 0,0)" class="text4"><textPath href="#circle4">RED</textPath></text>
  <line transform="rotate(139 0,0)" x1="-400" x2="-300" y1="0" y2="0" class="line4"/>
  <text transform="rotate(146 0,0)" class="text4"><textPath href="#circle4">NEURON</textPath></text>
  <line transform="rotate(190 0,0)" x1="-400" x2="-300" y1="0" y2="0" class="line4"/>
  <text transform="rotate(197 0,0)" class="text4"><textPath href="#circle4">WATER</textPath></text>
  <line transform="rotate(235 0,0)" x1="-400" x2="-300" y1="0" y2="0" class="line4"/>
  <text transform="rotate(242 0,0)" class="text4"><textPath href="#circle4">PRUSSIA</textPath></text>
  <line transform="rotate(287 0,0)" x1="-400" x2="-300" y1="0" y2="0" class="line4"/>
  <text transform="rotate(294 0,0)" class="text4"><textPath href="#circle4">DESERT</textPath></text>
  <line transform="rotate(336 0,0)" x1="-400" x2="-300" y1="0" y2="0" class="line4"/>
  <text transform="rotate(343 0,0)" class="text4"><textPath href="#circle4">ACID</textPath></text>

  <!-- Fifth circle -->
  <line transform="rotate(26 0,0)" x1="-500" x2="-400" y1="0" y2="0" class="line5"/>
  <text transform="rotate(30 0,0)" class="text5"><textPath href="#circle5">HEATING</textPath></text>
  <line transform="rotate(64 0,0)" x1="-500" x2="-400" y1="0" y2="0" class="line5"/>
  <text transform="rotate(68 0,0)" class="text5"><textPath href="#circle5">PRUSSIC</textPath></text>
  <line transform="rotate(102 0,0)" x1="-500" x2="-400" y1="0" y2="0" class="line5"/>
  <text transform="rotate(106 0,0)" class="text5"><textPath href="#circle5">PARALLEL</textPath></text>
  <line transform="rotate(145 0,0)" x1="-500" x2="-400" y1="0" y2="0" class="line5"/>
  <text transform="rotate(149 0,0)" class="text5"><textPath href="#circle5">AXIOM</textPath></text>
  <line transform="rotate(174 0,0)" x1="-500" x2="-400" y1="0" y2="0" class="line5"/>
  <text transform="rotate(179 0,0)" class="text5"><textPath href="#circle5">SPARKLING</textPath></text>
  <line transform="rotate(221 0,0)" x1="-500" x2="-400" y1="0" y2="0" class="line5"/>
  <text transform="rotate(226 0,0)" class="text5"><textPath href="#circle5">AXION</textPath></text>
  <line transform="rotate(251 0,0)" x1="-500" x2="-400" y1="0" y2="0" class="line5"/>
  <text transform="rotate(255 0,0)" class="text5"><textPath href="#circle5">SPARKING</textPath></text>
  <line transform="rotate(294 0,0)" x1="-500" x2="-400" y1="0" y2="0" class="line5"/>
  <text transform="rotate(298 0,0)" class="text5"><textPath href="#circle5">STAR</textPath></text>
  <line transform="rotate(320 0,0)" x1="-500" x2="-400" y1="0" y2="0" class="line5"/>
  <text transform="rotate(324 0,0)" class="text5"><textPath href="#circle5">NEUTRON</textPath></text>
  <line transform="rotate(1 0,0)" x1="-500" x2="-400" y1="0" y2="0" class="line5"/>
  <text transform="rotate(5 0,0)" class="text5"><textPath href="#circle5">ARID</textPath></text>

</svg>
