  <svg width="500" height="500" viewBox="-550 -550 1100 1100" xmlns="http://www.w3.org/2000/svg">
  <style>
    .text1 { fill: black; font: 50px sans-serif; }
    .text2 { fill: white; font: 50px sans-serif; }
    .line2 { stroke: white; stroke-width:5; }
    .text3 { fill: black; font: 50px sans-serif; }
    .line3 { stroke: black; stroke-width:5; }
    .text4 { fill: white; font: 50px sans-serif; }
    .line4 { stroke: white; stroke-width:5; }
    .text5 { fill: black; font: 50px sans-serif; }
    .line5 { stroke: black; stroke-width:5; }
  </style>

  <circle cx="0" cy="0" r="505" fill="black" />
  <circle cx="0" cy="0" r="500" fill="white" />
  <circle cx="0" cy="0" r="400" fill="black" />
  <circle cx="0" cy="0" r="300" fill="white" />
  <circle cx="0" cy="0" r="200" fill="black" />
  <circle cx="0" cy="0" r="100" fill="white" />
  <line x1="-415" y1="-415" x2="-390" y2="-390" stroke="black" stroke-width="20"/>
  <polygon points="-375 -415, -415 -375, -360 -360" />

  <path id="circle2" fill="transparent"
      d="
      M 0 0
      m -130, 0
      a 130,130 0 1,1 260,0
      a 130,130 0 1,1 -260,0
      "
  />
  <path id="circle3" fill="transparent"
      d="
      M 0 0
      m -230, 0
      a 230,230 0 1,1 460,0
      a 230,230 0 1,1 -460,0
      "
  />
  <path id="circle4" fill="transparent"
      d="
      M 0 0
      m -330, 0
      a 330,330 0 1,1 660,0
      a 330,330 0 1,1 -660,0
      "
  />
  <path id="circle5" fill="transparent"
      d="
      M 0 0
      m -430, 0
      a 430,430 0 1,1 860,0
      a 430,430 0 1,1 -860,0
      "
  />

  <!-- First circle -->
  <text x="0" y="0" dominant-baseline="middle" text-anchor="middle" class="text1">HOPE</text>

  <!-- Second circle -->
  <line transform="rotate(-27 0,0)" x1="-200" x2="-100" y1="0" y2="0" class="line2"/>
  <text transform="rotate(-17 0,0)" class="text2"><textPath href="#circle2">COPE</textPath></text>
  <line transform="rotate(57 0,0)" x1="-200" x2="-100" y1="0" y2="0" class="line2"/>
  <text transform="rotate(68 0,0)" class="text2"><textPath href="#circle2">REPRODUCE</textPath></text>
  <line transform="rotate(223 0,0)" x1="-200" x2="-100" y1="0" y2="0" class="line2"/>
  <text transform="rotate(233 0,0)" class="text2"><textPath href="#circle2">SIMILES</textPath></text>

  <!-- Third circle -->
  <line transform="rotate(23 0,0)" x1="-300" x2="-200" y1="0" y2="0" class="line3"/>
  <text transform="rotate(31 0,0)" class="text3"><textPath href="#circle3">PROTOCOL</textPath></text>
  <line transform="rotate(107 0,0)" x1="-300" x2="-200" y1="0" y2="0" class="line3"/>
  <text transform="rotate(115 0,0)" class="text3"><textPath href="#circle3">TRANSIENT</textPath></text>
  <line transform="rotate(193 0,0)" x1="-300" x2="-200" y1="0" y2="0" class="line3"/>
  <text transform="rotate(201 0,0)" class="text3"><textPath href="#circle3">SOIL</textPath></text>
  <line transform="rotate(237 0,0)" x1="-300" x2="-200" y1="0" y2="0" class="line3"/>
  <text transform="rotate(245 0,0)" class="text3"><textPath href="#circle3">INTRANET</textPath></text>
  <line transform="rotate(314 0,0)" x1="-300" x2="-200" y1="0" y2="0" class="line3"/>
  <text transform="rotate(322 0,0)" class="text3"><textPath href="#circle3">MAGNET</textPath></text>

  <!-- Fourth circle -->
  <line transform="rotate(48 0,0)" x1="-400" x2="-300" y1="0" y2="0" class="line4"/>
  <text transform="rotate(54 0,0)" class="text4"><textPath href="#circle4">PROCEDURE</textPath></text>
  <line transform="rotate(116 0,0)" x1="-400" x2="-300" y1="0" y2="0" class="line4"/>
  <text transform="rotate(122 0,0)" class="text4"><textPath href="#circle4">INTERNET</textPath></text>
  <line transform="rotate(171 0,0)" x1="-400" x2="-300" y1="0" y2="0" class="line4"/>
  <text transform="rotate(178 0,0)" class="text4"><textPath href="#circle4">COPY</textPath></text>
  <line transform="rotate(208 0,0)" x1="-400" x2="-300" y1="0" y2="0" class="line4"/>
  <text transform="rotate(215 0,0)" class="text4"><textPath href="#circle4">METEOR</textPath></text>
  <line transform="rotate(258 0,0)" x1="-400" x2="-300" y1="0" y2="0" class="line4"/>
  <text transform="rotate(264 0,0)" class="text4"><textPath href="#circle4">COIL</textPath></text>
  <line transform="rotate(291 0,0)" x1="-400" x2="-300" y1="0" y2="0" class="line4"/>
  <text transform="rotate(297 0,0)" class="text4"><textPath href="#circle4">PERMANENT</textPath></text>
  <line transform="rotate(358 0,0)" x1="-400" x2="-300" y1="0" y2="0" class="line4"/>
  <text transform="rotate(4 0,0)" class="text4"><textPath href="#circle4">REMOTE</textPath></text>

  <!-- Fifth circle -->
  <line transform="rotate(27 0,0)" x1="-500" x2="-400" y1="0" y2="0" class="line5"/>
  <text transform="rotate(32 0,0)" class="text5"><textPath href="#circle5">FUTURE</textPath></text>
  <line transform="rotate(64 0,0)" x1="-500" x2="-400" y1="0" y2="0" class="line5"/>
  <text transform="rotate(69 0,0)" class="text5"><textPath href="#circle5">SILO</textPath></text>
  <line transform="rotate(90 0,0)" x1="-500" x2="-400" y1="0" y2="0" class="line5"/>
  <text transform="rotate(95 0,0)" class="text5"><textPath href="#circle5">DISTANT</textPath></text>
  <line transform="rotate(129 0,0)" x1="-500" x2="-400" y1="0" y2="0" class="line5"/>
  <text transform="rotate(135 0,0)" class="text5"><textPath href="#circle5">SMILE</textPath></text>
  <line transform="rotate(160 0,0)" x1="-500" x2="-400" y1="0" y2="0" class="line5"/>
  <text transform="rotate(165 0,0)" class="text5"><textPath href="#circle5">MILE</textPath></text>
  <line transform="rotate(186 0,0)" x1="-500" x2="-400" y1="0" y2="0" class="line5"/>
  <text transform="rotate(192 0,0)" class="text5"><textPath href="#circle5">MISSILE</textPath></text>
  <line transform="rotate(224 0,0)" x1="-500" x2="-400" y1="0" y2="0" class="line5"/>
  <text transform="rotate(229 0,0)" class="text5"><textPath href="#circle5">INTRANETS</textPath></text>
  <line transform="rotate(272 0,0)" x1="-500" x2="-400" y1="0" y2="0" class="line5"/>
  <text transform="rotate(277 0,0)" class="text5"><textPath href="#circle5">SMILES</textPath></text>
  <line transform="rotate(307 0,0)" x1="-500" x2="-400" y1="0" y2="0" class="line5"/>
  <text transform="rotate(313 0,0)" class="text5"><textPath href="#circle5">SOLENOID</textPath></text>
  <line transform="rotate(353 0,0)" x1="-500" x2="-400" y1="0" y2="0" class="line5"/>
  <text transform="rotate(358 0,0)" class="text5"><textPath href="#circle5">METER</textPath></text>

</svg>
